<?xml version="1.0" encoding="utf-8"?>
<!-- Generator: Adobe Illustrator 16.0.0, SVG Export Plug-In . SVG Version: 6.00 Build 0)  -->
<!DOCTYPE svg PUBLIC "-//W3C//DTD SVG 1.1//EN" "http://www.w3.org/Graphics/SVG/1.1/DTD/svg11.dtd">
<svg version="1.1" id="Layer_1" xmlns="http://www.w3.org/2000/svg" xmlns:xlink="http://www.w3.org/1999/xlink" x="0px" y="0px"
	 width="128.857px" height="35px" viewBox="239.497 6.573 128.857 35" enable-background="new 239.497 6.573 128.857 35"
	 xml:space="preserve">
<g id="Layer_1_1_">
</g>
<g>
	<g>
		<g>
			<g>
				<defs>
					<rect id="SVGID_1_" x="239.497" y="6.573" width="128.857" height="35"/>
				</defs>
				<clipPath id="SVGID_2_">
					<use xlink:href="#SVGID_1_"  overflow="visible"/>
				</clipPath>
				<path clip-path="url(#SVGID_2_)" fill="#EC1C2C" d="M266.995,36.687c0-1.66-1.179-2.147-2.479-2.613
					c-1.175-0.411-2.005-0.673-2.005-1.524c0-0.839,0.649-1.3,1.761-1.3c0.997,0,1.864,0.265,2.21,0.388v-1.098
					c-0.361-0.1-1.061-0.322-2.195-0.322c-1.876,0-3.04,0.92-3.04,2.396c0,1.625,1.378,2.076,2.334,2.422
					c1.062,0.391,2.044,0.675,2.044,1.664c0,0.815-0.445,1.435-1.951,1.435c-1.062,0-2.083-0.386-2.313-0.497l-0.354,1.014
					c0.346,0.163,1.353,0.55,2.82,0.55C265.814,39.2,266.995,38.299,266.995,36.687"/>
			</g>
		</g>
	</g>
	<g>
		<g>
			<g>
				<defs>
					<rect id="SVGID_3_" x="239.497" y="6.573" width="128.857" height="35"/>
				</defs>
				<clipPath id="SVGID_4_">
					<use xlink:href="#SVGID_3_"  overflow="visible"/>
				</clipPath>
				<path clip-path="url(#SVGID_4_)" fill="#EC1C2C" d="M272.94,35.824c0,0.464-0.062,0.9-0.176,1.264
					c-0.217,0.663-0.677,1.098-1.535,1.098c-0.56,0-1.009-0.223-1.377-0.584v-1.626c0-1.373,0.561-2.347,1.571-2.347
					C272.544,33.622,272.94,34.553,272.94,35.824 M274.267,35.799c0-2.074-0.915-3.2-2.512-3.2c-1.062,0-1.662,0.541-1.929,1.052
					l-0.028-0.924h-1.185v8.847h1.237v-2.912c0.383,0.314,0.906,0.511,1.632,0.511C273.287,39.172,274.267,37.938,274.267,35.799"/>
			</g>
		</g>
	</g>
	<g>
		<g>
			<g>
				<defs>
					<rect id="SVGID_5_" x="239.497" y="6.573" width="128.857" height="35"/>
				</defs>
				<clipPath id="SVGID_6_">
					<use xlink:href="#SVGID_5_"  overflow="visible"/>
				</clipPath>
				<path clip-path="url(#SVGID_6_)" fill="#EC1C2C" d="M279.453,37.652c-0.304,0.311-0.855,0.587-1.49,0.587
					c-0.831,0-1.102-0.504-1.102-1.027c0-0.95,0.688-1.275,2.137-1.275h0.457L279.453,37.652L279.453,37.652z M280.681,39.05V34.7
					c0-1.475-0.768-2.098-2.489-2.098c-0.845,0-1.43,0.111-2.059,0.287v0.986c0.538-0.188,1.129-0.348,1.816-0.348
					c1.136,0,1.506,0.374,1.506,1.185v0.338c-0.078,0-0.572,0.015-0.65,0.015c-0.753,0.012-1.366,0.098-1.853,0.286
					c-0.867,0.339-1.324,0.96-1.324,1.912c0,1.386,0.904,1.913,1.988,1.913c0.885,0,1.574-0.375,1.865-0.664l0.025,0.537H280.681
					L280.681,39.05z"/>
			</g>
		</g>
	</g>
	<g>
		<g>
			<g>
				<defs>
					<rect id="SVGID_7_" x="239.497" y="6.573" width="128.857" height="35"/>
				</defs>
				<clipPath id="SVGID_8_">
					<use xlink:href="#SVGID_7_"  overflow="visible"/>
				</clipPath>
				<path clip-path="url(#SVGID_8_)" fill="#EC1C2C" d="M286.26,33.875v-1.15c-0.076-0.011-0.242-0.037-0.486-0.037
					c-0.829,0-1.471,0.514-1.825,1.237l-0.025-1.198h-1.188v6.324h1.238v-3.425c0-0.787,0.604-1.788,1.838-1.788
					C286.004,33.839,286.196,33.863,286.26,33.875"/>
			</g>
		</g>
	</g>
	<g>
		<g>
			<g>
				<defs>
					<rect id="SVGID_9_" x="239.497" y="6.573" width="128.857" height="35"/>
				</defs>
				<clipPath id="SVGID_10_">
					<use xlink:href="#SVGID_9_"  overflow="visible"/>
				</clipPath>
				<path clip-path="url(#SVGID_10_)" fill="#EC1C2C" d="M292.908,39.05c-0.837-1.262-1.94-2.674-3.014-3.586l2.723-2.736h-1.494
					l-2.413,2.449v-5.311h-1.236v9.185h1.236v-3.112c1.019,0.964,1.981,2.175,2.645,3.112L292.908,39.05L292.908,39.05z"/>
			</g>
		</g>
	</g>
	<g>
		<g>
			<g>
				<defs>
					<rect id="SVGID_11_" x="239.497" y="6.573" width="128.857" height="35"/>
				</defs>
				<clipPath id="SVGID_12_">
					<use xlink:href="#SVGID_11_"  overflow="visible"/>
				</clipPath>
				<path clip-path="url(#SVGID_12_)" fill="#EC1C2C" d="M297.336,37.652c-0.303,0.311-0.854,0.587-1.491,0.587
					c-0.831,0-1.098-0.504-1.098-1.027c0-0.95,0.689-1.275,2.131-1.275h0.459L297.336,37.652L297.336,37.652z M298.562,39.05V34.7
					c0-1.475-0.763-2.098-2.488-2.098c-0.844,0-1.431,0.111-2.058,0.287v0.986c0.539-0.188,1.125-0.348,1.814-0.348
					c1.138,0,1.506,0.374,1.506,1.185v0.338c-0.075,0-0.572,0.015-0.651,0.015c-0.751,0.012-1.365,0.098-1.85,0.286
					c-0.866,0.339-1.328,0.96-1.328,1.912c0,1.386,0.908,1.913,1.993,1.913c0.88,0,1.569-0.375,1.862-0.664l0.026,0.537H298.562
					L298.562,39.05z"/>
			</g>
		</g>
	</g>
	<g>
		<g>
			<g>
				<defs>
					<rect id="SVGID_13_" x="239.497" y="6.573" width="128.857" height="35"/>
				</defs>
				<clipPath id="SVGID_14_">
					<use xlink:href="#SVGID_13_"  overflow="visible"/>
				</clipPath>
				<path clip-path="url(#SVGID_14_)" fill="#EC1C2C" d="M305.034,37.26c0-1.174-0.791-1.561-1.951-1.909
					c-0.97-0.3-1.557-0.464-1.557-1.003c0-0.524,0.396-0.786,1.248-0.786c0.717,0,1.317,0.112,1.852,0.286V32.85
					c-0.471-0.138-1.084-0.248-1.926-0.248c-1.431,0-2.389,0.647-2.389,1.849c0,1.1,0.777,1.462,1.825,1.801
					c0.883,0.286,1.635,0.436,1.635,1.085c0,0.537-0.384,0.863-1.428,0.863c-0.932,0-1.6-0.264-1.891-0.376l-0.333,0.914
					c0.356,0.161,1.133,0.438,2.298,0.438C304.001,39.172,305.034,38.55,305.034,37.26"/>
			</g>
		</g>
	</g>
	<g>
		<g>
			<g>
				<defs>
					<rect id="SVGID_15_" x="239.497" y="6.573" width="128.857" height="35"/>
				</defs>
				<clipPath id="SVGID_16_">
					<use xlink:href="#SVGID_15_"  overflow="visible"/>
				</clipPath>
				<path clip-path="url(#SVGID_16_)" fill="#EC1C2C" d="M311.023,37.26c0-1.174-0.791-1.561-1.955-1.909
					c-0.972-0.3-1.56-0.464-1.56-1.003c0-0.524,0.397-0.786,1.256-0.786c0.709,0,1.314,0.112,1.848,0.286V32.85
					c-0.472-0.138-1.085-0.248-1.928-0.248c-1.432,0-2.39,0.647-2.39,1.849c0,1.1,0.781,1.462,1.829,1.801
					c0.88,0.286,1.634,0.436,1.634,1.085c0,0.537-0.384,0.863-1.43,0.863c-0.931,0-1.596-0.264-1.891-0.376l-0.331,0.914
					c0.358,0.161,1.136,0.438,2.3,0.438C309.988,39.172,311.023,38.55,311.023,37.26"/>
			</g>
		</g>
	</g>
	<g>
		<g>
			<g>
				<defs>
					<rect id="SVGID_17_" x="239.497" y="6.573" width="128.857" height="35"/>
				</defs>
				<clipPath id="SVGID_18_">
					<use xlink:href="#SVGID_17_"  overflow="visible"/>
				</clipPath>
				<path clip-path="url(#SVGID_18_)" fill="#EC1C2C" d="M316.56,35.388h-2.874c0.079-1.214,0.577-1.926,1.547-1.926
					c0.909,0,1.329,0.601,1.329,1.639v0.287H316.56z M317.861,35.525c0-1.9-0.88-2.948-2.603-2.948c-1.849,0-2.86,1.349-2.86,3.323
					c0,2.014,1.121,3.301,3.089,3.301c0.815,0,1.432-0.076,1.966-0.236l-0.243-0.925c-0.368,0.101-0.982,0.2-1.545,0.2
					c-1.236,0-1.852-0.699-1.951-1.977h4.122C317.849,36.049,317.861,35.788,317.861,35.525"/>
			</g>
		</g>
	</g>
	<g>
		<g>
			<g>
				<defs>
					<rect id="SVGID_19_" x="239.497" y="6.573" width="128.857" height="35"/>
				</defs>
				<clipPath id="SVGID_20_">
					<use xlink:href="#SVGID_19_"  overflow="visible"/>
				</clipPath>
				<path clip-path="url(#SVGID_20_)" fill="#EC1C2C" d="M327.922,34.713c0,2.2-0.984,3.299-2.645,3.299h-1.355v-6.609h1.355
					C326.938,31.402,327.922,32.512,327.922,34.713 M329.302,34.713c0-2.887-1.51-4.348-4.038-4.348h-2.617v8.686h2.617
					C327.78,39.05,329.302,37.6,329.302,34.713"/>
			</g>
		</g>
	</g>
	<g>
		<g>
			<g>
				<defs>
					<rect id="SVGID_21_" x="239.497" y="6.573" width="128.857" height="35"/>
				</defs>
				<clipPath id="SVGID_22_">
					<use xlink:href="#SVGID_21_"  overflow="visible"/>
				</clipPath>
				<path clip-path="url(#SVGID_22_)" fill="#EC1C2C" d="M334.672,33.875v-1.15c-0.077-0.011-0.241-0.037-0.483-0.037
					c-0.831,0-1.468,0.514-1.828,1.237l-0.026-1.198h-1.188v6.324h1.241v-3.425c0-0.787,0.599-1.788,1.837-1.788
					C334.416,33.839,334.607,33.863,334.672,33.875"/>
			</g>
		</g>
	</g>
	<g>
		<g>
			<g>
				<defs>
					<rect id="SVGID_23_" x="239.497" y="6.573" width="128.857" height="35"/>
				</defs>
				<clipPath id="SVGID_24_">
					<use xlink:href="#SVGID_23_"  overflow="visible"/>
				</clipPath>
				<path clip-path="url(#SVGID_24_)" fill="#EC1C2C" d="M339.584,35.388h-2.872c0.079-1.214,0.573-1.926,1.547-1.926
					c0.905,0,1.326,0.601,1.326,1.639L339.584,35.388L339.584,35.388z M340.889,35.525c0-1.9-0.879-2.948-2.607-2.948
					c-1.85,0-2.859,1.349-2.859,3.323c0,2.014,1.124,3.301,3.091,3.301c0.815,0,1.43-0.076,1.965-0.236l-0.24-0.925
					c-0.369,0.101-0.985,0.2-1.547,0.2c-1.239,0-1.852-0.699-1.955-1.977h4.124C340.877,36.049,340.889,35.788,340.889,35.525"/>
			</g>
		</g>
	</g>
	<g>
		<g>
			<g>
				<defs>
					<rect id="SVGID_25_" x="239.497" y="6.573" width="128.857" height="35"/>
				</defs>
				<clipPath id="SVGID_26_">
					<use xlink:href="#SVGID_25_"  overflow="visible"/>
				</clipPath>
				<path clip-path="url(#SVGID_26_)" fill="#EC1C2C" d="M347.027,37.26c0-1.174-0.793-1.561-1.954-1.909
					c-0.973-0.3-1.559-0.464-1.559-1.003c0-0.524,0.396-0.786,1.253-0.786c0.712,0,1.313,0.112,1.849,0.286V32.85
					c-0.472-0.138-1.083-0.248-1.926-0.248c-1.432,0-2.39,0.647-2.39,1.849c0,1.1,0.781,1.462,1.827,1.801
					c0.881,0.286,1.636,0.436,1.636,1.085c0,0.537-0.384,0.863-1.432,0.863c-0.932,0-1.597-0.264-1.893-0.376l-0.331,0.914
					c0.359,0.161,1.138,0.438,2.3,0.438C345.992,39.172,347.027,38.55,347.027,37.26"/>
			</g>
		</g>
	</g>
	<g>
		<g>
			<g>
				<defs>
					<rect id="SVGID_27_" x="239.497" y="6.573" width="128.857" height="35"/>
				</defs>
				<clipPath id="SVGID_28_">
					<use xlink:href="#SVGID_27_"  overflow="visible"/>
				</clipPath>
				<path clip-path="url(#SVGID_28_)" fill="#EC1C2C" d="M352.794,36.175c0,1.237-0.573,2-1.557,2c-1.176,0-1.495-1.013-1.495-2.239
					c0-1.473,0.68-2.308,1.648-2.308c0.715,0,1.109,0.31,1.403,0.599V36.175L352.794,36.175z M354.032,39.05v-9.187h-1.238V33.2
					c-0.267-0.286-0.83-0.599-1.687-0.599c-1.519,0-2.707,1.196-2.707,3.334c0,2.264,1.076,3.236,2.554,3.236
					c0.855,0,1.432-0.286,1.866-0.933l0.023,0.811H354.032L354.032,39.05z"/>
			</g>
		</g>
	</g>
	<g>
		<g>
			<g>
				<defs>
					<rect id="SVGID_29_" x="239.497" y="6.573" width="128.857" height="35"/>
				</defs>
				<clipPath id="SVGID_30_">
					<use xlink:href="#SVGID_29_"  overflow="visible"/>
				</clipPath>
				<path clip-path="url(#SVGID_30_)" fill="#EC1C2C" d="M359.992,35.388h-2.872c0.077-1.214,0.573-1.926,1.544-1.926
					c0.908,0,1.33,0.601,1.33,1.639v0.287H359.992z M361.294,35.525c0-1.9-0.883-2.948-2.604-2.948
					c-1.852,0-2.862,1.349-2.862,3.323c0,2.014,1.121,3.301,3.088,3.301c0.819,0,1.433-0.076,1.971-0.236l-0.245-0.925
					c-0.367,0.101-0.981,0.2-1.546,0.2c-1.239,0-1.851-0.699-1.954-1.977h4.123C361.281,36.049,361.294,35.788,361.294,35.525"/>
			</g>
		</g>
	</g>
	<g>
		<g>
			<g>
				<defs>
					<rect id="SVGID_31_" x="239.497" y="6.573" width="128.857" height="35"/>
				</defs>
				<clipPath id="SVGID_32_">
					<use xlink:href="#SVGID_31_"  overflow="visible"/>
				</clipPath>
				<path clip-path="url(#SVGID_32_)" fill="#EC1C2C" d="M368.354,39.05v-4.387c0-1.287-0.755-2.062-2.096-2.062
					c-0.945,0-1.648,0.41-2.029,1.012l-0.025-0.889h-1.189v6.322h1.238v-3.672c0-0.964,0.717-1.739,1.625-1.739
					c0.83,0,1.237,0.425,1.237,1.373v4.039L368.354,39.05z"/>
			</g>
		</g>
	</g>
	<g>
		<g>
			<g>
				<defs>
					<rect id="SVGID_33_" x="239.497" y="6.573" width="128.857" height="35"/>
				</defs>
				<clipPath id="SVGID_34_">
					<use xlink:href="#SVGID_33_"  overflow="visible"/>
				</clipPath>
				<path clip-path="url(#SVGID_34_)" fill="#EC1C2C" d="M244.427,8.986c0,1.333,1.111,2.409,2.475,2.409
					c1.367,0,2.468-1.076,2.468-2.409c0-1.338-1.101-2.413-2.468-2.413C245.538,6.573,244.427,7.646,244.427,8.986 M241.96,25.419
					h9.899c1.363,0,2.463-1.075,2.463-2.414v-5.324h-11.379v-1.448h11.379v-0.962c0-1.337-1.1-2.412-2.463-2.412h-9.899
					c-1.367,0-2.463,1.075-2.463,2.412v5.321h11.352v1.45h-11.352v0.961C239.497,24.346,240.593,25.419,241.96,25.419"/>
			</g>
		</g>
	</g>
	<g>
		<g>
			<g>
				<defs>
					<rect id="SVGID_35_" x="239.497" y="6.573" width="128.857" height="35"/>
				</defs>
				<clipPath id="SVGID_36_">
					<use xlink:href="#SVGID_35_"  overflow="visible"/>
				</clipPath>
				<path clip-path="url(#SVGID_36_)" fill="#EC1C2C" d="M267.013,21.081c0,2.213-0.83,3.473-2.327,3.473
					c-1.492,0-2.31-1.26-2.31-3.473c0-2.251,0.83-3.489,2.31-3.489C266.183,17.592,267.013,18.831,267.013,21.081 M268.393,21.081
					c0-2.886-1.457-4.524-3.708-4.524c-2.244,0-3.688,1.636-3.688,4.524c0,2.887,1.444,4.512,3.688,4.512
					C266.938,25.593,268.393,23.967,268.393,21.081"/>
			</g>
		</g>
	</g>
	<g>
		<g>
			<g>
				<defs>
					<rect id="SVGID_37_" x="239.497" y="6.573" width="128.857" height="35"/>
				</defs>
				<clipPath id="SVGID_38_">
					<use xlink:href="#SVGID_37_"  overflow="visible"/>
				</clipPath>
				<path clip-path="url(#SVGID_38_)" fill="#EC1C2C" d="M274.645,23.631c0-1.175-0.792-1.562-1.956-1.913
					c-0.968-0.3-1.558-0.461-1.558-1c0-0.526,0.397-0.789,1.254-0.789c0.712,0,1.314,0.113,1.851,0.288V19.22
					c-0.473-0.139-1.086-0.25-1.928-0.25c-1.431,0-2.389,0.651-2.389,1.852c0,1.101,0.776,1.462,1.826,1.797
					c0.88,0.292,1.633,0.44,1.633,1.088c0,0.537-0.384,0.862-1.429,0.862c-0.93,0-1.594-0.261-1.889-0.374l-0.333,0.911
					c0.356,0.163,1.138,0.438,2.299,0.438C273.609,25.542,274.645,24.918,274.645,23.631"/>
			</g>
		</g>
	</g>
	<g>
		<g>
			<g>
				<defs>
					<rect id="SVGID_39_" x="239.497" y="6.573" width="128.857" height="35"/>
				</defs>
				<clipPath id="SVGID_40_">
					<use xlink:href="#SVGID_39_"  overflow="visible"/>
				</clipPath>
				<path clip-path="url(#SVGID_40_)" fill="#EC1C2C" d="M279.749,25.356l-0.215-0.898c-0.155,0.048-0.524,0.109-0.846,0.109
					c-0.663,0-0.92-0.312-0.92-1.035v-3.49h1.676v-0.947h-1.676v-1.952c-0.434,0.215-0.895,0.413-1.235,0.538v1.412h-1.012v0.949
					h1.012v3.627c0,1.172,0.521,1.871,1.812,1.871C278.854,25.542,279.352,25.47,279.749,25.356"/>
			</g>
		</g>
	</g>
	<g>
		<g>
			<g>
				<defs>
					<rect id="SVGID_41_" x="239.497" y="6.573" width="128.857" height="35"/>
				</defs>
				<clipPath id="SVGID_42_">
					<use xlink:href="#SVGID_41_"  overflow="visible"/>
				</clipPath>
				<path clip-path="url(#SVGID_42_)" fill="#EC1C2C" d="M285.314,23.631c0-1.175-0.791-1.562-1.957-1.913
					c-0.968-0.3-1.554-0.461-1.554-1c0-0.526,0.394-0.789,1.245-0.789c0.717,0,1.32,0.113,1.854,0.288V19.22
					c-0.474-0.139-1.086-0.25-1.93-0.25c-1.429,0-2.386,0.651-2.386,1.852c0,1.101,0.775,1.462,1.824,1.797
					c0.881,0.292,1.634,0.44,1.634,1.088c0,0.537-0.381,0.862-1.43,0.862c-0.928,0-1.597-0.261-1.89-0.374l-0.331,0.911
					c0.357,0.163,1.137,0.438,2.298,0.438C284.278,25.542,285.314,24.918,285.314,23.631"/>
			</g>
		</g>
	</g>
	<g>
		<g>
			<g>
				<defs>
					<rect id="SVGID_43_" x="239.497" y="6.573" width="128.857" height="35"/>
				</defs>
				<clipPath id="SVGID_44_">
					<use xlink:href="#SVGID_43_"  overflow="visible"/>
				</clipPath>
				<path clip-path="url(#SVGID_44_)" fill="#EC1C2C" d="M290.365,24.018c-0.304,0.315-0.855,0.589-1.492,0.589
					c-0.831,0-1.101-0.5-1.101-1.025c0-0.952,0.691-1.276,2.135-1.276h0.459L290.365,24.018L290.365,24.018z M291.593,25.419v-4.351
					c0-1.472-0.766-2.099-2.49-2.099c-0.842,0-1.43,0.11-2.054,0.289v0.986c0.535-0.185,1.123-0.35,1.811-0.35
					c1.138,0,1.51,0.374,1.51,1.186v0.337c-0.079,0-0.576,0.014-0.652,0.014c-0.755,0.012-1.367,0.101-1.851,0.286
					c-0.87,0.337-1.329,0.962-1.329,1.913c0,1.386,0.907,1.912,1.993,1.912c0.881,0,1.569-0.374,1.865-0.663l0.022,0.539H291.593z
					 M288.653,17.596c0-0.4-0.318-0.71-0.766-0.71c-0.434,0-0.751,0.311-0.751,0.71c0,0.386,0.317,0.699,0.751,0.699
					C288.335,18.294,288.653,17.982,288.653,17.596 M291.173,17.596c0-0.4-0.32-0.71-0.77-0.71c-0.429,0-0.752,0.311-0.752,0.71
					c0,0.386,0.323,0.699,0.752,0.699C290.853,18.294,291.173,17.982,291.173,17.596"/>
			</g>
		</g>
	</g>
	<g>
		<g>
			<g>
				<defs>
					<rect id="SVGID_45_" x="239.497" y="6.573" width="128.857" height="35"/>
				</defs>
				<clipPath id="SVGID_46_">
					<use xlink:href="#SVGID_45_"  overflow="visible"/>
				</clipPath>
				<path clip-path="url(#SVGID_46_)" fill="#EC1C2C" d="M298.257,25.22l-0.291-0.95c-0.206,0.073-0.729,0.225-1.38,0.225
					c-1.254,0-1.903-0.726-1.903-2.237c0-1.55,0.688-2.247,1.991-2.247c0.537,0,1.085,0.133,1.354,0.208V19.22
					c-0.112-0.05-0.741-0.226-1.581-0.226c-1.979,0-3.091,1.251-3.091,3.274c0,2.025,1.086,3.251,3.04,3.251
					C297.213,25.519,297.784,25.382,298.257,25.22"/>
			</g>
		</g>
	</g>
	<g>
		<g>
			<g>
				<defs>
					<rect id="SVGID_47_" x="239.497" y="6.573" width="128.857" height="35"/>
				</defs>
				<clipPath id="SVGID_48_">
					<use xlink:href="#SVGID_47_"  overflow="visible"/>
				</clipPath>
				<path clip-path="url(#SVGID_48_)" fill="#EC1C2C" d="M304.934,25.419v-4.388c0-1.29-0.753-2.064-2.094-2.064
					c-0.972,0-1.633,0.389-2.005,0.961v-3.699h-1.24v9.188h1.24v-3.675c0-0.963,0.715-1.738,1.623-1.738
					c0.827,0,1.238,0.424,1.238,1.374v4.037h1.239v0.005H304.934L304.934,25.419z"/>
			</g>
		</g>
	</g>
	<g>
		<g>
			<g>
				<defs>
					<rect id="SVGID_49_" x="239.497" y="6.573" width="128.857" height="35"/>
				</defs>
				<clipPath id="SVGID_50_">
					<use xlink:href="#SVGID_49_"  overflow="visible"/>
				</clipPath>
				<path clip-path="url(#SVGID_50_)" fill="#EC1C2C" d="M311.405,23.631c0-1.175-0.795-1.562-1.954-1.913
					c-0.972-0.3-1.559-0.461-1.559-1c0-0.526,0.395-0.789,1.249-0.789c0.716,0,1.318,0.113,1.855,0.288V19.22
					c-0.478-0.139-1.089-0.25-1.931-0.25c-1.43,0-2.386,0.651-2.386,1.852c0,1.101,0.775,1.462,1.826,1.797
					c0.878,0.292,1.633,0.44,1.633,1.088c0,0.537-0.384,0.862-1.433,0.862c-0.93,0-1.594-0.261-1.888-0.374l-0.335,0.911
					c0.359,0.163,1.14,0.438,2.302,0.438C310.37,25.542,311.405,24.918,311.405,23.631"/>
			</g>
		</g>
	</g>
	<g>
		<g>
			<g>
				<defs>
					<rect id="SVGID_51_" x="239.497" y="6.573" width="128.857" height="35"/>
				</defs>
				<clipPath id="SVGID_52_">
					<use xlink:href="#SVGID_51_"  overflow="visible"/>
				</clipPath>
				<path clip-path="url(#SVGID_52_)" fill="#EC1C2C" d="M314.453,25.419v-6.326h-2.082v0.8c0.243,0.012,0.613,0.062,0.844,0.099
					v5.427H314.453z M314.491,17.095c0-0.426-0.369-0.76-0.806-0.76c-0.447,0-0.817,0.334-0.817,0.76c0,0.412,0.371,0.75,0.817,0.75
					C314.12,17.845,314.491,17.507,314.491,17.095"/>
			</g>
		</g>
	</g>
	<g>
		<g>
			<g>
				<defs>
					<rect id="SVGID_53_" x="239.497" y="6.573" width="128.857" height="35"/>
				</defs>
				<clipPath id="SVGID_54_">
					<use xlink:href="#SVGID_53_"  overflow="visible"/>
				</clipPath>
				<path clip-path="url(#SVGID_54_)" fill="#EC1C2C" d="M321.052,23.631c0-1.175-0.792-1.562-1.954-1.913
					c-0.972-0.3-1.557-0.461-1.557-1c0-0.526,0.395-0.789,1.248-0.789c0.715,0,1.319,0.113,1.853,0.288V19.22
					c-0.471-0.139-1.085-0.25-1.929-0.25c-1.43,0-2.389,0.651-2.389,1.852c0,1.101,0.781,1.462,1.828,1.797
					c0.881,0.292,1.635,0.44,1.635,1.088c0,0.537-0.385,0.862-1.432,0.862c-0.929,0-1.598-0.261-1.89-0.374l-0.333,0.911
					c0.358,0.163,1.138,0.438,2.3,0.438C320.021,25.542,321.052,24.918,321.052,23.631"/>
			</g>
		</g>
	</g>
	<g>
		<g>
			<g>
				<defs>
					<rect id="SVGID_55_" x="239.497" y="6.573" width="128.857" height="35"/>
				</defs>
				<clipPath id="SVGID_56_">
					<use xlink:href="#SVGID_55_"  overflow="visible"/>
				</clipPath>
				<path clip-path="url(#SVGID_56_)" fill="#EC1C2C" d="M327.331,25.22l-0.296-0.95c-0.202,0.073-0.727,0.225-1.378,0.225
					c-1.248,0-1.903-0.726-1.903-2.237c0-1.55,0.691-2.247,1.996-2.247c0.534,0,1.083,0.133,1.351,0.208V19.22
					c-0.113-0.05-0.74-0.226-1.583-0.226c-1.979,0-3.085,1.251-3.085,3.274c0,2.025,1.085,3.251,3.034,3.251
					C326.285,25.519,326.858,25.382,327.331,25.22"/>
			</g>
		</g>
	</g>
	<g>
		<g>
			<g>
				<defs>
					<rect id="SVGID_57_" x="239.497" y="6.573" width="128.857" height="35"/>
				</defs>
				<clipPath id="SVGID_58_">
					<use xlink:href="#SVGID_57_"  overflow="visible"/>
				</clipPath>
				<path clip-path="url(#SVGID_58_)" fill="#EC1C2C" d="M334.006,25.419v-4.388c0-1.29-0.751-2.064-2.092-2.064
					c-0.973,0-1.635,0.389-2.006,0.961v-3.699h-1.237v9.188h1.237v-3.675c0-0.963,0.718-1.738,1.62-1.738
					c0.832,0,1.243,0.424,1.243,1.374v4.037h1.237v0.005H334.006L334.006,25.419z"/>
			</g>
		</g>
	</g>
	<g>
		<g>
			<g>
				<defs>
					<rect id="SVGID_59_" x="239.497" y="6.573" width="128.857" height="35"/>
				</defs>
				<clipPath id="SVGID_60_">
					<use xlink:href="#SVGID_59_"  overflow="visible"/>
				</clipPath>
				<path clip-path="url(#SVGID_60_)" fill="#EC1C2C" d="M339.929,21.756h-2.873c0.078-1.212,0.571-1.925,1.546-1.925
					c0.907,0,1.328,0.6,1.328,1.638L339.929,21.756L339.929,21.756z M341.232,21.894c0-1.9-0.883-2.949-2.604-2.949
					c-1.852,0-2.862,1.348-2.862,3.326c0,2.01,1.127,3.297,3.092,3.297c0.816,0,1.427-0.075,1.965-0.236l-0.245-0.925
					c-0.367,0.102-0.98,0.203-1.544,0.203c-1.238,0-1.852-0.699-1.952-1.979h4.122C341.221,22.419,341.232,22.157,341.232,21.894"/>
			</g>
		</g>
	</g>
</g>
<g id="Layer_1_2_">
</g>
</svg>
