<?xml version="1.0" encoding="utf-8"?>
<!-- Generator: Adobe Illustrator 16.0.0, SVG Export Plug-In . SVG Version: 6.00 Build 0)  -->
<!DOCTYPE svg PUBLIC "-//W3C//DTD SVG 1.1//EN" "http://www.w3.org/Graphics/SVG/1.1/DTD/svg11.dtd">
<svg version="1.1" id="Layer_1" xmlns="http://www.w3.org/2000/svg" xmlns:xlink="http://www.w3.org/1999/xlink" x="0px" y="0px"
	 width="128.427px" height="55px" viewBox="225.114 -2 128.427 55" enable-background="new 225.114 -2 128.427 55"
	 xml:space="preserve">
<g id="Layer_1_1_">
</g>
<g>
	<g>
		<g>
			<g>
				<g>
					<g>
						<defs>
							<rect id="SVGID_1_" x="225.114" y="-2" width="128.427" height="55"/>
						</defs>
						<clipPath id="SVGID_2_">
							<use xlink:href="#SVGID_1_"  overflow="visible"/>
						</clipPath>
						<path clip-path="url(#SVGID_2_)" fill="#00B2EF" d="M260.629,51.555h-0.933v-6.58h0.893c1.271,0,1.606,1.659,1.606,3.251
							C262.196,49.82,261.848,51.555,260.629,51.555 M260.629,43.731h-2.205v9.065h2.205c1.917,0,2.874-1.876,2.874-4.57
							C263.503,45.53,262.635,43.731,260.629,43.731 M266.07,46.464v-0.466h-1.246v6.798h1.246v-5.144
							c0.286-0.415,0.621-0.531,0.972-0.531c0.388,0,0.621,0.064,0.868,0.207l0.298-1.243c-0.208-0.129-0.504-0.233-0.932-0.233
							C266.771,45.855,266.341,46.116,266.07,46.464 M269.941,48.743c0.105-1.168,0.504-1.723,1.139-1.723
							c0.7,0,1.116,0.714,1.156,1.723H269.941z M271.108,45.855c-1.44,0-2.423,1.193-2.423,3.578c0,2.136,0.881,3.51,2.498,3.51
							c0.868,0,1.554-0.391,2.021-0.91l-0.763-0.793c-0.391,0.363-0.662,0.505-1.229,0.505c-0.729,0-1.205-0.58-1.282-1.929h3.56
							c0.017-0.13,0.017-0.325,0.017-0.438C273.506,47.006,272.469,45.855,271.108,45.855 M276.872,48.786
							c-0.921-0.531-1.115-0.738-1.115-1.157c0-0.338,0.209-0.593,0.673-0.593c0.426,0,0.935,0.195,1.371,0.503l0.509-1.048
							c-0.509-0.391-1.168-0.636-1.856-0.636c-1.23,0-1.946,0.71-1.946,1.892c0,1.077,0.569,1.512,1.416,2.006
							c0.942,0.546,1.309,0.79,1.309,1.272c0,0.438-0.34,0.733-0.898,0.733c-0.451,0-0.958-0.192-1.578-0.581l-0.479,1.035
							c0.596,0.439,1.359,0.728,2.086,0.728c1.324,0,2.112-0.714,2.112-2.01C278.477,49.82,277.894,49.381,276.872,48.786
							 M282.714,51.151c-0.221,0.364-0.597,0.623-1.012,0.623c-0.713,0-1.051-0.736-1.051-2.512c0-1.604,0.336-2.24,0.989-2.24
							c0.389,0,0.801,0.196,1.073,0.606V51.151L282.714,51.151z M282.714,46.36c-0.337-0.35-0.698-0.505-1.182-0.505
							c-1.343,0-2.134,1.206-2.134,3.473c0,2.706,0.821,3.613,2.044,3.613c0.608,0,0.945-0.245,1.271-0.595v0.451h1.239v-9.441
							l-1.239,0.646V46.36L282.714,46.36z M286.454,48.743c0.106-1.168,0.507-1.723,1.144-1.723c0.7,0,1.112,0.714,1.153,1.723
							H286.454z M287.621,45.855c-1.439,0-2.421,1.193-2.421,3.578c0,2.136,0.882,3.51,2.5,3.51c0.869,0,1.556-0.391,2.022-0.91
							l-0.765-0.793c-0.389,0.363-0.661,0.505-1.232,0.505c-0.728,0-1.206-0.58-1.282-1.929h3.563
							c0.012-0.13,0.012-0.325,0.012-0.438C290.017,47.006,288.981,45.855,287.621,45.855 M293.827,45.855
							c-0.579,0-1.051,0.259-1.323,0.609v-0.466h-1.24v6.798h1.24v-5.144c0.25-0.404,0.622-0.623,1.013-0.623
							c0.624,0,0.841,0.456,0.841,1.583v4.184h1.246v-4.392C295.603,46.698,295.138,45.855,293.827,45.855"/>
					</g>
				</g>
			</g>
		</g>
	</g>
	<g>
		<g>
			<g>
				<g>
					<g>
						<defs>
							<rect id="SVGID_3_" x="225.114" y="-2" width="128.427" height="55"/>
						</defs>
						<clipPath id="SVGID_4_">
							<use xlink:href="#SVGID_3_"  overflow="visible"/>
						</clipPath>
						<path clip-path="url(#SVGID_4_)" fill="#80C242" d="M227.964,36.411c-1.009-0.65-1.319-1.025-1.319-1.698
							c0-0.57,0.335-0.96,0.942-0.96c0.571,0,0.868,0.207,1.309,0.793l0.933-0.828c-0.543-0.796-1.151-1.233-2.201-1.233
							c-1.416,0-2.295,0.946-2.295,2.269c0,1.426,0.8,2.084,1.826,2.758c1.221,0.803,1.517,1.206,1.517,1.9
							c0,0.739-0.401,1.156-1.089,1.156c-0.559,0-0.985-0.231-1.478-1.011l-0.995,0.805c0.522,0.882,1.257,1.477,2.398,1.477
							c1.604,0,2.472-1.036,2.472-2.485C229.985,37.833,229.091,37.135,227.964,36.411 M232.627,39.986v-3.929h1.312V34.89h-1.312
							v-2.642l-1.244,0.659v1.984h-0.737v1.168h0.737v4.04c0,1.102,0.403,1.734,1.31,1.734c0.467,0,0.82-0.114,1.113-0.31
							l0.142-1.151c-0.184,0.156-0.477,0.286-0.806,0.286C232.808,40.66,232.627,40.465,232.627,39.986 M238.238,40.038
							c-0.244,0.4-0.621,0.622-1.008,0.622c-0.624,0-0.844-0.456-0.844-1.583v-4.185h-1.244v4.393c0,1.707,0.468,2.55,1.774,2.55
							c0.582,0,1.048-0.258,1.318-0.608v0.47h1.25v-6.803h-1.25L238.238,40.038L238.238,40.038z M244.041,40.052
							c-0.217,0.361-0.598,0.622-1.011,0.622c-0.71,0-1.047-0.741-1.047-2.515c0-1.605,0.337-2.241,0.986-2.241
							c0.386,0,0.801,0.195,1.074,0.611v3.522H244.041z M244.041,35.257c-0.337-0.35-0.697-0.505-1.176-0.505
							c-1.347,0-2.138,1.204-2.138,3.471c0,2.71,0.816,3.613,2.047,3.613c0.606,0,0.946-0.243,1.266-0.593v0.452h1.249v-9.444
							l-1.249,0.646L244.041,35.257L244.041,35.257z M247.787,37.643c0.101-1.168,0.504-1.722,1.139-1.722
							c0.697,0,1.113,0.712,1.152,1.722H247.787z M248.951,34.751c-1.438,0-2.419,1.192-2.419,3.576c0,2.139,0.879,3.51,2.498,3.51
							c0.869,0,1.555-0.388,2.021-0.904l-0.763-0.795c-0.389,0.365-0.661,0.505-1.231,0.505c-0.725,0-1.208-0.58-1.281-1.931h3.562
							c0.015-0.128,0.015-0.323,0.015-0.441C251.348,35.905,250.31,34.751,248.951,34.751 M255.156,34.751
							c-0.582,0-1.046,0.259-1.321,0.609v-0.468h-1.245v6.8h1.245v-5.145c0.244-0.4,0.624-0.622,1.011-0.622
							c0.623,0,0.845,0.453,0.845,1.581v4.188h1.241v-4.394C256.932,35.593,256.466,34.751,255.156,34.751 M259.884,39.986v-3.929
							h1.308V34.89h-1.308v-2.642l-1.243,0.659v1.984h-0.739v1.168h0.739v4.04c0,1.102,0.397,1.734,1.307,1.734
							c0.467,0,0.82-0.114,1.115-0.31l0.14-1.151c-0.179,0.156-0.478,0.286-0.804,0.286
							C260.065,40.66,259.884,40.465,259.884,39.986 M263.356,37.643c0.107-1.168,0.504-1.722,1.141-1.722
							c0.702,0,1.113,0.712,1.155,1.722H263.356z M264.522,34.751c-1.438,0-2.421,1.192-2.421,3.576c0,2.139,0.88,3.51,2.502,3.51
							c0.863,0,1.553-0.388,2.017-0.904l-0.764-0.795c-0.389,0.365-0.656,0.505-1.23,0.505c-0.723,0-1.201-0.58-1.281-1.931h3.564
							c0.013-0.128,0.013-0.323,0.013-0.441C266.918,35.905,265.885,34.751,264.522,34.751 M270.73,34.751
							c-0.585,0-1.054,0.259-1.323,0.609v-0.468h-1.246v6.8h1.246v-5.145c0.244-0.4,0.621-0.622,1.01-0.622
							c0.622,0,0.841,0.453,0.841,1.581v4.188h1.246v-4.394C272.503,35.593,272.036,34.751,270.73,34.751 M278.804,37.794
							c-0.069,0.389-0.249,1.658-0.293,1.983c-0.049-0.336-0.296-1.619-0.389-2.011l-0.649-2.875h-1.128l-0.618,2.875
							c-0.093,0.392-0.327,1.675-0.378,2.011c-0.041-0.325-0.232-1.581-0.3-1.983l-0.504-2.9h-1.19l1.375,6.801h1.165l0.686-3.24
							c0.093-0.453,0.26-1.388,0.309-1.71c0.052,0.322,0.221,1.245,0.311,1.673l0.698,3.277h1.166l1.398-6.803h-1.189
							L278.804,37.794z M282.388,37.643c0.108-1.168,0.504-1.722,1.141-1.722c0.697,0,1.113,0.712,1.152,1.722H282.388z
							 M283.552,34.751c-1.436,0-2.421,1.192-2.421,3.576c0,2.139,0.883,3.51,2.498,3.51c0.87,0,1.561-0.388,2.023-0.904
							l-0.764-0.795c-0.389,0.365-0.662,0.505-1.229,0.505c-0.726,0-1.205-0.58-1.282-1.931h3.559
							c0.018-0.128,0.018-0.323,0.018-0.441C285.951,35.905,284.914,34.751,283.552,34.751 M288.439,35.358v-0.466h-1.246v6.801
							h1.246v-5.146c0.283-0.412,0.619-0.53,0.971-0.53c0.392,0,0.625,0.066,0.868,0.209l0.301-1.244
							c-0.211-0.13-0.503-0.234-0.932-0.234C289.136,34.751,288.708,35.011,288.439,35.358 M294.297,37.25l1.461-2.358h-1.411
							l-1.023,1.856c-0.166,0.307-0.426,0.775-0.561,1.049c0.016-0.338,0.029-1.038,0.029-1.466v-4.08l-1.244,0.646v8.796h1.244
							v-2.097l0.672-1.078l1.125,3.175h1.362L294.297,37.25z"/>
					</g>
				</g>
			</g>
		</g>
	</g>
	<g>
		<g>
			<g>
				<g>
					<g>
						<defs>
							<rect id="SVGID_5_" x="225.114" y="-2" width="128.427" height="55"/>
						</defs>
						<clipPath id="SVGID_6_">
							<use xlink:href="#SVGID_5_"  overflow="visible"/>
						</clipPath>
						<path clip-path="url(#SVGID_6_)" fill="#00B2EF" d="M330.386,36.536c0.634-0.332,3.537-4.241,1.543-7.847
							c-1.479-2.667-8.118-5.595-14.191-8.743c-5.741-2.979-10.182-6.485-11.083-11.964c-0.602-3.702,2.85-6.307,2.85-6.307
							c-0.565,0.467-0.984,1.346-0.836,3.367c0.83,11.33,27.854,13.492,27.892,22.811C336.579,32.788,330.386,36.536,330.386,36.536
							"/>
					</g>
				</g>
			</g>
		</g>
	</g>
	<g>
		<g>
			<g>
				<g>
					<g>
						<defs>
							<rect id="SVGID_7_" x="225.114" y="-2" width="128.427" height="55"/>
						</defs>
						<clipPath id="SVGID_8_">
							<use xlink:href="#SVGID_7_"  overflow="visible"/>
						</clipPath>
						<path clip-path="url(#SVGID_8_)" fill="#80C242" d="M310.858,32.664c-0.771,0.881-0.68,0.711-1.301,1.684
							c-0.022,0.043-0.075,0.116,0.036,0.215c0.713,0.676,1.4,0.947,1.343,1.04c-0.062,0.099-0.603-0.121-1.565-0.827
							c-0.02-0.012-0.082,0.006-0.1,0.031c-0.036-0.102-0.555,0.19,1.322,1.188c0.09,0.044,0.528,0.275,0.993,0.447
							c0.467-1.008,0.726-1.666,0.973-3.446C312.232,33.082,311.016,33.113,310.858,32.664 M306.903,26.472
							c-1.974-0.692-4.469,0.612-4.469,0.612s0.301,0.591,0.737,1.36c0.437-0.224,0.93-0.38,1.46-0.425
							c1.94-0.167,3.628,1.061,3.78,2.75c0.087,1.023-0.419,1.985-1.263,2.617c0.538,0.495,0.934,0.831,0.934,0.831
							s1.447-0.177,1.951-2.637C310.579,28.938,308.712,27.1,306.903,26.472 M308.033,31.427c-0.002-0.357,0.058-1.402-0.778-2.158
							c-0.933-0.835-2.191-1.134-3.318-0.81c-0.749,0.211,2.164,1.481,1.753,1.893c-0.117,0.114-1.656-0.744-1.111,0.096
							c0.453,0.702,1.885,2.144,2.333,2.595c0.036,0.032,0.157-0.013,0.157-0.013s0.179-0.035,0.524-0.346
							C307.826,32.47,308.038,31.902,308.033,31.427 M308.018,24.374c0.518,0.711,1.226,0.52,1.478,1.141
							c0.874,1.568,1.059,5.007,2.79,4.938c0.222-1.668-2.07-3.598-2.209-5.258c-0.068-0.77,0.419-1.12,0.178-1.74
							c-0.182-0.679-0.567-1.473-1.423-1.516c0.316,0.208,0.717,0.717,1.008,1.66c-1.211-0.645-1.591-1.266-1.554-1.575
							C307.623,22.381,307.497,23.531,308.018,24.374 M312.582,32.548c0-0.068,0.014-0.118,0.028-0.186
							c0.023-0.093,0.045-0.188,0.066-0.279c0.034-0.137,0.034-0.266,0.034-0.405c0-0.017-0.044-0.042-0.127-0.081
							c0.014,0.128-0.008,0.247-0.084,0.219c-0.062-0.026-0.136-0.201-0.146-0.309c-0.062-0.019-0.129-0.044-0.206-0.065
							c0.013,0.127-0.007,0.244-0.085,0.216c-0.056-0.023-0.119-0.162-0.137-0.272c-0.07-0.015-0.141-0.031-0.206-0.037
							c0.035,0.147,0.019,0.341-0.073,0.306c-0.059-0.023-0.134-0.187-0.141-0.303c-0.049,0.016-0.086,0.034-0.103,0.061
							c-0.064,0.116-0.27,0.609-0.308,0.738c-0.007,0.022-0.002,0.037-0.025,0.037c0,0,0.071,0.075,0.025,0.068
							c-0.212-0.046-0.129,0.212-0.129,0.212c0.377,0.501,1.365,0.386,1.575,0.343c0.061-0.013,0.072-0.159,0.036-0.211
							C312.578,32.591,312.582,32.57,312.582,32.548 M337.273,12.901c0.013,0.062,0.021,0.109,0.041,0.165v0.113
							c0.026,0.3,0.365,0.421,0.581,0.47c0.22,0.025,0.414,0.021,0.622-0.082c0.17-0.085,0.468-0.247,0.582-0.437
							c0.179-0.281,0.081-0.817-0.158-1.018c-0.37-0.32-1.054-0.217-1.399,0.097C337.355,12.375,337.224,12.605,337.273,12.901
							 M339.17,11.912c0.307,0.256,0.437,0.919,0.21,1.271c-0.16,0.243-0.543,0.449-0.764,0.553c-0.272,0.13-0.52,0.133-0.812,0.104
							c-0.282-0.061-0.727-0.212-0.752-0.586v-0.137c-0.032-0.067-0.043-0.133-0.059-0.211c-0.062-0.373,0.111-0.652,0.356-0.872
							C337.797,11.642,338.686,11.514,339.17,11.912 M338.216,10.772c-0.041-0.114-0.301-0.346-0.849-0.485
							c0.134,0.271,0.134,0.691,0.316,1.121c-0.338-0.391-0.737-0.779-1.25-0.518c0.188,0.112,0.287,0.489,0.525,0.767
							c-0.76-0.305-1.524-0.589-1.674-0.42c0.447,0.3,0.896,0.93,1.448,1.254c-0.392,0.069-0.771,0.327-0.994,1.039
							c0.131-0.214,0.448-0.05,0.819-0.085c-0.685,0.566-0.993,1.135-0.911,1.325c0.179-0.165,1.005-0.499,1.723-0.894
							c-0.168,0.467-0.31,1.005-0.155,1.139c0.021-0.152,0.8-0.526,1.063-0.924c0.052,0.448,0.107,1.016,0.712,0.994
							c-0.093-0.143,0.049-0.574-0.097-0.954c0.415,0.484,1.131,1.011,1.753,0.783c-0.312-0.067-0.796-0.956-1.249-1.427
							c0.465,0.348,1.062,0.799,1.471,0.168c-0.188-0.031-0.665-0.466-1.14-0.658c0.377-0.203,0.65-0.658,0.589-1.124
							c-0.144,0.127-0.469,0.074-0.762,0.161c0.129-0.163,0.252-0.358,0.329-0.602c0.078-0.354,0.086-0.338,0.09-0.741
							c-0.117,0.382-0.612,0.539-0.932,0.841c0.225-0.621,0.423-1.396,0.02-2.156c-0.048,0.292-0.531,1.078-0.728,1.812
							C338.324,11.058,338.293,10.914,338.216,10.772 M340.216,23.469c-0.52,0.197-0.394,0.514-0.527,0.697
							c-1.021,1.419-3.633-0.224-3.878-0.154c-0.112,0.031,0.688,0.444,0.692,0.853c0.001,0.46,0.45,0.619,0.49,0.793
							c-0.08,0.313,0.313,0.666,0.87,0.729c0.341,0.037,0.16,0.127,0.16,0.127c-0.21,0.069-0.05-0.017-0.383,0.106
							c-0.027,0.411,0.975,0.241,0.408,1.618c-0.005,0.026-0.578,1.383-0.694,1.799c0.031,0.086,1.533-1.757,2.434-3.592
							c0.075-0.155,0.69-1.759,0.785-2.285c-0.027-0.013-0.365-0.389-0.009-0.777C340.653,23.286,340.495,23.363,340.216,23.469
							 M317.257,12.141l0.044-0.224l0.047-1.276l-0.593,0.228l-0.148,1.261L317.257,12.141z M318.704,11.921l0.043-0.229
							l0.052-1.305l-0.595,0.234l-0.146,1.287L318.704,11.921z M323.552,9.413c0.078-0.114-2.189-0.451-4.959-0.272
							c-0.23,0.016-2.265,0.345-2.929,0.634c0.012,0.069,0.508,3.643,0.593,1.535c0.04-0.995,0.05-1.02,0.063-1.004
							c1.682-0.65,2.971-1.093,3.809-1.201c0.035-0.002,1.774,0.874,2.354,1.679C322.514,10.768,321.765,9.609,323.552,9.413
							 M330.267,15.454c-0.994-1.1-2.633-1.603-4.43-1.851c0.004-0.002,0.012-0.002,0.017-0.004
							c0.001-0.089-0.017-0.179-0.017-0.269c-0.006-0.174,0.029-0.34,0.029-0.516c0-0.184,0.018-0.353,0.043-0.538
							c0.013-0.064,0.085-0.11,0.128-0.16c0.062-0.068,0.043,0.01,0.107,0.076c0.037,0.042,0.184-0.019,0.225,0.022
							c0.093,0.086,0.255,0.07,0.359,0.062c0.222-0.015,0.642-0.162,0.591-0.489c-0.021-0.156,0.046-0.131-0.012-0.257
							c0.126-0.044,0.113-0.097,0.246-0.134c0.158-0.053,0.324-0.198,0.366-0.401c0.032-0.152-0.018-0.303-0.111-0.419
							c-0.064-0.075,0.088-0.078,0.044-0.167c0.063-0.083-0.044-0.071,0.035-0.155c0.083-0.088,0.012-0.229-0.067-0.307
							c-0.204-0.203-0.511-0.294-0.768-0.304c0.04-0.102,0.161-0.049,0.176-0.2c0.015-0.118-0.074-0.185-0.164-0.207
							c-0.127-0.038-0.374,0-0.504,0.041c-0.059,0.022-0.111,0.064-0.175,0.068c0.134-0.076,0.019-0.241-0.067-0.302
							c-0.15-0.11-0.4-0.053-0.556,0.024c-0.219,0.112-0.814,0.042-0.806,0.372c0.006,0.054,0.049,0.103-0.068,0.087
							c-0.117-0.016-0.15,0.03-0.234,0.13c-0.113,0.131-0.29,0.297-0.219,0.479c0.03,0.073,0.01,0.07-0.021,0.16
							c-0.219-0.037-0.451,0.076-0.376,0.477c0.036,0.19,0.114,0.421,0.275,0.438c0.011,0.017-0.021,0.021-0.027,0.042
							c-0.086,0.04,0.019-0.013-0.069,0.045c-0.102,0.061-0.118,0.178-0.099,0.307c0.058,0.304,0.405,0.521,0.642,0.557
							c0.086,0.013,0.229,0.1,0.3,0.009l0.043-0.013c0.016-0.01,0.045-0.007,0.063,0c0.046,0.211,0.054,0.474-0.002,0.671
							c-0.046,0.17-0.09,0.32-0.175,0.472c-0.043,0.074-0.099,0.13-0.145,0.192c-1.153-0.101-2.334-0.127-3.433-0.161l0.021-0.084
							l0.056-1.501l-0.755-0.07l-0.255,1.624c-1.294-0.055-2.405-0.16-3.1-0.474c2.486,1.909,10.938,5.554,9.781,2.896
							C326.484,14.183,328.956,14.64,330.267,15.454 M331.879,2.661c0.862,0.639,1.437-0.062,0.57-0.702
							C331.56,1.088,331.01,2.024,331.879,2.661 M330.111,3.066c0.173-0.233,0.695-0.295,0.536-0.075
							c0.186,0.4-0.969,0.543-0.02,0.999c0.05-0.837,1.162-0.781,1.461-0.111c0.174,0.387-0.325,1.665-0.762,1.19
							c-0.304-0.329,0.927-0.682,0.213-1.21c-0.663-0.492-0.421,0.637-0.832,0.68c-0.133,0.1-0.674-0.525-0.768-0.604
							C329.547,3.585,329.817,3.465,330.111,3.066 M326.722,7.718l-0.271-1.204l0.202-0.536l1.333-1.427l2.612,1.923l0.16,0.769
							l3.631-4.198l-1.07-0.833c0.121,0.274,0.121,0.571-0.073,0.831l-0.116,0.079c-0.721,0.981-2.844-0.638-1.947-1.604
							c0.206-0.223,0.48-0.302,0.769-0.273l-1.613-0.967l-5.018,6.493L326.722,7.718z M329.412,8.784
							c-0.083-0.305-0.164-0.611-0.251-0.919c-0.264,0.52-0.495,0.166-0.076-0.355c0.43-0.527,0.659,1.149,0.736,1.407
							c0.279-0.154,0.188,0.018,0.309,0.147c0.043,0.161-0.803,0.275-0.954,0.071C329.144,9.027,329.508,9.113,329.412,8.784
							 M330.943,8.43c0.042-0.81-0.58-1.496-1.392-1.533c-0.806-0.042-1.494,0.584-1.53,1.393c-0.041,0.805,0.584,1.49,1.392,1.531
							C330.219,9.856,330.904,9.236,330.943,8.43 M318.877,35.998c0.067-0.383,0.133-0.763,0.199-1.146
							C320.165,34.807,319.881,36.408,318.877,35.998 M314.779,33.49c0.021,0.008,0.044,0.015,0.063,0.021
							C314.51,38.324,313.463,36.311,314.779,33.49 M314.399,32.845c-0.617,0.833-1.104,3.38-0.434,4.057
							c-0.497-0.021-1.479-0.785-1.356,0.128c2.247,0.971,3.73,1.459,6.936,1.736c-0.143-0.984-1.684-0.686-1.461-1.434
							c0.593-0.793,1.951-0.431,2.254-1.669C320.205,33.347,316.948,33.356,314.399,32.845 M315.832,27.971
							c1.242-0.16-0.04,4.332,2.074,4.309C317.908,31.659,317.624,27.174,315.832,27.971 M319.838,30.296
							c0.216,1.404-2.265,1.205-0.977,2.834C319.011,32.109,321.572,31.771,319.838,30.296 M317.427,32.535
							c-4.462-1.266-1.579-7.731-4.717-8.164C313.256,25.384,311.921,32.747,317.427,32.535 M318.428-0.147
							c0.437-0.308-0.62,1.248-0.707,1.491c-0.692,1.98-1.332,1.946-1.405,2.376c-0.082,0.494,0.077,0.346,0.569,0.419
							c0.487,0.076,0.711,0.005,0.556,0.379c-0.115,0.273-0.072,0.213-0.085,0.576l1.244,0.036
							c-0.198,0.056-0.785,0.232-1.271,0.357c-0.006,0.068-0.015,0.148-0.023,0.241c-0.079,0.747,0.656,0.174,0.208,1.192
							c-0.484,1.096,2.289,0.674,2.289,0.674l0.007,0.189l-0.019,0.417c0.434-0.234,0.648-0.13,1.293-0.112
							c1.875,0.042,2.935,0.331,2.935,0.331s-0.64-3.474,0.365-3.52c1.01-0.053,1.679-1.922,1.679-1.922l-1.743,0.312
							c0,0-0.076-0.479-0.823,0.438c-0.733,0.908-2.086,1.312-2.086,1.312s0.649-0.969,0.784-1.994
							c-0.013,0.1-3.283,0.221-2.045-2.415c0.478-1.007,1.06-1.178,1.06-1.178l-1.286,0.1l2.979-1.46l-2.377-0.089l-1.188,0.181
							C319.337-1.819,316.476,1.264,318.428-0.147 M321.933-0.047c1.104-0.348,4.343-0.249,4.383-1.237
							C324.373-1.827,321.978-1.032,321.933-0.047 M322.794,1.348c0.85-0.231,3.483,0.312,3.82-1.18
							C326.122,0.674,322.837,0.73,322.794,1.348 M310.554,6.387c0.312,2.782,3.364,3.725,4.24,4.689
							c-1.196-3.291-3.029-2.048-3.378-5.749c-0.016-0.154-0.073-1.61,0.365-2.944C310.571,4.206,310.437,5.372,310.554,6.387
							 M314.354,6.147c-0.113,0.033-0.35,0.22-0.45,0.162c-0.036-0.021-0.078-0.063-0.119-0.065
							c-0.019,0.207,0.182,0.29,0.257,0.313c0.151,0.056,0.347,0.323,0.498,0.347c0.096,0.232,0.309,0.161,0.394,0.145
							c0.14-0.045,0.967-0.995,1.099-1.113l-1.202,0.389C314.644,6.465,314.56,6.101,314.354,6.147 M313.324,2.905
							c-0.37,0.14-0.576,0.476-0.478,0.742c0.108,0.266,0.241,0.241,0.605,0.097c0.37-0.143,1.111-0.071,1.004-0.341
							C314.352,3.133,313.689,2.756,313.324,2.905 M314.613,0.59c0.809,0.264-1.144,1.392-1.164,1.388
							c2.863,0.464,3.488-1.197,3.706-1.766c0.208-0.542,0.939-1.974,0.939-1.974s-3.062,0.486-4.558,1.108
							c-2.965,1.227-3.167,4.147-3.167,4.147S312.2-0.197,314.613,0.59 M314.793,5.538c0,0,0.532,0.211,0.593-0.595l-1.195-0.115
							L314.793,5.538z M329.086-0.379c-0.51-0.236-0.845-0.279-0.845-0.279l-0.818,3.031l2.521-2.329
							C329.944,0.042,329.591-0.147,329.086-0.379 M323.386,24.261c-2.369-1.653-4.022-2.02-5.73-1.269
							c0.933,1.354,1.382-0.111,2.254,0.893c-1.354,1.781-3.562-1.383-5.114-0.744c0.535,0.666,1.083,1.178,1.632,1.581
							c-0.192-0.104-0.374-0.215-0.552-0.312c-0.108-0.062-0.701-0.418-0.779-0.253c0.265,0.306,0.506,0.528,0.82,0.767
							c0.189,0.14,0.38,0.302,0.576,0.406c0.218,0.117,0.341,0.125,0.561,0.188c0.253,0.071,0.702,0.122,1.055,0.125
							c1.765,0.705,3.502,0.75,4.986,1.616C322.263,25.749,325.884,26.312,323.386,24.261 M313.494,22.059
							c-0.764-1.58-1.694-0.218-2.479-1.419c2.109-1.473,3.928,2.221,5.969,1.94c-0.525-0.892-1.053-1.565-1.582-2.094
							c0.03,0.017,0.06,0.035,0.093,0.052c0.124,0.07,0.805,0.48,0.922,0.32c-0.283-0.336-0.552-0.586-0.907-0.851
							c-0.212-0.157-0.428-0.339-0.655-0.462c-0.251-0.137-0.397-0.157-0.654-0.233c-0.209-0.066-0.374-0.103-0.521-0.122
							c-1.375-0.766-2.77-1.098-4.181-2.193c-0.312,0.284-0.591,0.596-0.771,0.747c-0.052,0.042-1.208,0.941-1.257,0.98
							c-0.212,0.177-0.417,0.159,0.279,0.609c-0.08,0.778,0.799,0.498,1.028,0.795c0.093,0.127-0.04,0.064,0.075,0.16
							C310.837,21.901,311.542,22.475,313.494,22.059 M305.651,8.883c-0.004-0.011-0.252,2.157-0.252,2.157l-0.786,3.114
							l2.622,4.288l2.641-2.045c0,0-2.269-2.445-3.412-4.763C305.79,10.255,305.651,8.883,305.651,8.883 M304.269,15.507
							c0,0,1.409,4.038,1.599,3.911c0.189-0.125,0.784-0.611,0.784-0.611l-2.284-3.723L304.269,15.507z M331.411,18.577
							c0,0,1.609-3.303,2.856-3.158c1.026,0.129-3.561-1.694-3.561-1.694l0.206,0.477c0,0,0.323,0.219,0.39,0.353
							c0.068,0.135-0.342,0.901-0.342,0.901s-1.638,2.486-1.753,2.54c-0.118,0.049-0.244,0.179-0.365,0.107
							c-0.125-0.07-0.341-0.193-0.341-0.193s-0.443,0.245,0.605,0.663c0.401,0.162,2.057,1.076,2.547,1.513
							c0.49,0.438,0.188-0.329,0.188-0.329s-0.406-0.327-0.61-0.563c-0.032-0.031-0.038-0.064-0.02-0.102
							C331.3,18.948,331.411,18.577,331.411,18.577 M331.427,11.498c0-0.452-0.368-0.819-0.824-0.819
							c-0.448,0-0.818,0.365-0.818,0.819s0.367,0.818,0.818,0.818C331.059,12.313,331.427,11.949,331.427,11.498 M332.265,13.019
							c0,0.654,0.534,1.186,1.187,1.186c0.654,0,1.189-0.531,1.189-1.186c0-0.657-0.536-1.191-1.189-1.191
							C332.799,11.826,332.265,12.362,332.265,13.019 M328.135,27.289c-0.877-0.478-5.222-2.908-0.799,1.186
							c1.293,1.688,1.43-0.468,3.936,1.505C330.635,28.697,328.661,27.581,328.135,27.289 M329.535,32.68
							C327.113,34.669,329.179,36.036,329.535,32.68 M327.362,33.119c0.94-1.965-2.218-2.719-2.1-0.692
							C325.616,33.424,326.604,33.67,327.362,33.119 M327.835,29.944c-1.181-0.29-2.244-3.001-3.551-0.954
							c0.148,0.729,1.387,1.027,0.33,1.611c1.574,0.275,3.768,0.405,3.553,2.354c0.681,0.548,0.917-1.121,1.88-0.387
							c0.106,1.384-0.71,2.163-1.655,2.852c-0.375-0.022-0.52-0.384-0.919-0.371c-0.009-0.649,1.043-0.961,0.263-1.453
							c-1.796,0.614-2.766-0.029-2.904-1.922c-0.982,0.012-1.28,0.067-2.524-0.042c-0.731,1.936,1.462,2.132,2.479,2.566
							C327.343,42.093,335.894,29.726,327.835,29.944 M324.558,30.336c-2.556-0.792-4.091-3.78-7.243-3.226
							c2.349,1.66,4.234,2.979,6.604,4.194C323.991,30.886,324.202,30.561,324.558,30.336 M304.409,24.062
							c-0.158,0.28-0.516,0.389-0.799,0.229c-0.288-0.156-0.388-0.516-0.229-0.797c0.156-0.289,0.513-0.391,0.796-0.232
							C304.464,23.422,304.561,23.778,304.409,24.062 M306.351,24.61c0,0,0.155-0.133,0.179-0.339c0,0,0.112-1.015-0.215-1.96
							c-0.231-0.666-0.829-1.58-0.829-1.58s-0.112-0.172-0.314-0.209c0,0-0.77-0.114-1.368,0.438
							c-0.646,0.594-2.302,0.643-2.302,0.643s-0.209,0.004-0.237,0.208c0,0-0.148,1.065,0.081,2.054
							c0.264,1.129,0.631,1.714,0.631,1.714s0.114,0.176,0.314,0.173c0,0,1.543-0.023,2.287-0.18
							C305.493,25.375,306.351,24.61,306.351,24.61 M301.406,18.955l0.338,0.238l0.092,0.635l-0.305,0.352l0.274,0.939l2.1-0.56
							c0,0-1.026-3.713-1.401-4.909c-0.202-0.625-0.622-0.333-0.821-0.086c-0.134,0.171-0.005,0.428-0.08,0.559
							c-0.176,0.317-0.307,0.391-0.307,0.391l0.096,0.598l-0.335,0.479l0.015,0.335l0.401,0.508L301.406,18.955z M303.206,14.748
							c0.039-0.116,0.054-1.018,0.081-1.46c0.01-0.137,0.043-0.591,0.043-0.598c0.082,0.027,0.641-0.178,0.759-0.33
							c0.09-0.12,0.215-0.368,0.237-0.518c0.055-0.436,0.036-0.789-0.251-1.138c-0.162-0.204-0.31-0.305-0.563-0.34
							c-0.171-0.021-0.244-0.038-0.417-0.019c-0.141,0.011-0.668,0.052-0.91,0.399c-0.218,0.306-0.223,0.429-0.204,0.745
							c0.023,0.325,0.231,0.632,0.355,0.797l0.001,0.032c-0.001,0.052-0.018,0.102-0.048,0.142
							c-0.099,0.221-0.209,0.449-0.322,0.665c-0.152,0.292-0.329,0.601-0.519,0.874c-0.042,0.068-0.084,0.091-0.099,0.159
							C301.434,14.079,302.474,14.515,303.206,14.748 M304.008,9.133l0.843,1.009c0,0,0.354-0.748,0.111-1.345
							c-0.583-1.433,1.648-4.845,1.648-4.845s-2.177,2.126-3.04,3.906C303.123,8.78,304.008,9.133,304.008,9.133 M338.468,23.288
							c-0.452-0.259-1.079-0.468-1.527-0.832l-0.087-0.062l-0.083-0.063c-0.329,0.232-0.738,0.37-1.051,0.611
							c0.299,0.171,0.604,0.39,0.939,0.469C337.248,23.542,337.885,23.445,338.468,23.288 M338.731,22.118
							c-0.131-0.215-0.231-0.459-0.389-0.653c-0.362,0.233-0.954,0.408-1.168,0.717c0.575,0.398,1.209,0.74,1.898,0.905
							C339.404,22.906,338.776,22.41,338.731,22.118 M336.324,21.961c-0.337-0.294-0.573-0.709-0.853-1.031
							c-0.389,0.247-0.905,0.469-1.281,0.724c0.19,0.259,0.491,0.737,0.76,0.957c0.134,0.112,0.281,0.012,0.433,0.044
							C335.643,22.414,336.411,22.292,336.324,21.961 M339.654,22.769c0.27-0.527,0.295-1.172,0.31-1.765
							c-0.023-0.122,0.021-0.348-0.059-0.418c-0.352,0.267-0.938,0.399-1.163,0.709C339.063,21.747,339.277,22.494,339.654,22.769
							 M336.808,21.86c0.396-0.285,1.1-0.466,1.307-0.834c-0.241-0.371-0.412-0.844-0.682-1.163c-0.462,0.341-1.3,0.528-1.517,0.968
							C336.153,21.218,336.452,21.569,336.808,21.86 M341.348,19.784c-0.307,0.285-0.99,0.353-1.043,0.778
							c0.035,0.584-0.013,1.172-0.127,1.752c0.386-0.245,0.641-0.715,0.86-1.125c0.197-0.435,0.37-0.945,0.333-1.408L341.348,19.784
							z M335.278,20.507c-0.246-0.404-0.329-0.893-0.476-1.325c-0.334,0.272-0.935,0.514-1.12,0.886
							c-0.099,0.23-0.072,0.135,0.046,0.57c0.062,0.223,0.154,0.435,0.283,0.635C334.327,20.81,335.055,20.834,335.278,20.507
							 M339.87,20.125c-0.073-0.481-0.188-0.971-0.438-1.393c-0.462,0.492-1.289,0.356-1.562,0.985
							c0.224,0.388,0.433,0.789,0.671,1.166C338.992,20.644,339.442,20.391,339.87,20.125 M337.262,19.477
							c-0.24-0.408-0.438-0.859-0.707-1.247l-0.02-0.004c-0.389,0.333-1.189,0.451-1.3,0.94c0.105,0.413,0.191,0.847,0.425,1.215
							C336.134,19.737,336.734,19.793,337.262,19.477 M339.83,18.613c0.229,0.398,0.28,0.972,0.485,1.306
							c0.354-0.202,0.726-0.381,1.078-0.593c-0.014-0.504-0.146-1.018-0.394-1.46h-0.017
							C340.643,18.139,339.977,18.281,339.83,18.613 M338.28,17.251c-0.386,0.308-1.101,0.454-1.293,0.844
							c0.245,0.353,0.41,0.938,0.718,1.14c0.492-0.665,1.019-0.562,1.52-0.845C339.041,17.938,338.644,17.566,338.28,17.251
							 M334.796,17.64c-0.013-0.277,0.083-0.872,0.044-1.109c-0.689,0.661-1.314,1.226-1.275,2.902
							c0.359-0.131,0.833-0.496,1.185-0.669C334.853,18.445,334.731,18.003,334.796,17.64 M339.893,16.333l-0.114,0.091
							c-0.284,0.258-0.981,0.382-1.046,0.684c0.373,0.268,0.6,0.828,0.915,1.051c0.398-0.198,0.785-0.42,1.169-0.634
							C340.564,17.09,340.315,16.704,339.893,16.333 M335.121,17.902c-0.017,0.294-0.057,0.875,0.344,0.477
							c0.316-0.25,1.201-0.368,0.71-0.876c-0.225-0.39-0.471-0.869-0.707-1.254C335.074,16.62,335.197,17.384,335.121,17.902
							 M336.375,17.015c0.182,0.343,0.35,0.858,0.754,0.436c0.276-0.209,1.186-0.428,0.485-0.708
							c-0.481-0.321-1.021-0.573-1.588-0.724C335.662,16.235,336.327,16.7,336.375,17.015 M336.661,15.888
							c0.601,0.188,1.141,0.524,1.649,0.893c0.32-0.184,1.045-0.461,1.165-0.727c-0.562-0.258-1.227-0.446-1.848-0.431
							C337.359,15.652,336.751,15.708,336.661,15.888 M324.094,36.071c-1.76-0.801-1.866-0.825-3.209-1.579
							c0.042,2.302,0.178,2.186,0.317,4.064c1.79-2.225,1.508,0.848,3.545-0.085C323.481,37.512,322.879,37.264,324.094,36.071
							 M335.686,5.575C335.842,7.074,333.613,4.739,335.686,5.575 M332.872,10.06c1.616,0.479,5.301-0.071,5.618-1.671
							c0.196-0.964-1.092-1.674-1.856-1.992c0.599-0.812-0.736-1.947-1.51-1.947C332.736,4.487,332.34,8.189,332.872,10.06"/>
					</g>
				</g>
			</g>
		</g>
	</g>
	<g>
		<g>
			<g>
				<g>
					<g>
						<defs>
							<rect id="SVGID_9_" x="225.114" y="-2" width="128.427" height="55"/>
						</defs>
						<clipPath id="SVGID_10_">
							<use xlink:href="#SVGID_9_"  overflow="visible"/>
						</clipPath>
						<path clip-path="url(#SVGID_10_)" fill="#808184" d="M302.738,48.713h1.622c-0.04,0.084-0.085,0.169-0.135,0.278l-1.599,3.481
							v0.4h2.197v-0.421h-1.728c0.048-0.085,0.098-0.183,0.137-0.279l1.591-3.481v-0.4h-2.084v0.422H302.738z M307.843,51.497
							c0,0.658-0.236,1.021-0.719,1.021c-0.491,0-0.751-0.368-0.751-1.026v-3.201h-0.455v3.216c0,0.915,0.434,1.438,1.185,1.438
							c0.759,0,1.197-0.532,1.197-1.444v-3.209h-0.46V51.5h0.002L307.843,51.497L307.843,51.497z M310.597,50.278
							c-0.591-0.419-0.711-0.684-0.711-1.049c0-0.292,0.171-0.58,0.535-0.58c0.335,0,0.511,0.2,0.694,0.562l0.391-0.221
							c-0.221-0.471-0.502-0.763-1.064-0.763c-0.617,0-1.017,0.443-1.017,1.038c0,0.602,0.234,0.938,0.885,1.395
							c0.604,0.425,0.793,0.786,0.793,1.23c0,0.382-0.242,0.638-0.633,0.638c-0.335,0-0.545-0.229-0.72-0.677l-0.424,0.191
							c0.202,0.568,0.555,0.911,1.127,0.911c0.686,0,1.104-0.471,1.104-1.116C311.559,51.196,311.292,50.749,310.597,50.278
							 M313.213,51.255l0.255-1.139c0.098-0.427,0.206-0.918,0.247-1.255c0.054,0.337,0.154,0.819,0.252,1.25l0.253,1.146h-1.007
							V51.255L313.213,51.255z M313.481,48.291l-1.081,4.581h0.446l0.275-1.191h1.198l0.271,1.191h0.464l-1.085-4.581H313.481z
							 M317.782,50.704c-0.112,0.393-0.215,0.776-0.252,1.079c-0.037-0.303-0.132-0.687-0.247-1.079l-0.693-2.41h-0.504v4.58h0.426
							v-2.741c0-0.265-0.01-0.61-0.01-0.804c0.054,0.279,0.127,0.562,0.224,0.908l0.801,2.768l0.796-2.768
							c0.097-0.346,0.184-0.635,0.23-0.908c0,0.195-0.007,0.567-0.007,0.804v2.741h0.426v-4.58h-0.501L317.782,50.704z
							 M321.911,50.704c-0.115,0.393-0.217,0.776-0.255,1.079c-0.034-0.303-0.13-0.687-0.245-1.079l-0.692-2.41h-0.505v4.58h0.425
							v-2.741c0-0.265-0.003-0.61-0.003-0.804c0.054,0.279,0.125,0.562,0.22,0.908l0.801,2.768l0.795-2.768
							c0.102-0.346,0.185-0.635,0.231-0.908c0,0.195-0.009,0.567-0.009,0.804v2.741h0.422v-4.58h-0.494L321.911,50.704z
							 M324.804,50.639h0.939v-0.431h-0.939V48.72h1.497v-0.43h-1.956v4.581h2.034v-0.427h-1.575V50.639L324.804,50.639z
							 M329.376,50.92c0,0.275,0.005,0.722,0.015,0.893c-0.105-0.253-0.304-0.716-0.479-1.124l-1.037-2.394h-0.446v4.578h0.429
							v-2.748c0-0.275-0.004-0.71-0.004-0.89c0.113,0.286,0.305,0.743,0.472,1.125l1.099,2.511h0.389v-4.58h-0.434v2.629H329.376z
							 M331.193,52.259c-0.188,0-0.336,0.153-0.336,0.347c0,0.188,0.148,0.34,0.336,0.34c0.197,0,0.335-0.151,0.335-0.34
							C331.528,52.412,331.39,52.259,331.193,52.259 M336.091,50.971c-0.048,0.312-0.104,0.797-0.128,1.061
							c-0.028-0.264-0.104-0.758-0.159-1.061l-0.471-2.68h-0.389l-0.467,2.68c-0.05,0.304-0.133,0.797-0.162,1.061
							c-0.018-0.264-0.077-0.747-0.121-1.061l-0.372-2.68h-0.438l0.701,4.582h0.414l0.41-2.258c0.071-0.388,0.178-1.07,0.215-1.485
							c0.044,0.415,0.146,1.088,0.216,1.485l0.41,2.258h0.427l0.706-4.582h-0.438L336.091,50.971z M337.933,52.874h0.456v-4.58
							h-0.456V52.874z M340.72,50.385h-0.594v-1.668h0.62c0.466,0,0.733,0.288,0.733,0.821
							C341.48,50.09,341.219,50.385,340.72,50.385 M341.937,49.514c0-0.828-0.511-1.224-1.172-1.224h-1.094v4.581h0.459v-2.073
							c0.08,0,0.574,0,0.635-0.007l0.684,2.08h0.503l-0.719-2.192C341.657,50.505,341.937,50.117,341.937,49.514 M345.266,48.291
							h-0.49l-0.786,1.346c-0.159,0.281-0.38,0.674-0.504,0.908c0-0.16,0.009-0.553,0.009-0.743v-1.511h-0.458v4.581h0.458v-1.689
							l0.446-0.719l0.933,2.408h0.498l-1.115-2.864L345.266,48.291z M346.817,50.639h0.939v-0.431h-0.939V48.72h1.498v-0.43h-1.955
							v4.581h2.035v-0.427h-1.578V50.639L346.817,50.639z M351.39,50.92c0,0.275,0.009,0.722,0.012,0.893
							c-0.104-0.253-0.301-0.716-0.476-1.124l-1.04-2.394h-0.442v4.578h0.43v-2.748c0-0.275-0.004-0.71-0.004-0.89
							c0.109,0.286,0.303,0.743,0.469,1.125l1.099,2.511h0.388v-4.58h-0.43v2.629H351.39z M353.209,52.259
							c-0.192,0-0.333,0.153-0.333,0.347c0,0.188,0.141,0.34,0.333,0.34c0.194,0,0.332-0.151,0.332-0.34
							C353.543,52.412,353.403,52.259,353.209,52.259"/>
					</g>
				</g>
			</g>
		</g>
	</g>
</g>
</svg>
