<?xml version="1.0" encoding="utf-8"?>
<!-- Generator: Adobe Illustrator 16.0.0, SVG Export Plug-In . SVG Version: 6.00 Build 0)  -->
<!DOCTYPE svg PUBLIC "-//W3C//DTD SVG 1.1//EN" "http://www.w3.org/Graphics/SVG/1.1/DTD/svg11.dtd">
<svg version="1.1" id="Layer_1" xmlns="http://www.w3.org/2000/svg" xmlns:xlink="http://www.w3.org/1999/xlink" x="0px" y="0px"
	 width="108.521px" height="50px" viewBox="-29.456 -24.345 108.521 50" enable-background="new -29.456 -24.345 108.521 50"
	 xml:space="preserve">
<g>
	<g>
		<path fill="#272728" d="M33.009-23.555h1.637c1.482,0,2.45,0.88,2.45,2.396s-0.968,2.409-2.45,2.409h-1.637V-23.555z
			 M34.599-19.502c0.974,0,1.597-0.575,1.597-1.658c0-1.069-0.636-1.645-1.597-1.645h-0.717v3.302H34.599z"/>
		<path fill="#272728" d="M37.875-22.202H38.7v0.595c0,0.129-0.014,0.244-0.014,0.244H38.7c0.155-0.494,0.568-0.886,1.097-0.886
			c0.081,0,0.155,0.014,0.155,0.014v0.846c0,0-0.088-0.014-0.203-0.014c-0.365,0-0.778,0.21-0.94,0.724
			c-0.055,0.169-0.074,0.358-0.074,0.562v1.367h-0.859V-22.202z"/>
		<path fill="#272728" d="M42.043-22.283c0.994,0,1.529,0.724,1.529,1.637c0,0.102-0.021,0.332-0.021,0.332H41.17
			c0.054,0.602,0.521,0.914,1.035,0.914c0.555,0,0.995-0.379,0.995-0.379l0.331,0.616c0,0-0.527,0.494-1.387,0.494
			c-1.144,0-1.854-0.825-1.854-1.806C40.291-21.539,41.014-22.283,42.043-22.283 M42.706-20.903
			c-0.014-0.467-0.305-0.717-0.684-0.717c-0.439,0-0.744,0.271-0.825,0.717H42.706z"/>
		<path fill="#272728" d="M44.385-19.779c0,0,0.379,0.379,0.94,0.379c0.243,0,0.453-0.108,0.453-0.312
			c0-0.514-1.678-0.446-1.678-1.556c0-0.643,0.575-1.015,1.319-1.015c0.777,0,1.157,0.392,1.157,0.392l-0.318,0.636
			c0,0-0.318-0.298-0.846-0.298c-0.224,0-0.44,0.095-0.44,0.311c0,0.487,1.679,0.426,1.679,1.536c0,0.575-0.501,1.035-1.32,1.035
			c-0.858,0-1.339-0.507-1.339-0.507L44.385-19.779z"/>
		<path fill="#272728" d="M48.668-22.283c0.758,0,0.995,0.44,0.995,0.44h0.013c0,0-0.007-0.088-0.007-0.196v-1.516h0.859v4.804
			h-0.812v-0.284c0-0.129,0.014-0.224,0.014-0.224h-0.014c0,0-0.291,0.589-1.083,0.589c-0.934,0-1.528-0.737-1.528-1.807
			C47.105-21.572,47.755-22.283,48.668-22.283 M48.83-19.394c0.446,0,0.866-0.325,0.866-1.09c0-0.534-0.284-1.062-0.859-1.062
			c-0.474,0-0.866,0.386-0.866,1.069C47.97-19.82,48.323-19.394,48.83-19.394"/>
		<path fill="#272728" d="M51.476-22.202h0.825v0.399c0,0.128-0.014,0.236-0.014,0.236h0.014c0.149-0.291,0.528-0.717,1.225-0.717
			c0.765,0,1.198,0.399,1.198,1.312v2.219h-0.853v-2.043c0-0.419-0.108-0.704-0.549-0.704c-0.46,0-0.798,0.291-0.927,0.704
			c-0.047,0.142-0.061,0.298-0.061,0.46v1.583h-0.859V-22.202z"/>
		<path fill="#272728" d="M57.134-22.283c0.994,0,1.529,0.724,1.529,1.637c0,0.102-0.021,0.332-0.021,0.332H56.26
			c0.054,0.602,0.521,0.914,1.035,0.914c0.555,0,0.995-0.379,0.995-0.379l0.331,0.616c0,0-0.527,0.494-1.387,0.494
			c-1.144,0-1.854-0.825-1.854-1.806C55.382-21.539,56.105-22.283,57.134-22.283 M57.797-20.903
			c-0.014-0.467-0.305-0.717-0.684-0.717c-0.44,0-0.744,0.271-0.825,0.717H57.797z"/>
		<path fill="#272728" d="M59.374-22.202h0.825v0.595c0,0.129-0.014,0.244-0.014,0.244h0.014c0.155-0.494,0.568-0.886,1.097-0.886
			c0.081,0,0.155,0.014,0.155,0.014v0.846c0,0-0.088-0.014-0.203-0.014c-0.366,0-0.778,0.21-0.94,0.724
			c-0.055,0.169-0.074,0.358-0.074,0.562v1.367h-0.859V-22.202z"/>
		<path fill="#272728" d="M33.117-11.862c0,0,0.521,0.507,1.198,0.507c0.365,0,0.697-0.189,0.697-0.582
			c0-0.859-2.267-0.711-2.267-2.186c0-0.798,0.69-1.394,1.61-1.394c0.947,0,1.435,0.515,1.435,0.515l-0.379,0.71
			c0,0-0.46-0.419-1.062-0.419c-0.406,0-0.724,0.237-0.724,0.575c0,0.853,2.26,0.643,2.26,2.179c0,0.765-0.582,1.407-1.583,1.407
			c-1.069,0-1.658-0.656-1.658-0.656L33.117-11.862z"/>
		<path fill="#272728" d="M36.771-13.344h-0.446v-0.683h0.467v-0.995h0.839v0.995h0.785v0.683h-0.785v1.34
			c0,0.568,0.446,0.649,0.684,0.649c0.095,0,0.155-0.014,0.155-0.014v0.751c0,0-0.102,0.021-0.264,0.021
			c-0.48,0-1.435-0.142-1.435-1.299V-13.344z"/>
		<path fill="#272728" d="M39.127-14.081h0.858v2.043c0,0.419,0.108,0.704,0.535,0.704c0.622,0,0.968-0.548,0.968-1.164v-1.583
			h0.859v3.451h-0.826v-0.392c0-0.136,0.014-0.244,0.014-0.244h-0.014c-0.169,0.359-0.608,0.717-1.197,0.717
			c-0.737,0-1.197-0.372-1.197-1.312V-14.081z"/>
		<path fill="#272728" d="M44.621-14.162c0.758,0,0.995,0.439,0.995,0.439h0.014c0,0-0.007-0.088-0.007-0.196v-1.516h0.859v4.805
			H45.67v-0.285c0-0.128,0.014-0.223,0.014-0.223H45.67c0,0-0.291,0.588-1.082,0.588c-0.935,0-1.529-0.737-1.529-1.807
			C43.058-13.452,43.708-14.162,44.621-14.162 M44.784-11.273c0.446,0,0.865-0.325,0.865-1.089c0-0.535-0.284-1.062-0.859-1.062
			c-0.473,0-0.865,0.386-0.865,1.069C43.925-11.7,44.276-11.273,44.784-11.273"/>
		<path fill="#272728" d="M48.938-14.162c0.995,0,1.529,0.724,1.529,1.637c0,0.102-0.021,0.332-0.021,0.332h-2.382
			c0.055,0.602,0.521,0.914,1.036,0.914c0.555,0,0.994-0.379,0.994-0.379l0.331,0.616c0,0-0.527,0.494-1.387,0.494
			c-1.144,0-1.854-0.825-1.854-1.806C47.186-13.418,47.91-14.162,48.938-14.162 M49.601-12.782
			c-0.014-0.467-0.305-0.717-0.684-0.717c-0.439,0-0.744,0.271-0.825,0.717H49.601z"/>
		<path fill="#272728" d="M51.178-14.081h0.825v0.399c0,0.129-0.014,0.237-0.014,0.237h0.014c0.149-0.291,0.528-0.717,1.225-0.717
			c0.765,0,1.198,0.399,1.198,1.312v2.219h-0.853v-2.043c0-0.419-0.108-0.704-0.548-0.704c-0.461,0-0.799,0.291-0.928,0.704
			c-0.047,0.142-0.061,0.298-0.061,0.46v1.583h-0.859V-14.081z"/>
		<path fill="#272728" d="M55.475-13.344h-0.446v-0.683h0.467v-0.995h0.839v0.995h0.785v0.683h-0.785v1.34
			c0,0.568,0.447,0.649,0.684,0.649c0.095,0,0.156-0.014,0.156-0.014v0.751c0,0-0.103,0.021-0.265,0.021
			c-0.48,0-1.435-0.142-1.435-1.299V-13.344z"/>
		<path fill="#272728" d="M59.386-14.162c0.995,0,1.529,0.724,1.529,1.637c0,0.102-0.02,0.332-0.02,0.332h-2.382
			c0.054,0.602,0.521,0.914,1.035,0.914c0.555,0,0.994-0.379,0.994-0.379l0.332,0.616c0,0-0.528,0.494-1.387,0.494
			c-1.144,0-1.854-0.825-1.854-1.806C57.635-13.418,58.358-14.162,59.386-14.162 M60.05-12.782
			c-0.013-0.467-0.304-0.717-0.683-0.717c-0.44,0-0.744,0.271-0.826,0.717H60.05z"/>
		<path fill="#272728" d="M61.627-14.081h0.825v0.399c0,0.129-0.013,0.237-0.013,0.237h0.013c0.149-0.291,0.528-0.717,1.226-0.717
			c0.765,0,1.197,0.399,1.197,1.312v2.219h-0.853v-2.043c0-0.419-0.108-0.704-0.548-0.704c-0.46,0-0.799,0.291-0.928,0.704
			c-0.047,0.142-0.061,0.298-0.061,0.46v1.583h-0.859V-14.081z"/>
		<path fill="#272728" d="M65.924-13.344h-0.446v-0.683h0.467v-0.995h0.839v0.995h0.785v0.683h-0.785v1.34
			c0,0.568,0.447,0.649,0.684,0.649c0.095,0,0.156-0.014,0.156-0.014v0.751c0,0-0.102,0.021-0.265,0.021
			c-0.48,0-1.435-0.142-1.435-1.299V-13.344z"/>
		<path fill="#272728" d="M70.079-12.795h0.115v-0.047c0-0.454-0.284-0.609-0.663-0.609c-0.494,0-0.947,0.332-0.947,0.332
			l-0.325-0.616c0,0,0.535-0.426,1.354-0.426c0.907,0,1.435,0.5,1.435,1.374v2.158h-0.792v-0.284c0-0.135,0.014-0.243,0.014-0.243
			h-0.014c0.007,0-0.264,0.609-1.049,0.609c-0.615,0-1.17-0.386-1.17-1.076C68.036-12.721,69.517-12.795,70.079-12.795
			 M69.423-11.219c0.453,0,0.778-0.487,0.778-0.907v-0.081h-0.148c-0.44,0-1.15,0.061-1.15,0.541
			C68.902-11.436,69.071-11.219,69.423-11.219"/>
		<path fill="#272728" d="M73.246-9.94c0.528,0,0.975-0.224,0.975-0.839v-0.203c0-0.081,0.014-0.182,0.014-0.182H74.22
			c-0.203,0.304-0.501,0.466-0.961,0.466c-0.988,0-1.55-0.798-1.55-1.745c0-0.948,0.535-1.719,1.53-1.719
			c0.75,0,1.021,0.44,1.021,0.44h0.02c0,0-0.007-0.041-0.007-0.095v-0.264h0.806v3.241c0,1.184-0.92,1.631-1.82,1.631
			c-0.433,0-0.893-0.122-1.225-0.298l0.257-0.656C72.292-10.164,72.725-9.94,73.246-9.94 M74.241-12.437
			c0-0.785-0.386-0.995-0.853-0.995c-0.521,0-0.812,0.379-0.812,0.961c0,0.602,0.312,1.049,0.866,1.049
			C73.855-11.422,74.241-11.659,74.241-12.437"/>
		<path fill="#272728" d="M77.537-14.162c0.994,0,1.528,0.724,1.528,1.637c0,0.102-0.02,0.332-0.02,0.332h-2.382
			c0.054,0.602,0.521,0.914,1.035,0.914c0.555,0,0.995-0.379,0.995-0.379l0.331,0.616c0,0-0.528,0.494-1.387,0.494
			c-1.144,0-1.854-0.825-1.854-1.806C75.784-13.418,76.509-14.162,77.537-14.162 M78.199-12.782
			c-0.013-0.467-0.304-0.717-0.683-0.717c-0.44,0-0.744,0.271-0.825,0.717H78.199z"/>
	</g>
	<g>
		<defs>
			<path id="SVGID_1_" d="M-2.063-19.025L0.824-17.1c0,0,1.354-2.525,3.85-2.525c1.805,0,3.249,1.112,3.249,2.976
				c0,4.241-9.986,5.475-9.986,13.175c0,0.602,0.09,1.204,0.181,1.896h14.168v-3.338H2.298c0.091-4.032,9.656-5.205,9.656-12.063
				c0-4.03-3.188-6.317-6.948-6.317C-0.108-23.296-2.063-19.025-2.063-19.025"/>
		</defs>
		<clipPath id="SVGID_2_">
			<use xlink:href="#SVGID_1_"  overflow="visible"/>
		</clipPath>
		
			<linearGradient id="SVGID_3_" gradientUnits="userSpaceOnUse" x1="-184.7737" y1="126.3115" x2="-184.4875" y2="126.3115" gradientTransform="matrix(50.0987 0 0 -50.0987 9254.8584 6315.6172)">
			<stop  offset="0" style="stop-color:#C48324"/>
			<stop  offset="0.5" style="stop-color:#F1D179"/>
			<stop  offset="1" style="stop-color:#C48324"/>
		</linearGradient>
		<rect x="-2.063" y="-23.296" clip-path="url(#SVGID_2_)" fill="url(#SVGID_3_)" width="14.349" height="21.718"/>
	</g>
	<g>
		<path fill="none" stroke="#BB874D" stroke-width="0.5" stroke-miterlimit="10" d="M-2.063-3.474c0-7.701,9.986-8.934,9.986-13.175
			c0-1.865-1.443-2.977-3.248-2.977c-2.497,0-3.851,2.525-3.851,2.525l-2.888-1.925c0,0,1.956-4.271,7.069-4.271
			c3.759,0,6.948,2.287,6.948,6.317c0,6.858-9.565,8.031-9.656,12.063h9.987v3.338H-1.882C-1.973-2.27-2.063-2.872-2.063-3.474z"/>
	</g>
	<g>
		<defs>
			<path id="SVGID_4_" d="M16.97-22.934l-0.992,10.828l2.135,0.782c0,0,1.414-0.901,3.309-0.901c2.437,0,4.302,1.474,4.302,3.7
				c0,2.255-1.955,3.639-4.031,3.639c-2.768,0-4.542-2.136-4.542-2.136l-1.985,2.918c0,0,2.316,2.888,6.828,2.888
				c4.452,0,7.7-3.129,7.7-7.34c0-3.851-2.797-7.009-7.52-7.009c-1.294,0-2.287,0.483-2.287,0.483h-0.06c0,0,0.09-0.422,0.15-0.993
				l0.331-3.52h7.881v-3.338H16.97z"/>
		</defs>
		<clipPath id="SVGID_5_">
			<use xlink:href="#SVGID_4_"  overflow="visible"/>
		</clipPath>
		
			<linearGradient id="SVGID_6_" gradientUnits="userSpaceOnUse" x1="-185.634" y1="126.332" x2="-185.3474" y2="126.332" gradientTransform="matrix(50.7267 0 0 -50.7267 9431.7344 6396.3398)">
			<stop  offset="0" style="stop-color:#C48324"/>
			<stop  offset="0.5" style="stop-color:#F1D179"/>
			<stop  offset="1" style="stop-color:#C48324"/>
		</linearGradient>
		<rect x="15.165" y="-22.934" clip-path="url(#SVGID_5_)" fill="url(#SVGID_6_)" width="14.528" height="21.717"/>
	</g>
	<g>
		<path fill="none" stroke="#BB874D" stroke-width="0.5" stroke-miterlimit="10" d="M17.151-7.023c0,0,1.774,2.136,4.542,2.136
			c2.076,0,4.031-1.384,4.031-3.64c0-2.226-1.865-3.7-4.302-3.7c-1.895,0-3.309,0.901-3.309,0.901l-2.135-0.782l0.992-10.828H28.19
			v3.338h-7.881l-0.331,3.52c-0.061,0.571-0.15,0.993-0.15,0.993h0.06c0,0,0.993-0.482,2.287-0.482c4.722,0,7.52,3.158,7.52,7.009
			c0,4.211-3.249,7.34-7.701,7.34c-4.512,0-6.828-2.888-6.828-2.888L17.151-7.023z"/>
	</g>
	<g>
		<defs>
			<rect id="SVGID_7_" x="32.785" y="-6.843" width="3.82" height="3.821"/>
		</defs>
		<clipPath id="SVGID_8_">
			<use xlink:href="#SVGID_7_"  overflow="visible"/>
		</clipPath>
		
			<linearGradient id="SVGID_9_" gradientUnits="userSpaceOnUse" x1="-188.2678" y1="127.1943" x2="-187.9817" y2="127.1943" gradientTransform="matrix(13.3377 0 0 -13.3377 2543.8389 1691.5474)">
			<stop  offset="0" style="stop-color:#C48324"/>
			<stop  offset="0.5" style="stop-color:#F1D179"/>
			<stop  offset="1" style="stop-color:#C48324"/>
		</linearGradient>
		<rect x="32.785" y="-6.843" clip-path="url(#SVGID_8_)" fill="url(#SVGID_9_)" width="3.82" height="3.821"/>
	</g>
	<g>
		
			<rect x="32.785" y="-6.843" fill="none" stroke="#BB874D" stroke-width="0.5" stroke-miterlimit="10" width="3.82" height="3.821"/>
		<rect x="57.742" y="-5.416" fill="#272728" width="3.905" height="0.955"/>
		<path fill="#272728" d="M41.404-3.284h1.084v-2.773c0-0.169,0.007-0.338,0.007-0.338h-0.014c0,0-0.057,0.12-0.219,0.282
			l-0.401,0.38l-0.534-0.563l1.252-1.203h0.796v4.215h1.083v0.781h-3.054V-3.284z"/>
		<path fill="#272728" d="M45.181-2.629l0.268-0.781c0,0,0.317,0.162,0.697,0.162c0.788,0,1.21-0.655,1.337-1.337h-0.015
			c-0.176,0.205-0.584,0.352-0.942,0.352c-0.985,0-1.598-0.774-1.598-1.675c0-0.922,0.654-1.675,1.646-1.675
			c1.041,0,1.929,0.866,1.929,2.372c0,1.309-0.753,2.794-2.302,2.794C45.569-2.418,45.181-2.629,45.181-2.629 M47.56-5.522
			c0-0.626-0.465-1.225-0.985-1.225c-0.464,0-0.753,0.366-0.753,0.838c0,0.506,0.316,0.929,0.922,0.929
			C47.195-4.98,47.56-5.219,47.56-5.522"/>
		<path fill="#272728" d="M49.43-2.629l0.268-0.781c0,0,0.316,0.162,0.696,0.162c0.789,0,1.211-0.655,1.338-1.337h-0.014
			c-0.177,0.205-0.585,0.352-0.944,0.352c-0.984,0-1.597-0.774-1.597-1.675c0-0.922,0.654-1.675,1.646-1.675
			c1.041,0,1.928,0.866,1.928,2.372c0,1.309-0.753,2.794-2.301,2.794C49.817-2.418,49.43-2.629,49.43-2.629 M51.809-5.522
			c0-0.626-0.465-1.225-0.985-1.225c-0.465,0-0.753,0.366-0.753,0.838c0,0.506,0.316,0.929,0.922,0.929
			C51.443-4.98,51.809-5.219,51.809-5.522"/>
		<path fill="#272728" d="M53.504-3.284h1.084v-2.773c0-0.169,0.007-0.338,0.007-0.338h-0.014c0,0-0.057,0.12-0.219,0.282
			l-0.401,0.38l-0.534-0.563l1.252-1.203h0.796v4.215h1.083v0.781h-3.054V-3.284z"/>
		<path fill="#272728" d="M63.326-2.946c0-1.802,2.337-2.09,2.337-3.083c0-0.437-0.338-0.696-0.76-0.696
			c-0.584,0-0.9,0.591-0.9,0.591l-0.677-0.451c0,0,0.458-0.999,1.654-0.999c0.88,0,1.626,0.535,1.626,1.478
			c0,1.604-2.238,1.879-2.259,2.822h2.336v0.781h-3.314C63.347-2.665,63.326-2.805,63.326-2.946"/>
		<path fill="#272728" d="M67.456-5.008c0-1.436,0.443-2.576,1.809-2.576s1.815,1.14,1.815,2.576c0,1.436-0.45,2.59-1.815,2.59
			S67.456-3.572,67.456-5.008 M70.144-5.008c0-0.972-0.197-1.739-0.88-1.739s-0.88,0.767-0.88,1.739c0,0.985,0.197,1.759,0.88,1.759
			S70.144-4.022,70.144-5.008"/>
		<path fill="#272728" d="M71.86-3.284h1.083v-2.773c0-0.169,0.007-0.338,0.007-0.338h-0.014c0,0-0.057,0.12-0.218,0.282
			l-0.401,0.38l-0.535-0.563l1.253-1.203h0.795v4.215h1.084v0.781H71.86V-3.284z"/>
		<path fill="#272728" d="M75.454-4.79c0-1.309,0.754-2.794,2.302-2.794c0.634,0,1.021,0.211,1.021,0.211l-0.268,0.781
			c0,0-0.316-0.155-0.704-0.155c-0.787,0-1.203,0.655-1.33,1.337h0.015c0.176-0.205,0.577-0.352,0.936-0.352
			c0.985,0,1.604,0.767,1.604,1.668c0,0.929-0.654,1.675-1.646,1.675C76.341-2.418,75.454-3.284,75.454-4.79 M78.129-4.093
			c0-0.506-0.317-0.922-0.915-0.922c-0.45,0-0.816,0.232-0.816,0.542c0,0.626,0.457,1.225,0.985,1.225
			C77.847-3.249,78.129-3.622,78.129-4.093"/>
		<path fill="#FFFFFF" d="M-2.94,2.171v22.732C9.447,24.531,19.42,14.558,19.792,2.171H-2.94z"/>
		<path fill="#FFFFFF" d="M-28.703,2.171c0.372,12.387,10.345,22.36,22.732,22.732V2.171H-28.703z"/>
		<path fill="#FFFFFF" d="M-28.703-0.861h22.732v-22.731C-18.359-23.221-28.332-13.248-28.703-0.861"/>
		<path fill="#E8297E" d="M5.8,8.83C5.756,8.728,5.716,8.621,5.653,8.531c-0.435-0.62-0.981-0.764-1.655-0.437
			C3.473,8.35,3.24,8.819,3.145,9.361c-0.019,0.109,0.087,0.245,0.15,0.36c0.014,0.024,0.102,0.032,0.138,0.014
			c0.12-0.06,0.238-0.128,0.347-0.207c0.296-0.212,0.606-0.393,0.98-0.422c0.15-0.011,0.301-0.013,0.452-0.02c0,0,0,0.002,0,0.002
			C5.359,9.083,5.505,9.078,5.651,9.07C5.797,9.062,5.859,8.965,5.8,8.83"/>
		<path fill="#E8297E" d="M6.756,10.553c0.101,0.069,0.208,0.131,0.311,0.197c0.24,0.155,0.501,0.287,0.642,0.557
			c0.112,0.215,0.227,0.429,0.333,0.646c0.104,0.212,0.153,0.223,0.324,0.057c0.027-0.026,0.049-0.057,0.071-0.082
			c0.202-0.37,0.225-0.747,0.065-1.13c-0.101-0.242-0.242-0.464-0.469-0.601c-0.415-0.25-0.936-0.146-1.285,0.146
			C6.648,10.426,6.651,10.481,6.756,10.553"/>
		<path fill="#E8297E" d="M4.522,11.873c-0.241-0.281-0.539-0.518-0.983-0.633c-0.196-0.051-0.407-0.074-0.624-0.016
			c-0.171,0.046-0.35,0.098-0.5,0.176c-0.217,0.114-0.427,0.243-0.612,0.385c-0.175,0.135-0.322,0.292-0.466,0.446
			c-0.088,0.093-0.149,0.199-0.223,0.298c0.011,0.009,0.022,0.017,0.033,0.024c0.044-0.02,0.088-0.038,0.131-0.06
			c0.256-0.124,0.507-0.255,0.768-0.373c0.306-0.139,0.631-0.231,0.974-0.273c0.268-0.034,0.53-0.034,0.77,0.029
			c0.291,0.076,0.569,0.171,0.816,0.303c0.04,0.021,0.093,0.031,0.158,0.052c-0.002-0.033,0-0.043-0.004-0.05
			C4.682,12.078,4.608,11.972,4.522,11.873"/>
		<path fill="#E8297E" d="M-3.692,1.419v24.236c13.207-0.396,23.839-11.03,24.236-24.236H-3.692z M4.958,13.398
			c-0.438,0.448-0.94,0.784-1.566,0.889c-0.844,0.142-1.587-0.086-2.235-0.65c-0.391-0.341-0.717-0.736-0.977-1.178
			c-0.196-0.332-0.362-0.684-0.516-1.038c-0.164-0.377-0.327-0.76-0.439-1.155C-0.949,9.657-1.098,9.04-1.223,8.418
			c-0.096-0.474-0.142-0.958-0.203-1.438c-0.038-0.298-0.065-0.598-0.091-0.897c-0.013-0.142,0.015-0.15,0.15-0.113
			c0.412,0.111,0.822,0.228,1.239,0.312c0.213,0.043,0.439,0.029,0.66,0.031c0.541,0.005,1.082,0.019,1.621,0
			c0.375-0.013,0.749-0.069,1.122-0.118C3.718,6.139,4.161,6.077,4.601,6c0.324-0.057,0.644-0.136,0.964-0.213
			c0.341-0.083,0.681-0.176,1.021-0.263c0.068-0.018,0.119-0.008,0.127,0.082c0.02,0.22,0.045,0.439,0.069,0.669
			C6.774,6.982,6.79,7.699,6.747,8.412c0,0.016-0.002,0.032-0.003,0.049c-0.13,0.234-0.258,0.475-0.371,0.72
			c-0.271,0.586-0.517,1.181-0.733,1.767c-0.143,0.387-0.238,0.792-0.332,1.208c-0.095,0.421-0.154,0.755-0.189,1.067
			C5.067,13.282,5.014,13.341,4.958,13.398 M14.23,12.234c-0.424,0.565-0.834,1.153-1.291,1.704
			c-0.346,0.418-0.729,0.813-1.134,1.174c-0.405,0.359-0.838,0.696-1.296,0.982c-0.603,0.375-1.239,0.693-1.956,0.812
			c-0.619,0.104-1.223,0.079-1.79-0.207c-0.765-0.384-1.23-1.007-1.42-1.843c-0.114-0.506-0.145-1.017-0.094-1.528
			c0.038-0.384,0.112-0.767,0.196-1.144c0.09-0.401,0.185-0.806,0.327-1.191c0.219-0.594,0.463-1.181,0.729-1.756
			c0.202-0.438,0.45-0.856,0.685-1.28c0.146-0.263,0.3-0.521,0.456-0.778C7.715,7.06,7.742,7.069,7.83,7.179
			C8.096,7.512,8.36,7.848,8.646,8.163c0.146,0.16,0.337,0.282,0.514,0.415c0.434,0.323,0.863,0.653,1.31,0.957
			c0.311,0.21,0.645,0.386,0.975,0.566c0.392,0.215,0.786,0.427,1.187,0.625c0.295,0.146,0.6,0.271,0.904,0.397
			c0.325,0.135,0.653,0.26,0.98,0.391c0.065,0.026,0.101,0.063,0.054,0.141C14.455,11.843,14.346,12.035,14.23,12.234"/>
		<path fill="#E8297E" d="M10.918,14.269c-0.408,0.098-0.814,0.211-1.225,0.294C9.21,14.659,8.724,14.657,8.24,14.55
			c-0.379-0.083-0.733-0.229-1.025-0.48c-0.355-0.306-0.682-0.643-0.949-1.032c-0.043-0.063-0.11-0.111-0.188-0.187
			c-0.013,0.064-0.023,0.083-0.02,0.099c0.054,0.241,0.102,0.484,0.167,0.722c0.184,0.672,0.467,1.291,1.008,1.757
			c0.24,0.207,0.512,0.368,0.835,0.376c0.255,0.006,0.522,0.004,0.764-0.063c0.351-0.098,0.699-0.229,1.021-0.401
			c0.305-0.162,0.582-0.383,0.855-0.598c0.166-0.13,0.301-0.299,0.451-0.451c-0.011-0.021-0.022-0.042-0.033-0.063
			C11.056,14.241,10.986,14.252,10.918,14.269"/>
		<path fill="#E8297E" d="M1.916,9.554c0.006-0.037,0.006-0.075,0.009-0.108C1.87,9.028,1.666,8.71,1.311,8.495
			c-0.224-0.136-0.47-0.232-0.733-0.208C0.096,8.331-0.263,8.721-0.374,9.163c-0.031,0.126,0.003,0.169,0.13,0.166
			c0.123-0.004,0.245-0.017,0.367-0.024c0.286-0.017,0.574-0.065,0.847,0.07C1.188,9.482,1.407,9.587,1.621,9.7
			C1.83,9.81,1.876,9.79,1.916,9.554"/>
		<path fill="#E8297E" d="M10.908,12.06c-0.574-0.104-1.04,0.138-1.436,0.52c-0.08,0.078-0.074,0.249-0.091,0.379
			c-0.003,0.027,0.062,0.086,0.103,0.093c0.132,0.022,0.268,0.037,0.402,0.038c0.365,0.003,0.721,0.041,1.04,0.238
			c0.128,0.08,0.251,0.167,0.376,0.25c0,0,0,0.001,0,0.002c0.121,0.081,0.242,0.163,0.364,0.243c0.123,0.08,0.23,0.039,0.263-0.104
			c0.024-0.109,0.055-0.219,0.058-0.329C12.002,12.632,11.645,12.193,10.908,12.06"/>
		<path fill="#82BA43" d="M-9.885,12.113c-0.662-0.868-1.319-1.738-1.977-2.609c-0.404-0.534-0.805-1.07-1.209-1.604
			c-0.476-0.629-0.953-1.257-1.435-1.882c-0.038-0.049-0.117-0.087-0.177-0.088c-0.029,0-0.08,0.094-0.087,0.15
			c-0.127,0.954-0.244,1.91-0.374,2.863c-0.063,0.46-0.15,0.918-0.218,1.377c-0.015,0.101,0.006,0.206,0.011,0.309
			c0.018,0.001,0.036,0.003,0.054,0.004c0.23-0.848,0.46-1.697,0.702-2.587c0.057,0.054,0.109,0.091,0.146,0.141
			c1.114,1.465,2.231,2.93,3.336,4.402c0.142,0.188,0.325,0.25,0.529,0.28c0.343,0.051,0.69,0.085,1.036,0.121
			c0.069,0.007,0.147,0.001,0.21-0.025c0.025-0.011,0.045-0.112,0.024-0.14C-9.499,12.584-9.701,12.355-9.885,12.113"/>
		<path fill="#82BA43" d="M-29.456,1.419c0.396,13.207,11.029,23.84,24.236,24.236V1.419H-29.456z M-8.071,13.804
			c-0.81-0.107-1.619-0.213-2.428-0.326c-0.862-0.12-1.722-0.247-2.583-0.369c-0.644-0.091-1.287-0.207-1.934-0.256
			c-0.354-0.028-0.713,0.029-1.026,0.273c-0.904,0.703-1.832,1.375-2.73,2.084c-0.302,0.238-0.475,0.571-0.389,0.997l0.5,1.75
			c0.008,0.067-0.014,0.138-0.022,0.207c-0.076-0.011-0.163-0.001-0.223-0.037c-0.065-0.039-0.104-0.12-0.153-0.183
			c-1.041-1.371-2.082-2.742-3.123-4.113c-0.066-0.086-0.145-0.17-0.03-0.276c0.112-0.104,0.174-0.017,0.269,0.046l1.563,0.936
			c0.175,0.192,0.77,0.001,0.91-0.156l2.94-2.129c0.157-0.127,0.271-0.354,0.321-0.555c0.119-0.479,0.198-0.97,0.273-1.459
			c0.134-0.879,0.257-1.76,0.377-2.641c0.11-0.809,0.209-1.619,0.315-2.428c0.031-0.243,0.066-0.486,0.103-0.729
			c0.006-0.042,0.027-0.081,0.042-0.122c0.043,0.023,0.1,0.036,0.126,0.072c0.252,0.33,0.497,0.666,0.747,0.996
			c0.926,1.223,1.854,2.444,2.78,3.666c0,0,0,0-0.001,0c1.162,1.531,2.324,3.062,3.484,4.595c0.033,0.043,0.046,0.103,0.069,0.154
			C-7.952,13.802-8.013,13.812-8.071,13.804"/>
		<path fill="#4099D1" d="M-10.597-14.339c-0.611-0.412-1.226-0.818-1.84-1.225c-0.754-0.498-1.51-0.994-2.336-1.538
			c-0.083,0.294-0.165,0.506-0.196,0.726c-0.014,0.095,0.046,0.248,0.124,0.3c1.515,1.018,3.038,2.023,4.562,3.034
			C-9.944-13.773-9.979-13.923-10.597-14.339"/>
		<path fill="#4099D1" d="M-29.456-0.108h24.236v-24.236C-18.427-23.948-29.059-13.315-29.456-0.108 M-8.769-14.633
			c-0.54,2.863-1.064,5.728-1.597,8.592c-0.13,0.699-0.263,1.396-0.412,2.091c-0.177,0.826-0.764,1.271-1.512,1.535
			c-1.03,0.363-2.062,0.391-3.07-0.078c-1.047-0.486-1.643-1.758-1.334-2.801c0.335-1.133,1.529-1.889,2.718-1.718
			c0.74,0.106,1.376,0.435,1.947,0.904c0.107,0.089,0.213,0.179,0.359,0.301c0.19-0.92,0.375-1.793,0.55-2.668
			c0.193-0.961,0.388-1.922,0.557-2.888c0.025-0.143-0.036-0.386-0.142-0.455c-1.527-1.008-3.069-1.994-4.675-3.029
			c-0.105,0.41-0.201,0.77-0.289,1.131c-0.517,2.128-1.011,4.261-1.568,6.378c-0.091,0.346-0.396,0.721-0.708,0.908
			c-1.039,0.624-2.184,0.805-3.365,0.479c-1.305-0.359-2.042-1.525-1.76-2.709c0.301-1.264,1.603-2.1,2.895-1.873
			c0.74,0.129,1.344,0.517,1.921,0.964c0.088,0.068,0.173,0.141,0.289,0.236c0.855-3.318,1.701-6.602,2.561-9.939
			c1.308,0.842,2.57,1.656,3.833,2.468c0.86,0.553,1.717,1.11,2.587,1.647C-8.761-15.017-8.723-14.881-8.769-14.633"/>
	</g>
</g>
</svg>
