<?xml version="1.0" encoding="utf-8"?>
<!-- Generator: Adobe Illustrator 16.0.0, SVG Export Plug-In . SVG Version: 6.00 Build 0)  -->
<!DOCTYPE svg PUBLIC "-//W3C//DTD SVG 1.1//EN" "http://www.w3.org/Graphics/SVG/1.1/DTD/svg11.dtd">
<svg version="1.1" id="Layer_1" xmlns="http://www.w3.org/2000/svg" xmlns:xlink="http://www.w3.org/1999/xlink" x="0px" y="0px"
	 width="104.802px" height="35px" viewBox="210.553 6.059 104.802 35" enable-background="new 210.553 6.059 104.802 35"
	 xml:space="preserve">
<g>
	<g>
		<g>
			<g>
				<defs>
					<rect id="SVGID_1_" x="210.553" y="6.059" width="104.799" height="35"/>
				</defs>
				<clipPath id="SVGID_2_">
					<use xlink:href="#SVGID_1_"  overflow="visible"/>
				</clipPath>
				<path clip-path="url(#SVGID_2_)" fill="#342134" d="M311.526,28.603c0.208-0.007,0.376,0.096,0.487,0.311
					c0.115,0.216,0.161,0.587,0.166,1.128c-0.005,0.534-0.065,0.913-0.184,1.122c-0.116,0.214-0.281,0.318-0.489,0.31
					c-0.077,0-0.155-0.028-0.254-0.088c-0.096-0.063-0.175-0.153-0.255-0.258v-2.213c0.074-0.076,0.15-0.136,0.239-0.199
					C311.321,28.649,311.416,28.61,311.526,28.603 M298.273,28.603c0.039-0.007,0.083-0.002,0.126,0
					c0.217-0.002,0.368,0.094,0.451,0.274c0.09,0.18,0.146,0.454,0.148,0.835h-1.2c0.009-0.417,0.077-0.708,0.184-0.873
					C298.063,28.718,298.151,28.633,298.273,28.603 M290.703,28.603c0.04-0.007,0.082-0.002,0.126,0
					c0.221-0.002,0.369,0.094,0.451,0.274c0.089,0.18,0.146,0.454,0.147,0.835h-1.197c0.004-0.417,0.057-0.708,0.164-0.873
					C290.474,28.718,290.582,28.633,290.703,28.603 M287.945,28.603c0.104,0.005,0.217,0.046,0.307,0.111
					c0.089,0.063,0.164,0.124,0.236,0.199v2.214c-0.078,0.104-0.178,0.193-0.271,0.258c-0.099,0.057-0.178,0.088-0.256,0.088
					c-0.208,0.009-0.371-0.097-0.492-0.31c-0.116-0.211-0.177-0.589-0.18-1.123c0-0.54,0.066-0.912,0.18-1.127
					C287.584,28.698,287.735,28.596,287.945,28.603 M307.422,28.261v2.687c0.004,0.326,0.082,0.559,0.217,0.71
					c0.135,0.144,0.314,0.217,0.563,0.215c0.119-0.005,0.252-0.04,0.399-0.125c0.146-0.088,0.295-0.206,0.418-0.326v0.399h0.454
					v-3.56h-0.492v2.776c-0.108,0.14-0.217,0.235-0.325,0.31c-0.11,0.077-0.226,0.126-0.348,0.126
					c-0.132,0.001-0.227-0.049-0.287-0.144c-0.065-0.095-0.113-0.251-0.113-0.454v-2.614H307.422L307.422,28.261z M283.931,28.261
					v2.687c0,0.326,0.083,0.559,0.216,0.71c0.136,0.144,0.316,0.217,0.563,0.215c0.122-0.005,0.253-0.04,0.396-0.125
					c0.151-0.088,0.3-0.206,0.421-0.326v0.399h0.454v-3.56h-0.491v2.776c-0.109,0.14-0.216,0.235-0.326,0.31
					c-0.111,0.077-0.226,0.126-0.345,0.126c-0.131,0.001-0.229-0.049-0.288-0.144c-0.066-0.095-0.113-0.251-0.113-0.454v-2.614
					H283.931L283.931,28.261z M314.283,28.187c-0.274,0.009-0.504,0.09-0.672,0.254c-0.165,0.165-0.248,0.379-0.252,0.616
					c0.018,0.338,0.156,0.588,0.397,0.763c0.244,0.177,0.484,0.342,0.725,0.491c0.242,0.149,0.366,0.355,0.384,0.617
					c-0.005,0.15-0.062,0.278-0.161,0.38c-0.102,0.102-0.209,0.158-0.348,0.162c-0.18-0.006-0.314-0.073-0.417-0.198
					c-0.101-0.124-0.187-0.272-0.234-0.434l-0.453,0.106c0.082,0.301,0.22,0.525,0.397,0.691c0.18,0.161,0.428,0.233,0.748,0.233
					c0.283-0.005,0.509-0.089,0.686-0.271c0.18-0.18,0.27-0.422,0.272-0.707c-0.017-0.357-0.138-0.631-0.38-0.817
					c-0.24-0.185-0.483-0.347-0.727-0.489c-0.241-0.143-0.382-0.333-0.4-0.562c0.005-0.122,0.04-0.213,0.109-0.29
					c0.072-0.079,0.174-0.126,0.291-0.129c0.192,0.005,0.329,0.061,0.417,0.166c0.089,0.104,0.161,0.24,0.199,0.398l0.418-0.126
					c-0.055-0.271-0.181-0.471-0.345-0.619C314.772,28.275,314.557,28.188,314.283,28.187 M304.082,28.187
					c-0.369-0.005-0.643,0.156-0.817,0.455c-0.177,0.295-0.273,0.755-0.27,1.396c-0.004,0.639,0.095,1.1,0.27,1.399
					c0.178,0.296,0.449,0.438,0.817,0.433c0.321-0.006,0.573-0.111,0.745-0.325c0.171-0.216,0.271-0.501,0.309-0.855h-0.471
					c-0.04,0.306-0.108,0.508-0.2,0.618c-0.095,0.113-0.227,0.169-0.384,0.162c-0.207,0.017-0.358-0.073-0.452-0.271
					c-0.095-0.197-0.128-0.588-0.126-1.162c-0.002-0.572,0.032-0.965,0.126-1.162c0.094-0.199,0.245-0.288,0.452-0.273
					c0.152-0.001,0.285,0.041,0.384,0.147c0.096,0.104,0.154,0.301,0.182,0.562h0.472c-0.048-0.351-0.146-0.618-0.312-0.816
					C304.642,28.3,304.401,28.191,304.082,28.187 M301.507,28.187c-0.124,0.004-0.272,0.057-0.422,0.146
					c-0.147,0.088-0.277,0.186-0.396,0.311V28.26h-0.455v3.559h0.489v-2.777c0.11-0.138,0.214-0.251,0.328-0.328
					c0.11-0.076,0.225-0.107,0.344-0.111c0.134,0,0.227,0.053,0.291,0.148c0.065,0.094,0.091,0.233,0.091,0.434v2.635h0.489v-2.708
					c-0.004-0.322-0.065-0.558-0.2-0.708C301.929,28.258,301.751,28.184,301.507,28.187 M298.399,28.187
					c-0.371-0.005-0.64,0.156-0.817,0.455c-0.177,0.295-0.271,0.755-0.271,1.396c0,0.639,0.095,1.1,0.271,1.399
					c0.179,0.296,0.447,0.438,0.817,0.433c0.325-0.009,0.589-0.108,0.779-0.307c0.196-0.201,0.309-0.433,0.349-0.707l-0.455-0.057
					c-0.029,0.169-0.09,0.319-0.182,0.454c-0.091,0.134-0.233,0.208-0.416,0.216c-0.229,0.008-0.402-0.079-0.509-0.254
					c-0.104-0.173-0.166-0.48-0.166-0.907v-0.198h1.691v-0.217c0.002-0.518-0.079-0.934-0.255-1.235
					C299.059,28.356,298.773,28.196,298.399,28.187 M293.918,28.187c-0.123,0.004-0.252,0.057-0.4,0.146
					c-0.148,0.088-0.28,0.186-0.397,0.311V28.26h-0.474v3.559h0.488v-2.777c0.11-0.138,0.217-0.251,0.327-0.328
					c0.112-0.076,0.243-0.107,0.363-0.111c0.132,0,0.227,0.053,0.291,0.148c0.062,0.094,0.089,0.233,0.089,0.434v2.635h0.49v-2.708
					c-0.004-0.322-0.063-0.558-0.201-0.708C294.361,28.258,294.162,28.184,293.918,28.187 M290.829,28.187
					c-0.37-0.005-0.639,0.156-0.815,0.455c-0.177,0.295-0.272,0.755-0.272,1.396c0,0.639,0.098,1.1,0.272,1.399
					c0.178,0.296,0.445,0.438,0.815,0.433c0.326-0.009,0.589-0.108,0.782-0.307c0.189-0.201,0.304-0.433,0.344-0.707l-0.473-0.057
					c-0.028,0.169-0.091,0.319-0.183,0.454c-0.092,0.134-0.214,0.208-0.396,0.216c-0.23,0.008-0.406-0.079-0.508-0.254
					c-0.109-0.173-0.166-0.48-0.166-0.907v-0.198h1.689v-0.217c0-0.518-0.096-0.934-0.272-1.235
					C291.469,28.356,291.203,28.196,290.829,28.187 M227.799,27.933c2.771,7.548,12.548,13.126,24.181,13.126
					c10.773,0,19.954-4.792,23.457-11.492c-0.58,0.675-1.325,1.277-2.234,1.817c-1.227,0.723-2.822,1.106-4.795,1.142
					c-2.668,0.031-4.896-0.667-6.68-2.086c-0.354-0.282-0.656-0.608-0.943-0.965c-0.246,0.487-0.582,0.904-0.999,1.237
					c-0.959,0.762-2.053,1.272-3.304,1.506c-1.252,0.235-2.342,0.332-3.27,0.309c-2.721-0.056-4.715-0.492-5.953-1.325
					c-0.654-0.437-1.206-0.898-1.689-1.361v2.145h-3.684v-2.09c-0.408,0.468-1.123,1.001-2.144,1.616
					c-1.021,0.612-2.459,0.959-4.301,1.015c-2.366-0.02-4.358-0.797-5.991-2.322C228.764,29.56,228.212,28.799,227.799,27.933
					 M295.711,27.081v1.179h-0.471v0.416h0.471v2.435c0,0.269,0.053,0.479,0.165,0.598c0.113,0.122,0.295,0.165,0.527,0.163
					c0.1,0,0.184-0.007,0.252-0.017c0.071-0.015,0.135-0.016,0.199-0.036v-0.382c-0.039,0.015-0.088,0.04-0.143,0.054
					c-0.057,0.014-0.099,0.017-0.145,0.019c-0.124-0.003-0.213-0.027-0.273-0.092c-0.059-0.066-0.095-0.149-0.092-0.256v-2.487h0.65
					v-0.417h-0.65v-1.178L295.711,27.081L295.711,27.081z M282.079,27.081v1.179h-0.471v0.416h0.471v2.435
					c0,0.269,0.05,0.479,0.161,0.598c0.116,0.122,0.297,0.165,0.529,0.163c0.101,0,0.182-0.007,0.255-0.017
					c0.071-0.015,0.132-0.016,0.2-0.036v-0.382c-0.042,0.015-0.093,0.04-0.146,0.054s-0.095,0.017-0.144,0.019
					c-0.125-0.003-0.217-0.027-0.273-0.092c-0.059-0.066-0.092-0.149-0.092-0.256v-2.487h0.653v-0.417h-0.653v-1.178L282.079,27.081
					L282.079,27.081z M310.49,26.881v3.977c0,0.231-0.006,0.426-0.019,0.581c-0.015,0.153-0.026,0.28-0.053,0.382h0.38l0.11-0.347
					c0.087,0.127,0.184,0.219,0.31,0.289c0.121,0.074,0.276,0.107,0.435,0.108c0.287,0.01,0.516-0.115,0.708-0.397
					c0.194-0.282,0.302-0.761,0.31-1.433c-0.009-0.676-0.115-1.155-0.31-1.438c-0.191-0.278-0.421-0.424-0.708-0.416
					c-0.135,0.004-0.273,0.045-0.384,0.108c-0.108,0.065-0.186,0.134-0.271,0.218v-1.633H310.49z M305.934,31.819h0.489v-4.941
					h-0.489V31.819z M288.488,26.881v1.633c-0.081-0.084-0.18-0.151-0.292-0.218c-0.109-0.063-0.229-0.104-0.36-0.108
					c-0.288-0.008-0.535,0.138-0.727,0.416c-0.194,0.283-0.302,0.763-0.307,1.438c0.005,0.672,0.113,1.15,0.307,1.433
					c0.192,0.282,0.438,0.407,0.727,0.397c0.155-0.001,0.291-0.034,0.416-0.108c0.123-0.071,0.224-0.162,0.311-0.289h0.017
					l0.018,0.347h0.452c-0.027-0.102-0.039-0.229-0.054-0.382c-0.013-0.154-0.018-0.349-0.018-0.581v-3.977H288.488z M280.01,26.806
					c-0.361,0.006-0.644,0.106-0.855,0.309c-0.212,0.206-0.318,0.482-0.326,0.835c0.012,0.345,0.115,0.632,0.312,0.854
					c0.196,0.22,0.413,0.43,0.671,0.598c0.259,0.168,0.494,0.34,0.688,0.526c0.198,0.187,0.302,0.417,0.311,0.689
					c-0.003,0.266-0.07,0.465-0.2,0.599c-0.13,0.14-0.317,0.218-0.545,0.222c-0.263-0.004-0.443-0.093-0.58-0.256
					c-0.137-0.165-0.213-0.396-0.217-0.691h-0.49c0.01,0.423,0.11,0.749,0.327,1c0.216,0.25,0.518,0.374,0.907,0.38
					c0.409-0.004,0.728-0.105,0.942-0.325c0.218-0.219,0.323-0.529,0.328-0.926c-0.013-0.39-0.11-0.689-0.31-0.923
					c-0.195-0.235-0.412-0.44-0.673-0.602c-0.257-0.165-0.494-0.333-0.689-0.509c-0.193-0.176-0.298-0.398-0.306-0.671
					c0-0.193,0.062-0.354,0.181-0.473c0.122-0.118,0.283-0.177,0.489-0.182c0.254,0.007,0.446,0.091,0.562,0.255
					s0.182,0.379,0.199,0.637h0.489c-0.021-0.434-0.146-0.771-0.36-0.999C280.65,26.926,280.368,26.809,280.01,26.806
					 M296.403,23.139c0.039-0.008,0.082-0.001,0.126,0c0.218-0.001,0.367,0.094,0.452,0.275c0.091,0.179,0.124,0.452,0.128,0.834
					h-1.177c0.003-0.415,0.055-0.709,0.158-0.872C296.175,23.255,296.279,23.17,296.403,23.139 M290.61,23.139
					c0.108,0.004,0.223,0.045,0.311,0.111c0.085,0.063,0.165,0.121,0.234,0.199v2.213c-0.079,0.103-0.176,0.195-0.269,0.255
					c-0.098,0.062-0.179,0.09-0.255,0.092c-0.208,0.009-0.376-0.098-0.494-0.31c-0.115-0.214-0.179-0.587-0.18-1.125
					c0-0.538,0.068-0.913,0.18-1.126C290.253,23.234,290.402,23.132,290.61,23.139 M285.038,23.139c0.042-0.008,0.084-0.001,0.128,0
					c0.217-0.001,0.365,0.094,0.454,0.275c0.085,0.179,0.122,0.452,0.127,0.834h-1.183c0.008-0.415,0.057-0.709,0.165-0.872
					C284.808,23.255,284.921,23.17,285.038,23.139 M299.707,22.723c-0.189-0.005-0.355,0.024-0.489,0.09
					c-0.136,0.064-0.26,0.207-0.4,0.417H298.8v-0.432h-0.49v3.556h0.49v-2.541c0.133-0.246,0.27-0.401,0.42-0.488
					c0.146-0.092,0.306-0.134,0.487-0.128V22.723L299.707,22.723z M296.53,22.723c-0.371-0.002-0.657,0.156-0.833,0.452
					c-0.179,0.296-0.257,0.76-0.257,1.399c0,0.639,0.079,1.098,0.257,1.396c0.176,0.299,0.462,0.438,0.833,0.437
					c0.324-0.011,0.588-0.112,0.78-0.31c0.194-0.196,0.305-0.433,0.344-0.708l-0.471-0.053c-0.026,0.167-0.092,0.316-0.18,0.452
					c-0.092,0.133-0.231,0.21-0.421,0.22c-0.228,0.005-0.382-0.083-0.489-0.256c-0.104-0.175-0.164-0.479-0.16-0.91v-0.198h1.667
					v-0.218c0.004-0.52-0.075-0.931-0.252-1.235C297.173,22.893,296.903,22.73,296.53,22.723 M293.935,22.723
					c-0.121,0.004-0.254,0.056-0.4,0.145c-0.149,0.09-0.297,0.185-0.416,0.309v-0.379h-0.454v3.557h0.489v-2.779
					c0.11-0.136,0.216-0.249,0.329-0.325c0.112-0.076,0.223-0.111,0.342-0.111c0.135,0,0.228,0.053,0.292,0.148
					c0.062,0.094,0.106,0.23,0.106,0.434v2.634h0.491V23.65c0-0.324-0.081-0.562-0.22-0.708
					C294.361,22.792,294.179,22.721,293.935,22.723 M287.779,22.723c-0.273,0.006-0.505,0.09-0.671,0.252
					c-0.167,0.164-0.252,0.38-0.255,0.619c0.02,0.337,0.158,0.587,0.4,0.762c0.24,0.177,0.469,0.339,0.708,0.489
					c0.242,0.151,0.379,0.356,0.397,0.617c-0.002,0.152-0.064,0.278-0.165,0.382c-0.099,0.102-0.205,0.158-0.343,0.165
					c-0.178-0.01-0.333-0.076-0.435-0.2c-0.104-0.125-0.169-0.272-0.22-0.436l-0.45,0.108c0.08,0.3,0.221,0.527,0.396,0.689
					c0.179,0.163,0.428,0.232,0.746,0.236c0.283-0.005,0.512-0.092,0.688-0.273c0.179-0.179,0.269-0.421,0.271-0.708
					c-0.016-0.357-0.139-0.629-0.38-0.816c-0.243-0.186-0.484-0.346-0.728-0.49c-0.24-0.143-0.382-0.332-0.396-0.562
					c0-0.12,0.037-0.21,0.107-0.289c0.073-0.078,0.174-0.126,0.289-0.128c0.192,0.004,0.331,0.058,0.419,0.163
					c0.088,0.106,0.158,0.243,0.199,0.399l0.401-0.127c-0.062-0.269-0.165-0.469-0.327-0.615
					C288.269,22.813,288.053,22.724,287.779,22.723 M285.166,22.723c-0.369-0.002-0.656,0.156-0.835,0.452s-0.257,0.76-0.253,1.399
					c-0.004,0.639,0.074,1.098,0.253,1.396s0.464,0.438,0.835,0.437c0.327-0.011,0.571-0.112,0.763-0.31
					c0.191-0.196,0.324-0.433,0.363-0.708l-0.471-0.053c-0.032,0.167-0.093,0.316-0.184,0.452c-0.092,0.133-0.233,0.21-0.416,0.22
					c-0.231,0.005-0.403-0.083-0.51-0.256c-0.105-0.175-0.146-0.479-0.146-0.91v-0.198h1.672v-0.218c0-0.52-0.08-0.931-0.256-1.235
					C285.805,22.892,285.54,22.73,285.166,22.723 M283.806,22.723c-0.192-0.005-0.356,0.024-0.495,0.09
					c-0.133,0.064-0.27,0.207-0.416,0.417h-0.016v-0.432h-0.488v3.556h0.488v-2.541c0.131-0.246,0.268-0.401,0.418-0.488
					c0.145-0.092,0.325-0.134,0.509-0.128V22.723L283.806,22.723z M245.572,22.503v5.43l2.067-1.218
					c0.67,1.043,1.54,1.783,2.581,2.198c1.043,0.413,2.162,0.617,3.358,0.599c1.028,0.004,1.914-0.167,2.647-0.49
					c0.738-0.325,1.113-0.838,1.144-1.543c0.05-0.588-0.26-0.996-0.943-1.216c-0.678-0.222-1.988-0.452-3.936-0.689
					c-2.993-0.407-5.002-1.066-6.011-1.979C246.103,23.253,245.8,22.895,245.572,22.503 M279.504,21.869h0.29
					c0.39-0.022,0.693,0.11,0.907,0.382c0.212,0.271,0.324,0.81,0.324,1.633c0,0.821-0.112,1.363-0.324,1.632
					c-0.214,0.272-0.517,0.402-0.907,0.383h-0.29V21.869z M291.156,21.415v1.632c-0.082-0.084-0.18-0.152-0.29-0.215
					c-0.109-0.065-0.228-0.108-0.36-0.108c-0.289-0.011-0.532,0.135-0.727,0.415c-0.192,0.284-0.303,0.763-0.311,1.437
					c0.008,0.674,0.117,1.151,0.311,1.434c0.194,0.282,0.438,0.405,0.727,0.398c0.154,0,0.292-0.036,0.415-0.109
					c0.12-0.07,0.223-0.161,0.309-0.289h0.018l0.019,0.345h0.451c-0.026-0.103-0.041-0.229-0.052-0.381
					c-0.014-0.154-0.018-0.352-0.018-0.583v-3.975H291.156L291.156,21.415z M278.974,21.415v4.939h0.907
					c0.526,0.017,0.946-0.163,1.237-0.528c0.293-0.362,0.43-1.009,0.435-1.941c-0.005-0.93-0.142-1.576-0.435-1.942
					c-0.291-0.365-0.711-0.542-1.237-0.528L278.974,21.415L278.974,21.415z M305.169,20.689c0.23,0.042,0.449,0.105,0.674,0.164
					s0.347,0.168,0.361,0.328c0.004,0.146-0.048,0.25-0.162,0.344c-0.112,0.094-0.311,0.139-0.58,0.146
					c-0.268-0.002-0.453-0.038-0.582-0.127c-0.13-0.088-0.202-0.213-0.202-0.363c0.003-0.1,0.062-0.192,0.148-0.271
					C304.912,20.826,305.024,20.751,305.169,20.689 M296.076,20.689c0.229,0.042,0.467,0.105,0.689,0.164s0.325,0.168,0.345,0.328
					c0.006,0.146-0.053,0.25-0.163,0.344c-0.111,0.094-0.293,0.139-0.562,0.146c-0.264-0.002-0.473-0.038-0.601-0.127
					c-0.125-0.088-0.18-0.213-0.18-0.363c0.006-0.1,0.042-0.192,0.128-0.271C295.816,20.826,295.933,20.751,296.076,20.689
					 M268.322,18.42c-1.778,0.055-3.146,0.588-4.104,1.618c-0.957,1.028-1.441,2.223-1.45,3.576
					c-0.007,1.602,0.411,2.945,1.273,4.029c0.855,1.084,2.179,1.646,3.972,1.688c1.609-0.04,2.838-0.39,3.687-1.035
					c0.846-0.644,1.364-1.341,1.525-2.106h3.447c0.184-0.859,0.292-1.739,0.292-2.632c0-0.752-0.069-1.488-0.202-2.214h-3.667
					c-0.182-0.691-0.673-1.331-1.469-1.943C270.824,18.79,269.723,18.461,268.322,18.42 M236.404,18.42
					c-1.493,0-2.794,0.452-3.921,1.362c-1.127,0.909-1.721,2.276-1.778,4.103c0.05,1.786,0.621,3.132,1.708,4.049
					c1.086,0.917,2.382,1.394,3.886,1.397c1.261-0.027,2.316-0.284,3.173-0.763c0.862-0.479,1.642-1.012,2.343-1.598v-6.317
					c-0.557-0.504-1.252-0.993-2.106-1.469C238.857,18.707,237.749,18.456,236.404,18.42 M252.636,18.202
					c-1.344,0.026-2.289,0.25-2.833,0.654c-0.55,0.402-0.818,0.828-0.798,1.305c0.015,0.612,0.378,1.029,1.07,1.253
					c0.691,0.226,1.603,0.418,2.737,0.547c2.3,0.219,4.277,0.651,5.922,1.325c0.076,0.032,0.142,0.074,0.215,0.109
					c0.026-1.365,0.339-2.627,0.963-3.758l-1.996,1.107c-0.26-0.435-0.784-0.962-1.579-1.56
					C255.543,18.585,254.313,18.26,252.636,18.202 M287.29,17.675c0.041-0.009,0.085-0.001,0.127,0
					c0.218-0.001,0.384,0.093,0.474,0.274c0.087,0.178,0.124,0.451,0.126,0.834h-1.181c0.007-0.417,0.056-0.707,0.163-0.871
					C287.079,17.79,287.17,17.705,287.29,17.675 M282.751,17.675c0.043-0.009,0.084-0.001,0.129,0
					c0.216-0.001,0.365,0.093,0.453,0.274c0.084,0.178,0.14,0.451,0.144,0.834h-1.196c0.005-0.417,0.056-0.707,0.162-0.871
					C282.525,17.79,282.632,17.705,282.751,17.675 M305.387,17.641c0.149-0.006,0.267,0.046,0.363,0.179
					c0.1,0.135,0.146,0.377,0.146,0.709c0,0.333-0.046,0.574-0.146,0.708c-0.096,0.135-0.215,0.188-0.363,0.181
					c-0.146,0.007-0.264-0.046-0.363-0.181c-0.095-0.134-0.157-0.375-0.162-0.708c0.006-0.332,0.067-0.574,0.162-0.709
					C305.122,17.687,305.242,17.635,305.387,17.641 M296.297,17.641c0.146-0.006,0.281,0.046,0.378,0.179
					c0.1,0.135,0.142,0.377,0.146,0.709c-0.004,0.333-0.045,0.574-0.146,0.708c-0.096,0.135-0.231,0.188-0.378,0.181
					c-0.15,0.007-0.268-0.046-0.363-0.181c-0.099-0.134-0.146-0.375-0.149-0.708c0.004-0.332,0.051-0.574,0.149-0.709
					C296.029,17.687,296.146,17.635,296.297,17.641 M298.345,17.331v2.688c0,0.326,0.065,0.559,0.2,0.708
					c0.137,0.147,0.333,0.216,0.581,0.216c0.12-0.006,0.252-0.037,0.399-0.127c0.147-0.088,0.279-0.205,0.4-0.327v0.399h0.469
					v-3.558h-0.487v2.779c-0.113,0.138-0.217,0.231-0.328,0.307c-0.114,0.077-0.244,0.125-0.361,0.126
					c-0.133,0.002-0.228-0.049-0.291-0.143c-0.065-0.095-0.092-0.232-0.092-0.438v-2.631H298.345z M293.808,20.889h0.507v-3.558
					h-0.507V20.889z M289.267,20.889h0.491v-3.558h-0.491V20.889z M305.442,17.258c-0.312,0.003-0.56,0.132-0.745,0.363
					c-0.181,0.233-0.284,0.555-0.289,0.982c0,0.189,0.039,0.387,0.11,0.581c0.069,0.189,0.186,0.329,0.325,0.435
					c-0.12,0.02-0.232,0.066-0.325,0.145c-0.092,0.08-0.141,0.193-0.146,0.326c0.003,0.121,0.037,0.229,0.109,0.311
					c0.072,0.083,0.165,0.127,0.269,0.163c-0.158,0.071-0.284,0.168-0.378,0.29c-0.091,0.125-0.127,0.278-0.127,0.435
					c0,0.236,0.088,0.411,0.29,0.544c0.205,0.139,0.505,0.215,0.907,0.221c0.381-0.005,0.681-0.099,0.891-0.254
					c0.209-0.157,0.324-0.342,0.328-0.582c-0.014-0.284-0.104-0.479-0.294-0.602c-0.185-0.117-0.423-0.207-0.688-0.252
					c-0.236-0.042-0.435-0.086-0.598-0.126c-0.165-0.042-0.249-0.119-0.256-0.236c0.008-0.07,0.035-0.126,0.091-0.163
					c0.057-0.041,0.1-0.064,0.146-0.075c0.056,0.002,0.106,0.011,0.163,0.019c0.053,0.008,0.107,0.017,0.164,0.018
					c0.278,0.001,0.513-0.106,0.689-0.308c0.176-0.206,0.264-0.522,0.272-0.962c0-0.141,0.002-0.276-0.017-0.382
					c-0.022-0.102-0.058-0.201-0.095-0.307c0.046-0.043,0.099-0.085,0.148-0.11c0.049-0.021,0.096-0.034,0.16-0.034
					c0.026-0.001,0.05-0.001,0.073,0c0.022,0,0.046,0.012,0.073,0.017v-0.456c-0.15,0-0.281,0.032-0.383,0.09
					c-0.094,0.061-0.16,0.138-0.215,0.235c-0.062-0.11-0.167-0.18-0.288-0.235C305.682,17.296,305.563,17.258,305.442,17.258
					 M302.648,17.258c-0.122,0.003-0.252,0.059-0.401,0.146c-0.148,0.089-0.296,0.202-0.416,0.328v-0.4h-0.452v3.561h0.489v-2.778
					c0.109-0.138,0.215-0.251,0.326-0.327s0.226-0.109,0.344-0.112c0.135,0,0.229,0.053,0.291,0.148
					c0.066,0.095,0.109,0.232,0.109,0.433v2.637h0.488v-2.706c0-0.325-0.081-0.562-0.216-0.709
					C303.076,17.329,302.894,17.258,302.648,17.258 M296.366,17.258c-0.315,0.003-0.578,0.132-0.762,0.363
					c-0.183,0.233-0.266,0.555-0.271,0.982c0,0.189,0.038,0.387,0.106,0.581c0.071,0.189,0.168,0.329,0.311,0.435
					c-0.123,0.02-0.22,0.066-0.311,0.145c-0.093,0.08-0.144,0.193-0.146,0.326c0.002,0.121,0.039,0.229,0.112,0.311
					c0.069,0.083,0.162,0.127,0.27,0.163c-0.162,0.071-0.29,0.168-0.382,0.29c-0.091,0.123-0.142,0.278-0.145,0.435
					c0,0.236,0.106,0.411,0.309,0.544c0.203,0.139,0.507,0.215,0.908,0.221c0.381-0.005,0.68-0.099,0.889-0.254
					c0.212-0.157,0.309-0.342,0.313-0.582c-0.013-0.284-0.107-0.479-0.292-0.602c-0.188-0.117-0.407-0.207-0.672-0.252
					c-0.238-0.042-0.435-0.086-0.6-0.126c-0.167-0.042-0.265-0.119-0.271-0.236c0.003-0.07,0.051-0.126,0.108-0.163
					c0.057-0.041,0.099-0.064,0.144-0.075c0.055,0.002,0.108,0.011,0.166,0.019c0.053,0.008,0.106,0.017,0.161,0.018
					c0.277,0.001,0.513-0.106,0.694-0.308c0.174-0.206,0.263-0.522,0.271-0.962c0-0.141-0.019-0.276-0.041-0.382
					c-0.017-0.102-0.036-0.201-0.07-0.307c0.043-0.043,0.079-0.085,0.127-0.11c0.047-0.021,0.115-0.034,0.182-0.034
					c0.022-0.001,0.031-0.001,0.053,0c0.022,0,0.064,0.012,0.092,0.017v-0.456c-0.15,0-0.281,0.032-0.383,0.09
					c-0.096,0.061-0.182,0.138-0.23,0.235c-0.066-0.11-0.151-0.18-0.277-0.235C296.606,17.296,296.486,17.258,296.366,17.258
					 M292.049,17.258c-0.123,0.003-0.272,0.059-0.422,0.146c-0.144,0.089-0.278,0.202-0.397,0.328v-0.4h-0.453v3.561h0.49v-2.778
					c0.109-0.138,0.217-0.251,0.327-0.327c0.109-0.076,0.226-0.109,0.345-0.112c0.132,0,0.227,0.053,0.29,0.148
					s0.091,0.232,0.091,0.433v2.637h0.489v-2.706c-0.001-0.325-0.064-0.562-0.201-0.709
					C292.473,17.329,292.291,17.258,292.049,17.258 M287.417,17.258c-0.372-0.003-0.64,0.158-0.816,0.455
					c-0.177,0.296-0.256,0.76-0.252,1.399c-0.004,0.636,0.076,1.098,0.252,1.397c0.178,0.296,0.445,0.438,0.816,0.434
					c0.326-0.01,0.589-0.109,0.779-0.309c0.195-0.198,0.324-0.433,0.366-0.708l-0.473-0.054c-0.03,0.168-0.089,0.319-0.182,0.455
					c-0.091,0.132-0.232,0.207-0.418,0.214c-0.23,0.008-0.403-0.08-0.51-0.254c-0.103-0.172-0.146-0.48-0.143-0.907v-0.199h1.67
					v-0.219c0.004-0.516-0.079-0.933-0.255-1.233C288.075,17.429,287.79,17.264,287.417,17.258 M286.054,17.258
					c-0.186-0.005-0.337,0.028-0.472,0.09c-0.137,0.066-0.277,0.211-0.417,0.418h-0.018v-0.436h-0.491v3.561h0.491v-2.543
					c0.132-0.248,0.271-0.401,0.417-0.49c0.146-0.091,0.308-0.134,0.489-0.127V17.258z M282.88,17.258
					c-0.373-0.003-0.643,0.158-0.818,0.455c-0.178,0.296-0.273,0.76-0.271,1.399c-0.003,0.636,0.093,1.098,0.271,1.397
					c0.178,0.296,0.446,0.438,0.818,0.434c0.326-0.01,0.585-0.109,0.78-0.309c0.191-0.198,0.306-0.433,0.345-0.708l-0.472-0.054
					c-0.03,0.168-0.071,0.319-0.163,0.456c-0.093,0.132-0.233,0.207-0.419,0.215c-0.232,0.008-0.401-0.08-0.509-0.254
					c-0.105-0.173-0.165-0.481-0.162-0.907v-0.199h1.686v-0.219c0.004-0.517-0.095-0.933-0.271-1.234
					C283.517,17.429,283.253,17.264,282.88,17.258 M293.808,16.531h0.507V15.95h-0.507V16.531z M289.267,16.531h0.491V15.95h-0.491
					V16.531z M278.631,15.952l1.164,4.936h0.489l1.158-4.936h-0.525l-0.87,3.902h-0.019l-0.872-3.902H278.631z M251.979,6.059
					c-9.779,0-18.234,3.952-22.327,9.694h-4.084l-5.431,12.035l-5.482-12.035h-4.102l7.643,16.23h3.74l5.955-12.51
					c0.012-0.019,0.026-0.034,0.037-0.055c0.348-0.645,0.779-1.241,1.308-1.777c1.536-1.57,3.651-2.384,6.351-2.435
					c1.522,0.021,2.757,0.256,3.687,0.693c0.935,0.437,1.777,0.965,2.541,1.56v-7.442h3.758v8.443
					c0.034-0.068,0.059-0.133,0.093-0.203c0.406-0.795,1.159-1.493,2.27-2.103c1.108-0.611,2.709-0.929,4.791-0.963
					c1.003-0.053,2.304,0.156,3.924,0.636c1.466,0.433,2.805,1.342,4.009,2.742c0.218-0.278,0.435-0.557,0.691-0.819
					c1.579-1.599,3.833-2.449,6.733-2.541c2.955,0.071,5.11,0.754,6.499,2.036c0.696,0.637,1.224,1.293,1.599,1.976
					C273.426,11.656,263.633,6.059,251.979,6.059"/>
			</g>
		</g>
	</g>
</g>
</svg>
