<?xml version="1.0" encoding="utf-8"?>
<!-- Generator: Adobe Illustrator 16.0.0, SVG Export Plug-In . SVG Version: 6.00 Build 0)  -->
<!DOCTYPE svg PUBLIC "-//W3C//DTD SVG 1.1//EN" "http://www.w3.org/Graphics/SVG/1.1/DTD/svg11.dtd">
<svg version="1.1" id="Layer_1" xmlns="http://www.w3.org/2000/svg" xmlns:xlink="http://www.w3.org/1999/xlink" x="0px" y="0px"
	 width="65.64px" height="41.818px" viewBox="-69.752 3.12 65.64 41.818" enable-background="new -69.752 3.12 65.64 41.818"
	 xml:space="preserve">
<g>
	<path fill="#FFFFFF" d="M-69.632,37.858h9.719V16.619h-9.839V11.16h1.38c7.38,0,9.24-3.3,10.08-8.04h6.061v34.738h8.16v6.3h-25.56
		L-69.632,37.858L-69.632,37.858z"/>
	<path fill="#FFFFFF" d="M-14.914,9.24c-9.358,10.799-13.02,19.979-14.52,34.918h-8.279c1.8-17.279,7.021-25.979,15.299-34.799
		h-14.64v4.74h-6.6V3.12h28.738L-14.914,9.24L-14.914,9.24z"/>
	<path fill="#FFFFFF" d="M-4.113,39.898c0,2.76-2.342,5.04-5.101,5.04c-2.82,0-5.16-2.34-5.16-5.101c0-2.819,2.34-5.1,5.16-5.1
		C-6.454,34.739-4.113,37.079-4.113,39.898z"/>
</g>
</svg>
