<?xml version="1.0" encoding="utf-8"?>
<!-- Generator: Adobe Illustrator 16.0.0, SVG Export Plug-In . SVG Version: 6.00 Build 0)  -->
<!DOCTYPE svg PUBLIC "-//W3C//DTD SVG 1.1//EN" "http://www.w3.org/Graphics/SVG/1.1/DTD/svg11.dtd">
<svg version="1.1" id="Layer_1" xmlns="http://www.w3.org/2000/svg" xmlns:xlink="http://www.w3.org/1999/xlink" x="0px" y="0px"
	 width="305.096px" height="105.297px" viewBox="0 0 305.096 105.297" enable-background="new 0 0 305.096 105.297"
	 xml:space="preserve">
<g>
	<path fill="#FFFFFF" d="M30.358,13.439c0,4.5-3.119,7.86-7.68,8.88c4.44,0.6,9,4.08,9,9.839c0,7.86-6.66,12.899-15.659,12.899
		c-8.399,0-14.279-4.44-16.02-11.58l7.44-1.68c0.84,3.9,3.719,6.959,8.459,6.959c4.38,0,7.68-2.28,7.68-6.78
		c0-4.14-2.939-6.419-7.14-6.419h-4.5v-5.64h3.78c3.06,0,6.719-1.26,6.719-5.7c0-4.2-3.239-5.7-6.419-5.7
		c-4.14,0-6.659,2.28-7.62,5.88L0.96,13.14c1.26-5.76,6.779-10.8,15.299-10.8C25.499,2.34,30.358,6.96,30.358,13.439z"/>
	<path fill="#FFFFFF" d="M36.78,37.858h9.719V16.619H36.66V11.16h1.38c7.38,0,9.24-3.3,10.08-8.04h6.059v34.738h8.16v6.3H36.78
		V37.858z"/>
	<path fill="#FFFFFF" d="M76.919,39.898c0,2.76-2.34,5.04-5.1,5.04c-2.82,0-5.16-2.34-5.16-5.1c0-2.82,2.34-5.1,5.16-5.1
		C74.579,34.739,76.919,37.079,76.919,39.898z"/>
	<path fill="#FFFFFF" d="M140.457,44.158h-7.681V10.56l-9.778,33.599h-8.399L104.577,11.04v33.119h-7.439V2.16h11.82l9.959,33.358
		l9.42-33.358h12.119V44.158L140.457,44.158z"/>
	<path fill="#FFFFFF" d="M173.576,21.719v15.539c0,2.46,0.182,4.68,1.08,6.9h-7.738c-0.42-1.02-0.722-2.16-0.9-3.3
		c-2.4,3-6.061,4.08-9.42,4.08c-6.779,0-10.68-4.14-10.68-9.66c0-5.819,3.6-9.54,12.899-10.679l7.079-0.9v-1.44
		c0-3.72-1.141-4.92-5.46-4.92c-3.959,0-5.64,1.26-5.699,4.56h-7.562c0.182-6.899,5.341-10.139,13.439-10.139
		C170.037,11.76,173.576,15.419,173.576,21.719z M160.796,29.579c-5.039,0.66-7.021,2.04-7.021,5.04c0,2.4,1.382,4.14,4.74,4.14
		c3.96,0,7.38-2.64,7.38-6.479v-3.42L160.796,29.579z"/>
	<path fill="#FFFFFF" d="M188.815,4.56c0,2.46-2.159,4.5-4.739,4.5c-2.459,0-4.68-2.04-4.68-4.5c0-2.58,2.221-4.56,4.68-4.56
		C186.656,0,188.815,1.98,188.815,4.56z M187.976,44.158h-7.68V12.54h7.68V44.158z"/>
	<path fill="#FFFFFF" d="M1.74,97.858h9.72V76.62H1.62v-5.459H3c7.38,0,9.239-3.301,10.079-8.041h6.061v34.738h8.159v6.301H1.74
		V97.858z"/>
	<path fill="#FFFFFF" d="M60.239,80.879c0,16.318-6,24.418-16.859,24.418c-6.9,0-11.64-3.18-14.22-8.279l6.36-2.88
		c1.619,3.12,3.899,4.979,7.859,4.979c6.119,0,8.699-6.181,9-14.4c-2.521,3.541-6,4.98-9.96,4.98c-7.14,0-13.26-5.4-13.26-14.158
		c0-8.94,6.6-14.459,15.18-14.459C53.159,61.081,60.239,66.36,60.239,80.879z M37.08,75.418c0,4.261,2.46,7.979,7.319,7.979
		c4.38,0,7.26-3.479,7.26-8.04c0-5.4-3.06-8.1-7.14-8.1C40.319,67.26,37.08,70.081,37.08,75.418z"/>
	<path fill="#FFFFFF" d="M92.038,89.099H65.099v-6.54h26.939V89.099z"/>
	<path fill="#FFFFFF" d="M94.259,97.858h9.719V76.62h-9.839v-5.459h1.38c7.38,0,9.24-3.301,10.08-8.041h6.059v34.738h8.16v6.301
		H94.259V97.858z"/>
	<path fill="#FFFFFF" d="M169.917,88.979c0,8.339-4.381,16.199-16.74,16.199c-12.6,0-16.619-7.98-16.619-16.199V62.161h7.979v26.698
		c0,6.72,2.82,9.54,8.7,9.54s8.699-3.061,8.699-9.54V62.161h7.979v26.818H169.917z"/>
	<path fill="#FFFFFF" d="M184.376,76.379c2.399-3.121,5.58-4.621,9.299-4.621c6.9,0,10.74,4.5,10.74,12.06v20.339h-7.681V85.799
		c0-4.561-1.079-7.561-5.34-7.561c-4.079,0-7.021,3.36-7.021,8.34v17.58h-7.68V62.161h7.68v14.219H184.376z"/>
	<path fill="#FFFFFF" d="M229.496,71.879v7.619c-1.08-0.06-1.439-0.06-1.859-0.06c-4.98,0-8.82,2.28-8.82,10.979v13.738h-7.68V72.54
		h7.5v5.16c2.16-4.14,5.34-5.939,8.58-5.939C227.876,71.76,228.896,71.819,229.496,71.879z"/>
</g>
</svg>
