<?xml version="1.0" encoding="utf-8"?>
<!-- Generator: Adobe Illustrator 16.0.0, SVG Export Plug-In . SVG Version: 6.00 Build 0)  -->
<!DOCTYPE svg PUBLIC "-//W3C//DTD SVG 1.1//EN" "http://www.w3.org/Graphics/SVG/1.1/DTD/svg11.dtd">
<svg version="1.1" id="Layer_1" xmlns="http://www.w3.org/2000/svg" xmlns:xlink="http://www.w3.org/1999/xlink" x="0px" y="0px"
	 width="305.095px" height="173.098px" viewBox="0 0 305.095 173.098" enable-background="new 0 0 305.095 173.098"
	 xml:space="preserve">
<g>
	<path fill="#FFFFFF" d="M17.219,0c11.64,0,21.659,5.939,21.659,20.399c0,16.559-10.56,21.599-19.919,21.599h-15V0H17.219z
		 M11.879,6.779v28.439h7.02c5.52,0,11.699-2.64,11.699-14.759c0-7.979-3.66-13.68-13.139-13.68H11.879z"/>
	<path fill="#FFFFFF" d="M62.759,9.719v7.62c-1.08-0.06-1.44-0.06-1.86-0.06c-4.979,0-8.819,2.28-8.819,10.979v13.739H44.4V10.379
		h7.5v5.16c2.16-4.14,5.34-5.939,8.58-5.939C61.139,9.6,62.159,9.659,62.759,9.719z"/>
	<path fill="#FFFFFF" d="M94.679,26.458v1.56H72.36c0.24,5.76,3.24,8.58,8.22,8.58c3.78,0,6.18-1.8,7.62-4.38l6.24,3.18
		c-2.94,4.68-7.68,7.379-14.22,7.379c-10.02,0-15.779-7.08-15.779-16.559c0-9.66,5.4-16.619,15.299-16.619
		C89.219,9.6,94.679,16.619,94.679,26.458z M72.36,22.799h14.399c-0.36-4.98-2.94-7.38-7.08-7.38
		C75.54,15.419,72.78,17.939,72.36,22.799z"/>
	<path fill="#FFFFFF" d="M124.918,14.399l-4.14,4.439c-2.52-2.16-5.46-3.36-8.82-3.36c-3.72,0-5.52,1.32-5.52,3.3
		c0,2.22,1.44,2.94,7.68,4.02c7.62,1.32,11.52,3.96,11.52,10.02c0,5.82-5.04,9.959-14.1,9.959c-6.66,0-11.459-2.1-14.819-5.459
		l4.32-4.68c2.76,2.76,6.24,4.14,10.02,4.14c4.56,0,6.6-1.44,6.6-3.6c0-2.22-1.02-3.3-8.1-4.5c-7.439-1.26-10.979-4.26-10.979-9.479
		c0-6.06,5.58-9.6,13.2-9.6C117.659,9.6,121.979,11.579,124.918,14.399z"/>
	<path fill="#FFFFFF" d="M159.177,41.998h-7.56v-3.54c-2.34,3.12-5.939,4.32-9.18,4.32c-8.459,0-13.859-6.839-13.859-16.559
		c0-9.78,5.88-16.619,14.1-16.619c3.96,0,6.78,1.38,8.819,3.78V0h7.68V41.998z M136.559,26.159c0,6.72,2.76,10.379,7.74,10.379
		c4.5,0,7.56-3.36,7.56-10.379c0-6.9-3.3-10.32-7.56-10.32C139.438,15.839,136.559,19.619,136.559,26.159z"/>
	<path fill="#FFFFFF" d="M193.857,21.659v20.339h-7.68V24.059c0-4.979-1.08-7.979-5.34-7.979c-4.08,0-7.02,3.36-7.02,8.34v17.579
		h-7.68V10.379h7.5v4.08c2.4-3.42,5.76-4.859,9.54-4.859C190.077,9.6,193.857,14.039,193.857,21.659z"/>
	<path fill="#FFFFFF" d="M229.136,26.458v1.56h-22.319c0.24,5.76,3.24,8.58,8.22,8.58c3.78,0,6.18-1.8,7.62-4.38l6.24,3.18
		c-2.94,4.68-7.68,7.379-14.22,7.379c-10.02,0-15.779-7.08-15.779-16.559c0-9.66,5.4-16.619,15.299-16.619
		C223.677,9.6,229.136,16.619,229.136,26.458z M206.817,22.799h14.399c-0.36-4.98-2.94-7.38-7.08-7.38
		C209.997,15.419,207.237,17.939,206.817,22.799z"/>
	<path fill="#FFFFFF" d="M252.537,9.719v7.62c-1.08-0.06-1.439-0.06-1.86-0.06c-4.979,0-8.819,2.28-8.819,10.979v13.739h-7.68
		V10.379h7.5v5.16c2.16-4.14,5.34-5.939,8.58-5.939C250.917,9.6,251.937,9.659,252.537,9.719z"/>
	<path fill="#FFFFFF" d="M37.559,101.998h-9L11.28,72.719v29.279H3.96V60h8.82l17.399,30.059V60h7.38V101.998z"/>
	<path fill="#FFFFFF" d="M70.619,79.559v15.539c0,2.46,0.18,4.68,1.08,6.9h-7.74c-0.42-1.02-0.72-2.16-0.9-3.3
		c-2.4,3-6.06,4.08-9.42,4.08c-6.779,0-10.679-4.14-10.679-9.66c0-5.819,3.6-9.54,12.899-10.679l7.08-0.9v-1.44
		c0-3.72-1.14-4.92-5.46-4.92c-3.959,0-5.64,1.26-5.7,4.56h-7.56C44.4,72.839,49.56,69.6,57.659,69.6
		C67.079,69.6,70.619,73.259,70.619,79.559z M57.839,87.418c-5.04,0.66-7.02,2.04-7.02,5.04c0,2.4,1.38,4.14,4.74,4.14
		c3.96,0,7.38-2.64,7.38-6.479v-3.42L57.839,87.418z"/>
	<path fill="#FFFFFF" d="M105.417,78.059l-6.66,2.7c-1.26-3.12-3.66-4.92-6.959-4.92c-4.86,0-8.1,3.54-8.1,10.26
		s3.12,10.439,8.1,10.439c4.32,0,6.24-2.64,7.439-5.76l6.66,2.76c-2.4,5.399-7.2,9.239-14.459,9.239
		c-9.959,0-15.779-7.02-15.779-16.559c0-9.66,6.06-16.619,15.72-16.619C98.278,69.6,103.078,72.899,105.417,78.059z"/>
	<path fill="#FFFFFF" d="M117.898,74.219c2.4-3.12,5.58-4.62,9.299-4.62c6.9,0,10.74,4.5,10.74,12.059v20.339h-7.68V83.639
		c0-4.56-1.08-7.56-5.34-7.56c-4.08,0-7.02,3.36-7.02,8.34v17.579h-7.68V60h7.68V74.219z"/>
	<path fill="#FFFFFF" d="M153.537,70.679h7.86v5.64h-7.86v16.259c0,2.64,0.9,3.9,3.78,3.9c1.74,0,3.36-0.36,4.74-0.72v6
		c-1.8,0.6-4.02,1.02-6.6,1.02c-7.14,0-9.6-3.6-9.6-9.06V76.319h-4.32v-5.64h4.32v-8.28h7.68V70.679z"/>
	<path fill="#FFFFFF" d="M182.156,86.938h-16.799v-6.54h16.799V86.938z"/>
	<path fill="#FFFFFF" d="M37.199,161.998h-8.94l-5.22-23.279l-5.58,23.279H8.58L0,130.379h8.34l4.919,23.879l5.4-23.879h8.52
		l5.64,23.879l5.16-23.879h7.86L37.199,161.998z"/>
	<path fill="#FFFFFF" d="M74.458,139.559v15.539c0,2.46,0.18,4.68,1.08,6.9h-7.74c-0.42-1.02-0.72-2.16-0.9-3.3
		c-2.4,3-6.06,4.08-9.42,4.08c-6.779,0-10.679-4.14-10.679-9.66c0-5.819,3.6-9.54,12.899-10.679l7.08-0.9v-1.44
		c0-3.72-1.14-4.92-5.46-4.92c-3.959,0-5.64,1.26-5.7,4.56h-7.56c0.18-6.899,5.34-10.139,13.439-10.139
		C70.918,129.6,74.458,133.259,74.458,139.559z M61.679,147.418c-5.04,0.66-7.02,2.04-7.02,5.04c0,2.4,1.38,4.14,4.74,4.14
		c3.96,0,7.38-2.64,7.38-6.479v-3.42L61.679,147.418z"/>
	<path fill="#FFFFFF" d="M108.897,141.659v20.339h-7.68v-17.939c0-4.979-1.08-7.979-5.34-7.979c-4.08,0-7.02,3.36-7.02,8.34v17.579
		h-7.68v-31.619h7.5v4.08c2.4-3.42,5.76-4.859,9.54-4.859C105.118,129.6,108.897,134.039,108.897,141.659z"/>
	<path fill="#FFFFFF" d="M144.537,161.998h-7.56v-3.54c-2.34,3.12-5.939,4.32-9.18,4.32c-8.459,0-13.859-6.839-13.859-16.559
		c0-9.78,5.88-16.619,14.1-16.619c3.96,0,6.78,1.38,8.819,3.78V120h7.68V161.998z M121.918,146.159c0,6.72,2.76,10.379,7.74,10.379
		c4.5,0,7.56-3.36,7.56-10.379c0-6.9-3.3-10.32-7.56-10.32C124.798,135.839,121.918,139.619,121.918,146.159z"/>
	<path fill="#FFFFFF" d="M180.056,146.458v1.56h-22.319c0.24,5.76,3.24,8.58,8.22,8.58c3.78,0,6.18-1.8,7.62-4.38l6.24,3.18
		c-2.94,4.68-7.68,7.379-14.22,7.379c-10.02,0-15.779-7.08-15.779-16.559c0-9.66,5.4-16.619,15.299-16.619
		C174.597,129.6,180.056,136.619,180.056,146.458z M157.737,142.799h14.399c-0.36-4.98-2.94-7.38-7.08-7.38
		C160.917,135.419,158.157,137.939,157.737,142.799z"/>
	<path fill="#FFFFFF" d="M203.457,129.719v7.62c-1.08-0.06-1.439-0.06-1.86-0.06c-4.979,0-8.819,2.28-8.819,10.979v13.739h-7.68
		v-31.619h7.5v5.16c2.16-4.14,5.34-5.939,8.58-5.939C201.837,129.6,202.857,129.659,203.457,129.719z"/>
	<path fill="#FFFFFF" d="M234.476,161.998h-7.5v-3.66c-2.34,2.94-5.64,4.439-9.24,4.439c-6.3,0-10.62-3.54-10.62-10.979v-21.419
		h7.68v19.679c0,4.38,1.5,6.12,5.1,6.12c4.02,0,6.899-3,6.899-7.74v-18.059h7.68V161.998z"/>
	<path fill="#FFFFFF" d="M269.216,141.659v20.339h-7.68v-17.939c0-4.979-1.08-7.979-5.34-7.979c-4.08,0-7.02,3.36-7.02,8.34v17.579
		h-7.68v-31.619h7.5v4.08c2.4-3.42,5.76-4.859,9.54-4.859C265.436,129.6,269.216,134.039,269.216,141.659z"/>
	<path fill="#FFFFFF" d="M305.095,134.279c-2.16,0-3.3,0.06-4.56,0.6c1.08,1.56,1.56,3.36,1.56,5.34c0,5.94-4.86,10.14-13.5,10.14
		c-2.16,0-4.26-0.36-6.12-1.02c-0.54,0.6-0.9,1.32-0.9,1.98c0,1.74,1.02,2.58,4.02,2.58h5.819c9.18,0,12.96,4.14,12.96,9.3
		c0,6-5.52,9.899-15.66,9.899c-11.16,0-15-3.72-15-8.4c0-2.76,1.62-4.86,4.5-6.299c-2.1-1.32-3-3.12-3-5.34
		c0-1.98,1.14-3.96,3.48-5.52c-2.46-1.68-4.02-4.26-4.02-7.439c0-5.7,4.5-10.5,13.56-10.5c3.42,0,6.18,0.66,8.28,1.8
		c1.86-2.28,4.68-3.6,8.58-3.6V134.279z M282.776,159.958c-1.86,1.2-2.34,2.28-2.34,3.6c0,2.46,1.92,4.02,8.16,4.02
		c5.58,0,8.1-1.56,8.1-3.959c0-2.58-1.74-3.66-7.08-3.66H282.776z M282.296,139.979c0,2.94,2.04,4.92,6.12,4.92
		c4.02,0,6.24-1.86,6.24-4.92c0-3.12-2.1-5.04-6.18-5.04C284.456,134.939,282.296,136.859,282.296,139.979z"/>
</g>
</svg>
