<?xml version="1.0" encoding="utf-8"?>
<!-- Generator: Adobe Illustrator 16.0.0, SVG Export Plug-In . SVG Version: 6.00 Build 0)  -->
<!DOCTYPE svg PUBLIC "-//W3C//DTD SVG 1.1//EN" "http://www.w3.org/Graphics/SVG/1.1/DTD/svg11.dtd">
<svg version="1.1" id="Layer_1" xmlns="http://www.w3.org/2000/svg" xmlns:xlink="http://www.w3.org/1999/xlink" x="0px" y="0px"
	 width="421.953px" height="224.154px" viewBox="0 0 421.953 224.154" enable-background="new 0 0 421.953 224.154"
	 xml:space="preserve">
<g id="Layer_1_1_">
	<g>
		<circle fill="#68113A" cx="177.093" cy="22.568" r="1.576"/>
		<circle fill="#66123A" cx="168.383" cy="16.834" r="1.576"/>
		<circle fill="#631339" cx="159.128" cy="11.923" r="1.576"/>
		<circle fill="#601439" cx="149.379" cy="7.889" r="1.576"/>
		<circle fill="#5D1538" cx="139.188" cy="4.784" r="1.576"/>
		<circle fill="#5B1638" cx="128.605" cy="2.662" r="1.575"/>
		<circle fill="#581738" cx="117.684" cy="1.575" r="1.576"/>
		<circle fill="#551837" cx="106.541" cy="1.575" r="1.576"/>
		<circle fill="#531837" cx="95.619" cy="2.662" r="1.576"/>
		<circle fill="#501936" cx="85.037" cy="4.784" r="1.575"/>
		<circle fill="#4D1936" cx="74.846" cy="7.889" r="1.575"/>
		<circle fill="#4B1935" cx="65.097" cy="11.923" r="1.576"/>
		<circle fill="#481935" cx="55.841" cy="16.834" r="1.575"/>
		<circle fill="#461A34" cx="47.131" cy="22.568" r="1.575"/>
		<circle fill="#F15B4E" cx="6.949" cy="146.178" r="1.575"/>
		<circle fill="#DC544D" cx="4.182" cy="136.047" r="1.575"/>
		<circle fill="#CC4F4C" cx="2.372" cy="125.558" r="1.575"/>
		<circle fill="#BD4A4B" cx="1.575" cy="114.753" r="1.575"/>
		<circle fill="#AF454A" cx="1.856" cy="103.601" r="1.575"/>
		<circle fill="#A14048" cx="3.23" cy="92.661" r="1.575"/>
		<circle fill="#943B46" cx="5.643" cy="82.082" r="1.575"/>
		<circle fill="#873644" cx="9.043" cy="71.915" r="1.575"/>
		<circle fill="#7A3142" cx="13.374" cy="62.213" r="1.575"/>
		<circle fill="#6F2C40" cx="18.584" cy="53.032" r="1.575"/>
		<circle fill="#64283D" cx="24.619" cy="44.423" r="1.575"/>
		<circle fill="#59233A" cx="31.424" cy="36.44" r="1.576"/>
		<circle fill="#4F1E37" cx="38.946" cy="29.138" r="1.575"/>
		<circle fill="#C9243F" cx="112.112" cy="222.579" r="1.575"/>
		<circle fill="#CC2940" cx="100.915" cy="222.019" r="1.576"/>
		<circle fill="#CE2D41" cx="90.039" cy="220.375" r="1.575"/>
		<circle fill="#D13242" cx="79.536" cy="217.7" r="1.575"/>
		<circle fill="#D43743" cx="69.462" cy="214.049" r="1.576"/>
		<circle fill="#D73B44" cx="59.87" cy="209.476" r="1.575"/>
		<circle fill="#DA3F45" cx="50.813" cy="204.035" r="1.576"/>
		<circle fill="#DD4346" cx="42.347" cy="197.779" r="1.575"/>
		<circle fill="#E04748" cx="34.524" cy="190.765" r="1.575"/>
		<circle fill="#E34B49" cx="27.399" cy="183.042" r="1.575"/>
		<circle fill="#E64F4A" cx="21.025" cy="174.669" r="1.575"/>
		<circle fill="#E9534C" cx="15.456" cy="165.698" r="1.575"/>
		<circle fill="#EC574D" cx="10.746" cy="156.183" r="1.575"/>
		<circle fill="#981B45" cx="217.275" cy="146.178" r="1.575"/>
		<circle fill="#9B1C45" cx="213.479" cy="156.183" r="1.575"/>
		<circle fill="#9F1D45" cx="208.769" cy="165.698" r="1.575"/>
		<circle fill="#A21E45" cx="203.2" cy="174.669" r="1.575"/>
		<circle fill="#A61E44" cx="196.826" cy="183.042" r="1.575"/>
		<circle fill="#A91F44" cx="189.7" cy="190.764" r="1.576"/>
		<circle fill="#AD2044" cx="181.877" cy="197.779" r="1.575"/>
		<circle fill="#B02043" cx="173.411" cy="204.035" r="1.576"/>
		<circle fill="#B42142" cx="164.355" cy="209.476" r="1.575"/>
		<circle fill="#B82242" cx="154.763" cy="214.049" r="1.576"/>
		<circle fill="#BB2241" cx="144.688" cy="217.7" r="1.575"/>
		<circle fill="#BF2340" cx="134.186" cy="220.375" r="1.575"/>
		<circle fill="#C3233F" cx="123.309" cy="222.019" r="1.576"/>
		<circle fill="#6C123B" cx="185.278" cy="29.138" r="1.576"/>
		<circle fill="#6F133C" cx="192.8" cy="36.44" r="1.575"/>
		<circle fill="#73143D" cx="199.606" cy="44.423" r="1.576"/>
		<circle fill="#76153E" cx="205.641" cy="53.031" r="1.576"/>
		<circle fill="#7A163F" cx="210.85" cy="62.213" r="1.575"/>
		<circle fill="#7D1740" cx="215.182" cy="71.915" r="1.576"/>
		<circle fill="#811741" cx="218.582" cy="82.082" r="1.575"/>
		<circle fill="#851841" cx="220.995" cy="92.661" r="1.575"/>
		<circle fill="#891942" cx="222.368" cy="103.601" r="1.576"/>
		<circle fill="#8C1943" cx="222.648" cy="114.753" r="1.575"/>
	</g>
	<path fill="#342134" d="M121.332,109.033c-1.304-4.199-5.171-7.268-9.799-7.268c-5.697,0-10.312,4.616-10.312,10.308
		c0,5.698,4.614,10.315,10.312,10.315c2.653,0,5.051-1.037,6.876-2.687l-1.716-1.712c-1.389,1.207-3.178,1.967-5.161,1.967
		c-4.348,0-7.886-3.537-7.886-7.885s3.538-7.886,7.886-7.886c3.438,0,6.339,2.229,7.417,5.307l-3.939,0.768l3.186,3.167l3.183,3.155
		l1.772-4.121l1.769-4.127L121.332,109.033z"/>
</g>
<g id="Layer_3">
	<g>
		<path fill="#461A34" d="M40.312,98.802c3.495-1.14,7.118-1.715,10.767-1.715c9.86,0,18.952,4.117,25.383,10.979
			c0.55-4.936,2.111-9.578,4.466-13.704c2.434-4.279,5.735-8.016,9.666-10.961c0.024-0.008,0.049-0.031,0.073-0.057
			c0.332-0.259,0.679-0.501,1.027-0.735c0.024-0.024,0.042-0.041,0.057-0.049c12.069-9.334,14.601-26.646,5.573-39.071
			C91.776,35.852,83.128,31.8,74.36,31.8c-5.266,0-10.588,1.465-15.296,4.498c-0.922,0.64-1.836,1.303-2.734,1.99
			c-0.008,0.008-0.024,0.017-0.033,0.033c-6.01,4.545-11.454,9.828-16.186,15.692c-12.822,15.879-20.499,36.077-20.499,58.063
			c0,1.569,0.041,3.13,0.122,4.676c0.097-0.219,0.21-0.429,0.315-0.647C24.271,107.822,31.462,101.674,40.312,98.802z"/>
		<path fill="#981B45" d="M184.091,53.988c1.625,9.011-0.275,18.654-6.076,26.629c-6.535,8.988-17.077,14.359-28.199,14.359
			c-2.208,0-4.385-0.202-6.512-0.615c2.354,4.126,3.907,8.77,4.457,13.704c0.154,1.317,0.227,2.652,0.227,4.012
			c0,3.511-0.501,6.9-1.448,10.104c-0.202,0.695-0.428,1.383-0.671,2.062c-4.101,14.577,4.004,29.914,18.533,34.63
			c2.912,0.946,5.855,1.392,8.76,1.392c11.73,0,22.65-7.338,26.727-18.938c0.154-0.461,0.309-0.922,0.445-1.383
			c2.338-7.378,3.762-15.16,4.158-23.209c0.082-1.545,0.121-3.098,0.121-4.659C204.613,90.074,196.929,69.868,184.091,53.988z"/>
		<path fill="#68113A" d="M102.559,39.687c5.468,7.522,7.677,16.729,6.22,25.909c-0.639,4.036-1.949,7.848-3.851,11.325
			c2.322-0.47,4.724-0.72,7.184-0.72s4.87,0.25,7.191,0.72c4.805,0.986,9.271,2.937,13.169,5.638c0,0,0,0,0.009,0
			c0.42,0.292,0.833,0.591,1.237,0.906c4.902,3.397,10.524,5.04,16.098,5.04c8.769,0,17.417-4.053,22.964-11.688
			c8.842-12.184,6.594-29.04-4.854-38.496c-0.008-0.017-0.024-0.025-0.033-0.033c-0.897-0.688-1.812-1.351-2.734-1.99
			c-4.789-3.365-9.909-6.276-15.297-8.688c-1.553-0.695-3.123-1.352-4.716-1.95c-10.257-3.931-21.396-6.083-33.036-6.083
			c-11.64,0-22.779,2.152-33.036,6.083C88.411,26.93,96.954,31.978,102.559,39.687z"/>
		<path fill="#F15B4E" d="M97.301,144.75c-4.449-2.021-8.412-4.935-11.672-8.494c-3.196-3.503-5.711-7.636-7.33-12.189
			c-0.21-0.59-0.404-1.189-0.582-1.789c-4.134-11.47-14.981-18.718-26.646-18.718c-2.896,0-5.849,0.452-8.761,1.398
			c-14.649,4.756-22.771,20.312-18.419,34.986c0.137,0.461,0.291,0.922,0.445,1.383c2.523,7.587,6.01,14.739,10.314,21.307
			c12.263,18.768,31.167,32.803,53.38,38.771c-6.616-6.35-10.742-15.272-10.742-25.141C77.289,162.351,85.482,150.323,97.301,144.75
			z"/>
		<path fill="#C9243F" d="M162.403,165.029c-8.85-2.88-16.041-9.021-20.264-17.312c-1.86-3.647-3.042-7.515-3.542-11.462
			c-3.251,3.567-7.224,6.473-11.673,8.494c-4.198,1.917-8.833,3.041-13.711,3.188c-0.364,0.008-0.728,0.016-1.1,0.016
			c-0.372,0-0.736-0.008-1.1-0.016c-15.151,0.574-27.252,13.04-27.252,28.329c0,15.014,11.664,27.301,26.427,28.288
			c0.639,0.016,1.278,0.023,1.925,0.023s1.286-0.008,1.925-0.023c7.652-0.154,15.071-1.238,22.157-3.147
			c22.213-5.97,41.118-20.004,53.379-38.771c-4.926,2.638-10.531,4.102-16.412,4.102
			C169.514,166.736,165.898,166.162,162.403,165.029z"/>
	</g>
	<g>
		<g>
			<path fill="#FDB913" d="M75.447,54.147c-1.49,0-2.88-0.59-3.91-1.59c-0.56,0.26-1.17,0.39-1.8,0.39c-1.11,0-2.11-0.42-2.89-1.11
				v19.69c0,0.28,0.22,0.5,0.5,0.5h11.67c0.27,0,0.5-0.22,0.5-0.5v-19.17C78.507,53.458,77.057,54.147,75.447,54.147z
				 M69.316,55.917c0-0.83,0.67-1.5,1.5-1.5c0.82,0,1.5,0.67,1.5,1.5s-0.68,1.5-1.5,1.5C69.987,57.417,69.316,56.748,69.316,55.917z
				 M71.687,62.858c-0.83,0-1.5-0.67-1.5-1.5s0.67-1.5,1.5-1.5s1.5,0.67,1.5,1.5S72.517,62.858,71.687,62.858z M73.187,59.718
				c-0.41,0-0.75-0.34-0.75-0.75c0-0.42,0.34-0.75,0.75-0.75s0.75,0.33,0.75,0.75C73.937,59.377,73.597,59.718,73.187,59.718z
				 M76.807,70.518c-0.41,0-0.75-0.341-0.75-0.75c0-0.42,0.34-0.75,0.75-0.75c0.42,0,0.76,0.33,0.76,0.75
				C77.566,70.177,77.227,70.518,76.807,70.518z"/>
			<path fill="#FFFFFF" d="M77.566,69.768c0,0.409-0.34,0.75-0.76,0.75c-0.41,0-0.75-0.341-0.75-0.75c0-0.42,0.34-0.75,0.75-0.75
				C77.227,69.018,77.566,69.348,77.566,69.768z"/>
			<circle fill="#FFFFFF" cx="71.687" cy="61.358" r="1.5"/>
			<path fill="#FFFFFF" d="M73.937,58.968c0,0.41-0.34,0.75-0.75,0.75s-0.75-0.34-0.75-0.75c0-0.42,0.34-0.75,0.75-0.75
				S73.937,58.548,73.937,58.968z"/>
			<path fill="#FFFFFF" d="M72.316,55.917c0,0.83-0.68,1.5-1.5,1.5c-0.83,0-1.5-0.67-1.5-1.5s0.67-1.5,1.5-1.5
				C71.637,54.417,72.316,55.088,72.316,55.917z"/>
			<path fill="#FFFFFF" d="M79.501,48.256c-0.149-1.51-1.43-2.699-2.989-2.699c-0.54,0-1.05,0.14-1.479,0.39
				c-0.32-0.45-0.721-0.84-1.181-1.14c-0.71-0.48-1.569-0.75-2.49-0.75c-2.38,0-4.329,1.85-4.5,4.189
				c0,0.105-0.009,0.202-0.009,0.306c0,0.006-0.002,0.01-0.002,0.015c0,0.552,0.163,1.062,0.432,1.501
				c0.508,0.828,1.413,1.386,2.455,1.386c0.842,0,1.591-0.365,2.119-0.938c0.002,0.004,0.003,0.008,0.005,0.011
				c0.69,1.26,2.03,2.12,3.58,2.12c1.719,0,3.186-1.071,3.786-2.578c0.185-0.466,0.294-0.97,0.294-1.501
				C79.521,48.466,79.521,48.356,79.501,48.256z"/>
		</g>
		<path fill="#FFFFFF" d="M90.351,53.085c-0.511-1.06-1.381-1.93-2.44-2.46c-0.61-0.31-1.3-0.5-2.021-0.54h-0.369v2.98v0.02h0.3
			c1.18,0.15,2.09,1.16,2.09,2.38v8.75c0,1.32-1.07,2.391-2.39,2.391v3c1.88,0,3.529-0.96,4.489-2.41
			c0.13-0.19,0.24-0.38,0.341-0.59c0.359-0.721,0.56-1.53,0.56-2.391v-8.75C90.91,54.615,90.71,53.805,90.351,53.085z"/>
		<path fill="#FFFFFF" d="M82.521,47.066c-0.83,0-1.5,0.67-1.5,1.5v22.96c0,1.109-0.899,2-2,2h-11.67c-1.101,0-2-0.891-2-2v-22.96
			c0-0.83-0.67-1.5-1.5-1.5s-1.5,0.67-1.5,1.5v22.96c0,2.76,2.239,5,5,5h11.67c2.761,0,5-2.24,5-5v-22.96
			C84.021,47.736,83.352,47.066,82.521,47.066z"/>
	</g>
	<g>
		<path fill="#FFFFFF" d="M139.144,56.579l0.009,0.01l6.839-6.839l-0.01-0.009c-0.478-0.378-1.024-0.676-1.631-0.865
			c-0.447-0.139-0.914-0.208-1.411-0.208c-0.457,0-0.895,0.061-1.312,0.189c-1.621,0.447-2.902,1.719-3.369,3.339
			c-0.12,0.427-0.189,0.875-0.189,1.342c0,0.487,0.069,0.964,0.209,1.402C138.458,55.545,138.755,56.102,139.144,56.579z"/>
		<path fill="#FFFFFF" d="M140.326,57.633c0.08,0.05,0.149,0.101,0.229,0.14l6.62-6.62c-0.04-0.08-0.09-0.149-0.14-0.229
			c-0.1-0.169-0.219-0.328-0.338-0.477l-6.848,6.848C139.998,57.414,140.158,57.533,140.326,57.633z"/>
		<path fill="#FFFFFF" d="M147.601,54.939l-3.26,3.26C145.902,57.732,147.134,56.5,147.601,54.939z"/>
		<path fill="#FFFFFF" d="M164.339,55.048c-0.148-0.308-0.328-0.605-0.507-0.895c-2.138-3.469-5.676-5.983-9.83-6.749
			c-0.755-0.14-1.521-0.229-2.316-0.249c-0.129-0.01-0.269-0.01-0.407-0.01h-0.1c-0.447,0-0.904,0.02-1.342,0.079h-0.01
			l-0.656-0.656c-0.258-0.219-0.525-0.438-0.805-0.646c-1.531-1.083-3.409-1.729-5.427-1.729c-5.158,0-9.343,4.185-9.343,9.343
			c0,2.019,0.637,3.886,1.719,5.417c0.389,0.527,0.826,1.023,1.303,1.461c-0.06,0.478-0.08,0.975-0.08,1.471
			c0,0.13,0,0.269,0.01,0.397c0.209,7.961,6.72,14.342,14.73,14.342c8.14,0,14.75-6.6,14.75-14.74
			C166.029,59.421,165.422,57.096,164.339,55.048z M136.58,53.538c0-3.508,2.852-6.361,6.36-6.361c0.417,0,0.835,0.04,1.233,0.119
			c0.715,0.14,1.381,0.397,1.977,0.767c0.318,0.178,0.617,0.387,0.895,0.636c0.18,0.139,0.348,0.298,0.508,0.477
			c0.068,0.07,0.139,0.14,0.198,0.22c0.188,0.208,0.358,0.437,0.507,0.676c0.09,0.129,0.169,0.258,0.238,0.396
			c0.259,0.438,0.447,0.904,0.576,1.392c0.13,0.448,0.199,0.915,0.22,1.392c0.009,0.1,0.009,0.188,0.009,0.288
			c0,3.509-2.852,6.361-6.36,6.361c-0.1,0-0.188,0-0.288-0.01c-0.477-0.021-0.944-0.1-1.392-0.229
			c-0.497-0.119-0.964-0.318-1.401-0.566c-0.109-0.06-0.219-0.118-0.318-0.188l-0.029-0.021c-0.259-0.158-0.487-0.338-0.716-0.536
			c-0.079-0.069-0.159-0.14-0.229-0.209c-0.169-0.149-0.328-0.318-0.468-0.497c-0.248-0.278-0.457-0.576-0.635-0.896
			c-0.369-0.605-0.627-1.282-0.766-1.998C136.619,54.363,136.58,53.955,136.58,53.538z M163.047,61.887
			c0,6.489-5.277,11.758-11.769,11.758h-0.158c-0.617-0.011-1.223-0.069-1.81-0.169h-0.01c-0.924-0.149-1.788-0.407-2.623-0.766
			c-0.328-0.139-0.646-0.298-0.955-0.457c-3.131-1.689-5.416-4.751-6.032-8.379c-0.089-0.537-0.149-1.083-0.159-1.64
			c0.487,0.199,0.984,0.348,1.511,0.457c0.04,0.526,0.119,1.044,0.249,1.551c0.715,3.051,2.793,5.576,5.556,6.888l13.686-13.687
			c-1.321-2.753-3.846-4.83-6.888-5.546c-0.506-0.119-1.023-0.208-1.551-0.248c-0.068-0.328-0.148-0.636-0.258-0.944
			c-0.05-0.188-0.119-0.378-0.188-0.565c0.238,0,0.478,0.02,0.716,0.04c0.317,0.029,0.615,0.068,0.924,0.129
			c3.617,0.626,6.68,2.901,8.358,6.032c0.169,0.309,0.328,0.616,0.458,0.944c0.337,0.775,0.586,1.6,0.745,2.455
			c0.119,0.636,0.189,1.292,0.199,1.968L163.047,61.887L163.047,61.887z"/>
		<path fill="#FFFFFF" d="M160.96,58.427l-13.13,13.13c0.289,0.1,0.587,0.198,0.885,0.269l12.514-12.513
			C161.149,59.015,161.059,58.716,160.96,58.427z"/>
		<path fill="#FFFFFF" d="M161.458,63.298l-8.747,8.757C157.243,71.418,160.832,67.83,161.458,63.298z"/>
	</g>
	<g>
		<g>
			<g>
				<path fill="#FFFFFF" d="M177.078,120.162v1.67c-1.951,3.1-3.205,7.479-3.697,11.129h-0.877c-0.49-3.644-1.74-8.019-3.686-11.113
					v-1.687L177.078,120.162 M177.287,117.162h-8.68c-1.539,0-2.79,1.249-2.79,2.79s0,2.79,0,2.79
					c2.401,3.521,3.815,8.66,3.915,13.22h6.42c0.1-4.56,1.516-9.699,3.916-13.22h0.01c0,0,0-1.249,0-2.79
					S178.828,117.162,177.287,117.162L177.287,117.162z"/>
			</g>
			<g>
				<path fill="#FFFFFF" d="M187.677,140.452h-29.469c-0.828,0-1.5-0.671-1.5-1.5s0.672-1.5,1.5-1.5h29.469
					c0.828,0,1.5,0.671,1.5,1.5S188.505,140.452,187.677,140.452z"/>
			</g>
			<g>
				<path fill="#F15B4E" d="M184.667,146.622h-23.45c-0.828,0-1.5-0.671-1.5-1.5s0.672-1.5,1.5-1.5h23.45c0.828,0,1.5,0.671,1.5,1.5
					S185.496,146.622,184.667,146.622z"/>
			</g>
			<g>
				<path fill="#FFFFFF" d="M186.167,142.545h-26.45c-0.276,0-0.5-0.224-0.5-0.5c0-0.275,0.224-0.5,0.5-0.5h26.45
					c0.277,0,0.5,0.225,0.5,0.5C186.667,142.321,186.445,142.545,186.167,142.545z"/>
			</g>
		</g>
		<g>
			<path fill="#FFFFFF" d="M174.369,122.889h-2.842c-0.277,0-0.5-0.225-0.5-0.5c0-0.276,0.223-0.5,0.5-0.5h2.842
				c0.275,0,0.5,0.224,0.5,0.5C174.869,122.665,174.644,122.889,174.369,122.889z"/>
		</g>
	</g>
	<g>
		<g enable-background="new    ">
			<path fill="#342134" d="M258.231,125.368c0,1.653-0.454,3.014-1.36,4.08s-2.08,1.76-3.52,2.08c0.96,0.134,1.873,0.486,2.74,1.06
				c0.866,0.574,1.58,1.354,2.14,2.34c0.56,0.987,0.841,2.12,0.841,3.4c0,1.813-0.435,3.387-1.301,4.72
				c-0.867,1.333-2.054,2.36-3.561,3.08c-1.506,0.721-3.193,1.08-5.06,1.08c-2.507,0-4.68-0.68-6.521-2.04
				c-1.84-1.359-3.039-3.24-3.6-5.64l3.92-0.88c0.347,1.547,1.054,2.8,2.121,3.76c1.065,0.96,2.439,1.44,4.119,1.44
				c1.707,0,3.094-0.468,4.16-1.4c1.066-0.934,1.6-2.333,1.6-4.2c0-1.573-0.467-2.806-1.399-3.7c-0.935-0.893-2.187-1.34-3.761-1.34
				h-3.199v-3h2.68c1.359,0,2.514-0.353,3.46-1.06c0.946-0.706,1.42-1.9,1.42-3.58c0-1.44-0.446-2.526-1.34-3.26
				s-2.021-1.101-3.38-1.101c-1.547,0-2.82,0.394-3.82,1.18c-1,0.787-1.674,1.94-2.02,3.461l-3.881-0.681
				c0.24-1.306,0.773-2.513,1.601-3.62c0.826-1.105,1.92-1.986,3.28-2.64c1.359-0.653,2.92-0.98,4.68-0.98
				c2.88,0,5.094,0.681,6.641,2.04C257.458,121.328,258.231,123.128,258.231,125.368z"/>
			<path fill="#342134" d="M275.671,130.288l5.8,5.76l-2.52,2.521l-5.76-5.8l-5.801,5.8l-2.52-2.521l5.8-5.76l-5.8-5.8l2.52-2.521
				l5.801,5.801l5.76-5.801l2.52,2.521L275.671,130.288z"/>
		</g>
		<g>
			<path fill="#342134" d="M311.379,163.156h-81.501l-20.004-32.079l20.06-32.174h81.445c1.104,0,2,0.896,2,2c0,1.104-0.896,2-2,2
				h-79.227l-17.564,28.174l17.51,28.079h79.281c1.104,0,2,0.896,2,2C313.379,162.26,312.484,163.156,311.379,163.156z"/>
		</g>
		<circle fill="#342134" cx="352.857" cy="131.029" r="34.386"/>
		<g>
			<g>
				<g>
					<path fill="#FFFFFF" d="M341.645,129.767v2.67h-4.5v4.68h-2.939v-4.68h-4.531v-2.67h4.531v-4.682h2.939v4.682H341.645z"/>
				</g>
			</g>
			<g>
				<g>
					<path fill="#FDB913" d="M358.578,124.885c-1.49,0-2.881-0.59-3.91-1.59c-0.561,0.261-1.17,0.391-1.801,0.391
						c-1.109,0-2.109-0.42-2.891-1.109v19.689c0,0.279,0.221,0.5,0.5,0.5h11.67c0.271,0,0.5-0.221,0.5-0.5v-19.17
						C361.637,124.195,360.188,124.885,358.578,124.885z M352.447,126.655c0-0.829,0.67-1.5,1.5-1.5c0.82,0,1.5,0.671,1.5,1.5
						c0,0.83-0.68,1.5-1.5,1.5C353.117,128.155,352.447,127.485,352.447,126.655z M354.816,133.596c-0.83,0-1.5-0.671-1.5-1.5
						c0-0.83,0.67-1.5,1.5-1.5s1.5,0.67,1.5,1.5C356.316,132.926,355.646,133.596,354.816,133.596z M356.316,130.456
						c-0.408,0-0.75-0.341-0.75-0.75c0-0.42,0.342-0.75,0.75-0.75c0.41,0,0.75,0.33,0.75,0.75
						C357.066,130.115,356.727,130.456,356.316,130.456z M359.938,141.256c-0.41,0-0.75-0.34-0.75-0.75c0-0.42,0.34-0.75,0.75-0.75
						c0.42,0,0.76,0.33,0.76,0.75C360.697,140.916,360.357,141.256,359.938,141.256z"/>
					<path fill="#FFFFFF" d="M360.697,140.506c0,0.41-0.34,0.75-0.76,0.75c-0.41,0-0.75-0.34-0.75-0.75c0-0.42,0.34-0.75,0.75-0.75
						C360.357,139.756,360.697,140.086,360.697,140.506z"/>
					<circle fill="#FFFFFF" cx="354.816" cy="132.096" r="1.5"/>
					<path fill="#FFFFFF" d="M357.066,129.706c0,0.409-0.34,0.75-0.75,0.75c-0.408,0-0.75-0.341-0.75-0.75
						c0-0.42,0.342-0.75,0.75-0.75C356.727,128.956,357.066,129.286,357.066,129.706z"/>
					<path fill="#FFFFFF" d="M355.447,126.655c0,0.83-0.68,1.5-1.5,1.5c-0.83,0-1.5-0.67-1.5-1.5c0-0.829,0.67-1.5,1.5-1.5
						C354.768,125.155,355.447,125.826,355.447,126.655z"/>
					<path fill="#FFFFFF" d="M362.631,118.994c-0.148-1.51-1.43-2.7-2.988-2.7c-0.541,0-1.051,0.142-1.479,0.392
						c-0.32-0.45-0.722-0.842-1.181-1.142c-0.711-0.479-1.569-0.75-2.49-0.75c-2.381,0-4.329,1.852-4.5,4.19
						c0,0.104-0.01,0.201-0.01,0.306c0,0.005-0.002,0.01-0.002,0.016c0,0.552,0.164,1.062,0.433,1.501
						c0.508,0.827,1.413,1.386,2.455,1.386c0.842,0,1.591-0.365,2.118-0.938c0.002,0.004,0.004,0.009,0.006,0.013
						c0.689,1.26,2.029,2.118,3.58,2.118c1.719,0,3.186-1.069,3.785-2.577c0.186-0.467,0.295-0.971,0.295-1.501
						C362.652,119.204,362.652,119.094,362.631,118.994z"/>
				</g>
				<path fill="#FFFFFF" d="M373.48,123.823c-0.51-1.06-1.381-1.93-2.439-2.46c-0.609-0.312-1.3-0.5-2.021-0.54h-0.369v2.979v0.021
					h0.301c1.18,0.15,2.09,1.16,2.09,2.38v8.75c0,1.32-1.07,2.39-2.391,2.39v3c1.881,0,3.529-0.96,4.49-2.408
					c0.129-0.19,0.239-0.382,0.34-0.592c0.359-0.72,0.561-1.528,0.561-2.39v-8.75C374.041,125.354,373.84,124.543,373.48,123.823z"
					/>
				<path fill="#FFFFFF" d="M365.652,117.805c-0.83,0-1.5,0.67-1.5,1.5v22.96c0,1.108-0.899,2-2,2h-11.67c-1.102,0-2-0.892-2-2
					v-22.96c0-0.83-0.67-1.5-1.5-1.5s-1.5,0.67-1.5,1.5v22.96c0,2.76,2.238,5,5,5h11.67c2.761,0,5-2.24,5-5v-22.96
					C367.152,118.475,366.482,117.805,365.652,117.805z"/>
			</g>
		</g>
	</g>
	<g>
		<g>
			<path fill="#FFFFFF" d="M118.336,161.765h-12.45c-2.76,0-7,4.239-7,7v14.449c0,2.049,1.236,3.806,3,4.577v1.271
				c0,1.194,0.968,2.164,2.163,2.164c1.195,0,2.164-0.969,2.164-2.164v-0.848h11.594v0.848c0,1.194,0.969,2.164,2.164,2.164
				c1.195,0,2.163-0.969,2.163-2.164v-1.194c1.87-0.724,3.202-2.528,3.202-4.653v-14.449
				C125.336,166.004,121.096,161.765,118.336,161.765z M110.056,162.814h4.11c0.279,0,0.5,0.22,0.5,0.5c0,0.279-0.221,0.5-0.5,0.5
				h-4.11c-0.271,0-0.5-0.221-0.5-0.5C109.556,163.034,109.786,162.814,110.056,162.814z M122.336,183.214c0,1.101-0.891,2-2,2
				h-0.264c-0.034-0.001-0.066-0.01-0.102-0.01c-0.036,0-0.067,0.009-0.102,0.01h-15.719c-0.033-0.001-0.066-0.01-0.102-0.01
				c-0.034,0-0.066,0.009-0.102,0.01h-0.062c-1.101,0-2-0.899-2-2v-5.659h20.45v5.659H122.336z M122.336,174.555h-20.45v-5.78
				c0.08-1.19,2.82-3.931,4-4.01h12.45c1.189,0.09,3.92,2.819,4,4V174.555z"/>
			<circle fill="#FFFFFF" cx="104.807" cy="182.39" r="1.917"/>
			<circle fill="#FFFFFF" cx="119.442" cy="182.39" r="1.898"/>
			<path fill="#FFFFFF" d="M114.17,182.807h-4.109c-0.277,0-0.5,0.224-0.5,0.5c0,0.275,0.223,0.5,0.5,0.5h4.109
				c0.275,0,0.5-0.225,0.5-0.5C114.67,183.031,114.446,182.807,114.17,182.807z"/>
			<path fill="#FFFFFF" d="M115.153,180.89h-6.074c-0.277,0-0.5,0.224-0.5,0.5c0,0.275,0.223,0.5,0.5,0.5h6.074
				c0.275,0,0.5-0.225,0.5-0.5C115.653,181.114,115.428,180.89,115.153,180.89z"/>
			<path fill="#FFFFFF" d="M106.687,179.992h10.856c0.276,0,0.5-0.224,0.5-0.5s-0.224-0.5-0.5-0.5h-10.856
				c-0.276,0-0.5,0.224-0.5,0.5S106.411,179.992,106.687,179.992z"/>
			<path fill="#FFFFFF" d="M107.379,165.561l-4.704,4.705c-0.195,0.194-0.195,0.512,0,0.707c0.098,0.098,0.226,0.146,0.354,0.146
				c0.128,0,0.256-0.049,0.354-0.146l4.704-4.705c0.195-0.195,0.195-0.513,0-0.707C107.892,165.366,107.575,165.366,107.379,165.561
				z"/>
			<path fill="#FFFFFF" d="M106.856,168.241l-2.024,2.024c-0.195,0.194-0.195,0.512,0,0.707c0.098,0.098,0.226,0.146,0.354,0.146
				s0.256-0.049,0.354-0.146l2.024-2.024c0.195-0.195,0.195-0.512,0-0.707S107.051,168.046,106.856,168.241z"/>
		</g>
	</g>
	<g>
		<path fill="#FFFFFF" d="M39.604,115.137v21.34l11.47,7.35l11.46-7.35v-21.34H39.604z M43.104,118.637h15.93v15.93l-7.96,5.1
			l-7.97-5.1V118.637z M65.444,138.187h-1.88l-5.45,3.5h4.87l1.25,3.449h-26.33l1.25-3.449h4.88l-5.46-3.5h-1.87l-3.78,10.449
			h36.301L65.444,138.187z"/>
	</g>
</g>
<g id="Layer_2" display="none">
</g>
</svg>
