<?xml version="1.0" encoding="utf-8"?>
<!-- Generator: Adobe Illustrator 16.0.0, SVG Export Plug-In . SVG Version: 6.00 Build 0)  -->
<!DOCTYPE svg PUBLIC "-//W3C//DTD SVG 1.1//EN" "http://www.w3.org/Graphics/SVG/1.1/DTD/svg11.dtd">
<svg version="1.1" id="Layer_1" xmlns="http://www.w3.org/2000/svg" xmlns:xlink="http://www.w3.org/1999/xlink" x="0px" y="0px"
	 width="198px" height="129.5px" viewBox="166.105 62.5 198 129.5" enable-background="new 166.105 62.5 198 129.5"
	 xml:space="preserve">
<rect x="166.105" y="62.5" fill="#B84561" width="198" height="129.5"/>
<g id="Layer_1_1_">
</g>
<g>
	<circle fill="#FFFFFF" cx="216.451" cy="127.25" r="44.309"/>
	<g id="Layer_2">
		<g>
			<rect x="226.615" y="150.566" fill="#B84561" width="9.891" height="5.562"/>
			<rect x="196.296" y="150.566" fill="#B84561" width="9.891" height="5.562"/>
			<g>
				<path fill="#B84561" d="M239.584,102.199c-1.589-1.43-3.312-2.713-5.146-3.83h-35.922c-1.855,1.129-3.595,2.428-5.198,3.875
					l-1.347,25.699v21.35h48.96v-21.35L239.584,102.199z M204.211,100.246h24.48v3.193h-24.48V100.246z M199.143,140.787
					c-1.572,0-2.847-1.275-2.847-2.848s1.274-2.846,2.847-2.846c1.571,0,2.846,1.273,2.846,2.846S200.714,140.787,199.143,140.787z
					 M233.763,140.787c-1.572,0-2.847-1.275-2.847-2.848s1.274-2.846,2.847-2.846c1.571,0,2.846,1.273,2.846,2.846
					S235.334,140.787,233.763,140.787z M196.125,127.945l1.187-22.629h38.326l1.186,22.629H196.125z"/>
			</g>
		</g>
	</g>
	<g>
		<path fill="#FFFFFF" d="M269.527,99.312v-1.887h1.543v1.887H269.527z M271.07,101v9.381h-1.543V101H271.07z"/>
		<path fill="#FFFFFF" d="M274.917,101v1.488h0.036c0.641-1.137,1.657-1.707,3.048-1.707c0.616,0,1.13,0.086,1.542,0.254
			c0.412,0.17,0.744,0.406,0.997,0.709c0.254,0.303,0.433,0.662,0.535,1.078c0.104,0.418,0.155,0.883,0.155,1.389v6.17h-1.543
			v-6.352c0-0.58-0.169-1.039-0.507-1.379c-0.339-0.338-0.806-0.508-1.397-0.508c-0.473,0-0.88,0.074-1.225,0.219
			c-0.345,0.146-0.632,0.352-0.861,0.615c-0.23,0.268-0.402,0.578-0.518,0.936c-0.114,0.357-0.172,0.746-0.172,1.17v5.299h-1.543
			V101H274.917L274.917,101z"/>
		<path fill="#FFFFFF" d="M287.563,101v1.361h-1.87v5.824c0,0.182,0.017,0.326,0.047,0.436c0.03,0.107,0.086,0.193,0.172,0.254
			c0.083,0.061,0.201,0.1,0.353,0.117s0.348,0.029,0.59,0.029h0.709v1.361h-1.181c-0.399,0-0.74-0.027-1.024-0.082
			c-0.285-0.055-0.515-0.154-0.69-0.301c-0.175-0.145-0.306-0.352-0.389-0.615c-0.086-0.266-0.127-0.617-0.127-1.053v-5.971h-1.597
			v-1.359h1.597v-2.814h1.542v2.814h1.869V101z"/>
		<path fill="#FFFFFF" d="M295.909,109.783c-0.702,0.531-1.585,0.799-2.649,0.799c-0.75,0-1.4-0.121-1.949-0.365
			c-0.551-0.24-1.015-0.58-1.39-1.014c-0.375-0.436-0.656-0.957-0.843-1.561c-0.188-0.605-0.293-1.266-0.318-1.979
			c0-0.713,0.109-1.367,0.327-1.959c0.217-0.594,0.522-1.107,0.917-1.543c0.392-0.436,0.857-0.773,1.397-1.016
			c0.538-0.242,1.127-0.363,1.769-0.363c0.835,0,1.527,0.172,2.078,0.516c0.549,0.346,0.99,0.783,1.324,1.316
			c0.331,0.531,0.562,1.113,0.689,1.742s0.177,1.227,0.152,1.795h-7.021c-0.012,0.412,0.036,0.803,0.146,1.17
			c0.108,0.369,0.284,0.695,0.527,0.98c0.241,0.285,0.549,0.512,0.924,0.68c0.375,0.17,0.816,0.254,1.326,0.254
			c0.651,0,1.188-0.15,1.604-0.453s0.692-0.762,0.825-1.379h1.524C297.063,108.459,296.611,109.25,295.909,109.783z
			 M295.538,103.758c-0.14-0.326-0.327-0.607-0.562-0.844c-0.236-0.236-0.516-0.424-0.835-0.562
			c-0.321-0.139-0.676-0.209-1.062-0.209c-0.398,0-0.759,0.07-1.078,0.209c-0.322,0.139-0.598,0.33-0.826,0.572
			c-0.229,0.242-0.412,0.521-0.544,0.842c-0.133,0.32-0.212,0.664-0.235,1.025h5.389
			C295.758,104.43,295.676,104.084,295.538,103.758z"/>
		<path fill="#FFFFFF" d="M300.409,101v1.977h0.036c0.376-0.762,0.836-1.324,1.38-1.686c0.543-0.363,1.233-0.533,2.067-0.51v1.633
			c-0.616,0-1.143,0.086-1.578,0.256c-0.436,0.168-0.785,0.416-1.052,0.744c-0.267,0.326-0.46,0.723-0.581,1.188
			s-0.182,1.002-0.182,1.607v4.172h-1.542V101H300.409z"/>
		<path fill="#FFFFFF" d="M312.257,110.582c-0.398,0-0.717-0.113-0.953-0.338c-0.235-0.223-0.354-0.59-0.354-1.096
			c-0.423,0.506-0.916,0.873-1.479,1.096c-0.562,0.225-1.171,0.338-1.824,0.338c-0.424,0-0.822-0.047-1.197-0.139
			c-0.376-0.09-0.705-0.24-0.989-0.451c-0.283-0.213-0.508-0.484-0.671-0.818c-0.163-0.332-0.245-0.734-0.245-1.207
			c0-0.531,0.091-0.967,0.272-1.307c0.181-0.338,0.42-0.611,0.716-0.824s0.635-0.373,1.017-0.48c0.381-0.109,0.771-0.201,1.17-0.273
			c0.424-0.084,0.826-0.148,1.207-0.189c0.381-0.043,0.717-0.104,1.007-0.182c0.291-0.078,0.521-0.193,0.689-0.346
			c0.169-0.15,0.255-0.371,0.255-0.66c0-0.338-0.063-0.611-0.19-0.816c-0.128-0.207-0.291-0.363-0.49-0.473
			c-0.2-0.109-0.424-0.182-0.672-0.217c-0.247-0.037-0.492-0.057-0.734-0.057c-0.653,0-1.198,0.125-1.634,0.373
			c-0.435,0.248-0.671,0.717-0.707,1.406h-1.543c0.024-0.582,0.146-1.07,0.363-1.469c0.218-0.4,0.508-0.723,0.871-0.971
			c0.362-0.248,0.781-0.428,1.252-0.535c0.472-0.109,0.968-0.164,1.488-0.164c0.423,0,0.844,0.031,1.261,0.092
			s0.796,0.184,1.135,0.371c0.338,0.188,0.61,0.451,0.816,0.789c0.205,0.338,0.309,0.781,0.309,1.324v4.826
			c0,0.363,0.021,0.631,0.063,0.799c0.042,0.168,0.184,0.254,0.426,0.254c0.133,0,0.29-0.029,0.472-0.09v1.197
			C313.098,110.504,312.729,110.582,312.257,110.582z M310.099,105.855c-0.315,0.066-0.645,0.121-0.988,0.162
			c-0.347,0.043-0.692,0.092-1.044,0.145c-0.352,0.055-0.666,0.143-0.942,0.264c-0.279,0.121-0.507,0.295-0.682,0.518
			c-0.175,0.225-0.263,0.527-0.263,0.916c0,0.254,0.052,0.469,0.154,0.645c0.102,0.176,0.236,0.318,0.399,0.426
			c0.163,0.109,0.355,0.189,0.581,0.236c0.222,0.049,0.45,0.072,0.68,0.072c0.508,0,0.943-0.068,1.307-0.207s0.66-0.314,0.89-0.527
			c0.229-0.211,0.398-0.441,0.508-0.689c0.108-0.248,0.163-0.48,0.163-0.699v-1.578
			C310.666,105.682,310.412,105.787,310.099,105.855z"/>
		<path fill="#FFFFFF" d="M316.432,97.426v7.676l4.281-4.1h2.068l-3.719,3.41l3.991,5.971h-1.96l-3.212-4.9l-1.45,1.344v3.557
			h-1.544V97.428h1.544V97.426z"/>
		<path fill="#FFFFFF" d="M328.225,101v1.361h-1.869v5.824c0,0.182,0.015,0.326,0.045,0.436c0.03,0.107,0.088,0.193,0.172,0.254
			s0.202,0.1,0.354,0.117s0.348,0.029,0.59,0.029h0.707v1.361h-1.179c-0.399,0-0.741-0.027-1.025-0.082s-0.515-0.154-0.689-0.301
			c-0.176-0.145-0.307-0.352-0.39-0.615c-0.085-0.266-0.128-0.617-0.128-1.053v-5.971h-1.596v-1.359h1.596v-2.814h1.543v2.814h1.87
			V101z"/>
		<path fill="#FFFFFF" d="M330.021,99.312v-1.887h1.542v1.887H330.021z M331.562,101v9.381h-1.542V101H331.562z"/>
		<path fill="#FFFFFF" d="M336.534,110.381L333.051,101h1.724l2.631,7.82h0.036l2.558-7.82h1.615l-3.43,9.381H336.534
			L336.534,110.381z"/>
		<path fill="#FFFFFF" d="M349.671,109.783c-0.701,0.531-1.585,0.799-2.647,0.799c-0.75,0-1.401-0.121-1.952-0.365
			c-0.551-0.24-1.013-0.58-1.388-1.014c-0.375-0.436-0.656-0.957-0.844-1.561c-0.188-0.605-0.293-1.266-0.317-1.979
			c0-0.713,0.108-1.367,0.326-1.959c0.218-0.594,0.523-1.107,0.917-1.543c0.393-0.436,0.858-0.773,1.396-1.016
			c0.539-0.242,1.128-0.363,1.77-0.363c0.835,0,1.526,0.172,2.077,0.516c0.55,0.346,0.991,0.783,1.324,1.316
			c0.333,0.531,0.562,1.113,0.689,1.742s0.179,1.227,0.154,1.795h-7.022c-0.012,0.412,0.037,0.803,0.146,1.17
			c0.108,0.369,0.284,0.695,0.526,0.98s0.55,0.512,0.925,0.68c0.375,0.17,0.816,0.254,1.324,0.254c0.653,0,1.188-0.15,1.606-0.453
			c0.417-0.303,0.692-0.762,0.825-1.379h1.524C350.826,108.459,350.373,109.25,349.671,109.783z M349.299,103.758
			c-0.139-0.326-0.326-0.607-0.562-0.844c-0.235-0.236-0.514-0.424-0.835-0.562s-0.675-0.209-1.062-0.209
			c-0.399,0-0.76,0.07-1.08,0.209s-0.596,0.33-0.825,0.572c-0.231,0.242-0.411,0.521-0.544,0.842
			c-0.134,0.32-0.212,0.664-0.236,1.025h5.389C349.52,104.43,349.438,104.084,349.299,103.758z"/>
		<path fill="#FFFFFF" d="M354.171,101v1.977h0.036c0.375-0.762,0.834-1.324,1.379-1.686c0.544-0.363,1.234-0.533,2.068-0.51v1.633
			c-0.616,0-1.143,0.086-1.578,0.256c-0.436,0.168-0.787,0.416-1.053,0.744c-0.266,0.326-0.46,0.723-0.581,1.188
			c-0.12,0.465-0.181,1.002-0.181,1.607v4.172h-1.543V101H354.171z"/>
		<path fill="#FFFFFF" d="M278.201,119.199v1.453h-6.788v4.117h5.953v1.453h-5.953v5.932h-1.724v-12.955H278.201z"/>
		<path fill="#FFFFFF" d="M287.055,132.354c-0.398,0-0.716-0.111-0.952-0.336c-0.235-0.223-0.354-0.588-0.354-1.096
			c-0.424,0.508-0.916,0.875-1.479,1.096c-0.562,0.225-1.17,0.336-1.823,0.336c-0.424,0-0.822-0.045-1.197-0.135
			c-0.376-0.092-0.705-0.242-0.989-0.455c-0.284-0.211-0.508-0.482-0.671-0.816c-0.164-0.332-0.245-0.734-0.245-1.205
			c0-0.533,0.091-0.969,0.272-1.307c0.181-0.34,0.42-0.615,0.716-0.826s0.635-0.373,1.015-0.48c0.383-0.109,0.772-0.199,1.172-0.273
			c0.422-0.082,0.825-0.146,1.205-0.189c0.381-0.041,0.717-0.102,1.007-0.182c0.291-0.078,0.521-0.193,0.69-0.346
			c0.17-0.15,0.254-0.369,0.254-0.66c0-0.338-0.063-0.611-0.19-0.816s-0.29-0.363-0.489-0.473c-0.201-0.107-0.425-0.182-0.671-0.217
			c-0.249-0.037-0.493-0.055-0.735-0.055c-0.653,0-1.197,0.125-1.633,0.373s-0.671,0.715-0.707,1.404h-1.543
			c0.025-0.58,0.146-1.068,0.364-1.469c0.217-0.398,0.508-0.725,0.87-0.973c0.363-0.246,0.78-0.424,1.252-0.533
			s0.968-0.164,1.488-0.164c0.424,0,0.844,0.031,1.261,0.092s0.796,0.184,1.135,0.371c0.338,0.188,0.61,0.451,0.815,0.789
			c0.206,0.34,0.309,0.781,0.309,1.324v4.828c0,0.361,0.021,0.629,0.063,0.797c0.042,0.17,0.185,0.254,0.427,0.254
			c0.133,0,0.29-0.029,0.472-0.09v1.197C287.896,132.275,287.527,132.354,287.055,132.354z M284.896,127.629
			c-0.316,0.064-0.645,0.121-0.989,0.162c-0.345,0.043-0.693,0.09-1.043,0.145c-0.353,0.055-0.666,0.143-0.944,0.264
			s-0.506,0.293-0.68,0.518c-0.175,0.225-0.265,0.529-0.265,0.916c0,0.256,0.052,0.469,0.156,0.645
			c0.102,0.174,0.235,0.318,0.398,0.426c0.164,0.109,0.356,0.188,0.581,0.236c0.224,0.049,0.45,0.072,0.681,0.072
			c0.509,0,0.943-0.068,1.307-0.209c0.362-0.139,0.659-0.314,0.89-0.525c0.229-0.211,0.399-0.443,0.508-0.689
			c0.109-0.248,0.163-0.48,0.163-0.699v-1.578C285.465,127.455,285.211,127.562,284.896,127.629z"/>
		<path fill="#FFFFFF" d="M291.137,119.199v4.955h0.037c0.121-0.293,0.291-0.535,0.509-0.736c0.218-0.199,0.463-0.363,0.733-0.49
			c0.273-0.127,0.558-0.219,0.854-0.279c0.297-0.061,0.584-0.092,0.862-0.092c0.616,0,1.13,0.084,1.542,0.254
			c0.41,0.17,0.744,0.406,0.998,0.707c0.253,0.303,0.433,0.664,0.534,1.08c0.104,0.418,0.155,0.881,0.155,1.387v6.17h-1.543v-6.352
			c0-0.58-0.17-1.039-0.509-1.379c-0.337-0.338-0.805-0.508-1.396-0.508c-0.473,0-0.881,0.072-1.226,0.219
			c-0.345,0.145-0.632,0.35-0.861,0.615c-0.23,0.268-0.402,0.578-0.518,0.936s-0.173,0.746-0.173,1.17v5.299h-1.542v-12.955H291.137
			L291.137,119.199z"/>
		<path fill="#FFFFFF" d="M301.08,122.773v1.979h0.036c0.375-0.764,0.836-1.324,1.379-1.688c0.544-0.363,1.234-0.533,2.068-0.508
			v1.631c-0.617,0-1.143,0.086-1.579,0.254c-0.436,0.17-0.785,0.418-1.052,0.744c-0.266,0.328-0.46,0.725-0.579,1.189
			c-0.123,0.465-0.184,1-0.184,1.605v4.172h-1.542v-9.381L301.08,122.773L301.08,122.773z"/>
		<path fill="#FFFFFF" d="M307.323,122.773v1.27h0.036c0.254-0.518,0.652-0.896,1.197-1.133s1.143-0.354,1.796-0.354
			c0.727,0,1.358,0.133,1.896,0.398c0.539,0.266,0.986,0.625,1.343,1.08c0.356,0.453,0.626,0.977,0.808,1.568
			c0.182,0.594,0.272,1.223,0.272,1.887c0,0.666-0.088,1.295-0.264,1.887c-0.175,0.594-0.441,1.109-0.798,1.553
			c-0.356,0.441-0.805,0.789-1.343,1.043s-1.164,0.381-1.878,0.381c-0.23,0-0.486-0.025-0.771-0.072
			c-0.285-0.049-0.566-0.127-0.845-0.236c-0.277-0.109-0.541-0.258-0.789-0.445s-0.456-0.42-0.626-0.699h-0.036v4.826h-1.542
			v-12.955L307.323,122.773L307.323,122.773z M312.866,126.104c-0.116-0.418-0.29-0.789-0.526-1.117
			c-0.235-0.326-0.538-0.586-0.908-0.779c-0.369-0.193-0.802-0.291-1.297-0.291c-0.52,0-0.961,0.104-1.324,0.309
			c-0.362,0.205-0.66,0.475-0.89,0.807c-0.23,0.334-0.396,0.711-0.498,1.135s-0.154,0.854-0.154,1.289
			c0,0.459,0.055,0.904,0.164,1.332c0.108,0.43,0.28,0.809,0.517,1.135s0.541,0.59,0.917,0.789c0.374,0.199,0.829,0.299,1.36,0.299
			c0.532,0,0.977-0.102,1.334-0.307c0.357-0.207,0.645-0.479,0.862-0.816c0.218-0.34,0.375-0.727,0.472-1.162
			s0.146-0.883,0.146-1.342C313.037,126.947,312.979,126.521,312.866,126.104z"/>
		<path fill="#FFFFFF" d="M318.119,119.199v12.955h-1.542v-12.955H318.119z"/>
		<path fill="#FFFFFF" d="M327.716,132.354c-0.397,0-0.716-0.111-0.952-0.336c-0.235-0.223-0.354-0.588-0.354-1.096
			c-0.424,0.508-0.917,0.875-1.479,1.096c-0.562,0.225-1.171,0.336-1.824,0.336c-0.423,0-0.822-0.045-1.197-0.135
			c-0.375-0.092-0.705-0.242-0.989-0.455c-0.284-0.211-0.508-0.482-0.671-0.816c-0.162-0.332-0.245-0.734-0.245-1.205
			c0-0.533,0.091-0.969,0.273-1.307c0.182-0.338,0.419-0.615,0.716-0.826c0.296-0.211,0.635-0.373,1.016-0.48
			c0.381-0.109,0.771-0.199,1.17-0.273c0.424-0.082,0.826-0.146,1.207-0.189c0.381-0.041,0.717-0.102,1.007-0.182
			c0.29-0.078,0.521-0.193,0.689-0.346c0.17-0.15,0.254-0.369,0.254-0.66c0-0.338-0.063-0.611-0.19-0.816s-0.29-0.363-0.49-0.473
			c-0.199-0.107-0.423-0.182-0.671-0.217c-0.248-0.037-0.493-0.055-0.735-0.055c-0.653,0-1.197,0.125-1.633,0.373
			s-0.671,0.715-0.707,1.404h-1.543c0.023-0.58,0.146-1.068,0.363-1.469c0.217-0.398,0.508-0.725,0.87-0.973
			c0.363-0.246,0.78-0.424,1.252-0.533c0.473-0.109,0.969-0.164,1.488-0.164c0.423,0,0.844,0.031,1.262,0.092
			c0.417,0.061,0.795,0.184,1.134,0.371c0.338,0.188,0.61,0.451,0.816,0.789c0.205,0.34,0.309,0.781,0.309,1.324v4.828
			c0,0.361,0.021,0.629,0.062,0.797c0.042,0.17,0.185,0.254,0.426,0.254c0.134,0,0.291-0.029,0.473-0.09v1.197
			C328.557,132.275,328.188,132.354,327.716,132.354z M325.557,127.629c-0.314,0.064-0.643,0.121-0.988,0.162
			c-0.345,0.043-0.693,0.09-1.044,0.145s-0.665,0.143-0.943,0.264s-0.505,0.293-0.681,0.518c-0.175,0.225-0.263,0.529-0.263,0.916
			c0,0.256,0.051,0.469,0.154,0.645c0.103,0.174,0.237,0.318,0.399,0.426c0.163,0.109,0.356,0.188,0.582,0.236
			c0.223,0.049,0.449,0.072,0.68,0.072c0.509,0,0.944-0.068,1.308-0.209c0.362-0.139,0.658-0.314,0.889-0.525
			c0.229-0.211,0.399-0.443,0.508-0.689c0.109-0.248,0.163-0.48,0.163-0.699v-1.578
			C326.126,127.455,325.873,127.562,325.557,127.629z"/>
		<path fill="#FFFFFF" d="M331.708,122.773v1.488h0.036c0.643-1.137,1.657-1.705,3.048-1.705c0.617,0,1.131,0.084,1.542,0.254
			c0.412,0.168,0.745,0.404,0.999,0.707c0.253,0.303,0.432,0.662,0.535,1.08c0.103,0.416,0.154,0.879,0.154,1.387v6.17h-1.542
			v-6.352c0-0.58-0.17-1.039-0.508-1.379c-0.339-0.338-0.806-0.508-1.396-0.508c-0.473,0-0.881,0.072-1.225,0.217
			c-0.345,0.145-0.633,0.352-0.863,0.617c-0.229,0.266-0.4,0.578-0.516,0.934c-0.115,0.357-0.172,0.748-0.172,1.172v5.297h-1.543
			v-9.381L331.708,122.773L331.708,122.773z"/>
	</g>
</g>
</svg>
