<?xml version="1.0" encoding="utf-8"?>
<!-- Generator: Adobe Illustrator 16.0.0, SVG Export Plug-In . SVG Version: 6.00 Build 0)  -->
<!DOCTYPE svg PUBLIC "-//W3C//DTD SVG 1.1//EN" "http://www.w3.org/Graphics/SVG/1.1/DTD/svg11.dtd">
<svg version="1.1" id="Layer_1" xmlns="http://www.w3.org/2000/svg" xmlns:xlink="http://www.w3.org/1999/xlink" x="0px" y="0px"
	 width="198px" height="129.5px" viewBox="141.778 181.833 198 129.5" enable-background="new 141.778 181.833 198 129.5"
	 xml:space="preserve">
<rect x="141.778" y="181.833" fill="#B84561" width="198" height="129.5"/>
<g id="Layer_1_1_">
</g>
<g>
	<circle fill="#FFFFFF" cx="240.778" cy="246.583" r="44.309"/>
	<g id="Layer_2">
		<g>
			<rect x="250.942" y="269.899" fill="#B84561" width="9.891" height="5.562"/>
			<rect x="220.623" y="269.899" fill="#B84561" width="9.892" height="5.562"/>
			<g>
				<path fill="#B84561" d="M263.911,221.532c-1.589-1.43-3.312-2.713-5.146-3.83h-35.922c-1.854,1.129-3.595,2.428-5.197,3.875
					l-1.348,25.699v21.35h48.961v-21.35L263.911,221.532z M228.538,219.579h24.48v3.193h-24.48V219.579z M223.47,260.12
					c-1.572,0-2.847-1.275-2.847-2.848c0-1.573,1.274-2.847,2.847-2.847c1.571,0,2.846,1.273,2.846,2.847
					C226.315,258.845,225.041,260.12,223.47,260.12z M258.091,260.12c-1.572,0-2.848-1.275-2.848-2.848
					c0-1.573,1.273-2.847,2.848-2.847c1.57,0,2.846,1.273,2.846,2.847C260.937,258.845,259.661,260.12,258.091,260.12z
					 M220.452,247.278l1.188-22.629h38.326l1.186,22.629H220.452z"/>
			</g>
		</g>
	</g>
</g>
</svg>
